# MagicaVoxel @ Ephtracy

# group
g floor_G

# material
mtllib floor_G.mtl
usemtl palette

# normals
vn -1 0 0
vn 1 0 0
vn 0 0 1
vn 0 0 -1
vn 0 -1 0
vn 0 1 0

# texcoords
vt 0.130859 0.5
vt 0.134766 0.5
vt 0.861328 0.5

# verts
v -20 0 20
v -20 0 5
v -20 0 4
v -20 0 -20
v -20 1 20
v -20 1 5
v -20 1 4
v -20 1 -20
v 20 0 20
v 20 0 5
v 20 0 4
v 20 0 -20
v 20 1 20
v 20 1 5
v 20 1 4
v 20 1 -20
v -20 0 20
v -20 1 20
v 20 0 20
v 20 1 20
v -20 0 -20
v -20 1 -20
v 20 0 -20
v 20 1 -20
v -20 0 20
v 20 0 20
v -5 0 7
v 5 0 7
v -10 0 6
v -5 0 6
v 5 0 6
v 10 0 6
v -20 0 5
v -10 0 5
v -5 0 5
v 5 0 5
v 10 0 5
v 20 0 5
v -20 0 4
v -10 0 4
v 10 0 4
v 20 0 4
v -20 0 -20
v 20 0 -20
v -20 1 20
v 20 1 20
v -5 1 7
v 5 1 7
v -10 1 6
v -5 1 6
v 5 1 6
v 10 1 6
v -20 1 5
v -10 1 5
v -5 1 5
v 5 1 5
v 10 1 5
v 20 1 5
v -20 1 4
v -10 1 4
v 10 1 4
v 20 1 4
v -20 1 -20
v 20 1 -20

# faces
f 5/3/1 2/3/1 1/3/1
f 6/2/1 3/2/1 2/2/1
f 6/3/1 2/3/1 5/3/1
f 7/1/1 4/1/1 3/1/1
f 7/2/1 3/2/1 6/2/1
f 8/1/1 4/1/1 7/1/1
f 9/3/2 10/3/2 13/3/2
f 10/2/2 11/2/2 14/2/2
f 13/3/2 10/3/2 14/3/2
f 11/1/2 12/1/2 15/1/2
f 14/2/2 11/2/2 15/2/2
f 15/1/2 12/1/2 16/1/2
f 19/3/3 18/3/3 17/3/3
f 20/3/3 18/3/3 19/3/3
f 21/1/4 22/1/4 23/1/4
f 23/1/4 22/1/4 24/1/4
f 27/3/5 26/3/5 25/3/5
f 28/3/5 26/3/5 27/3/5
f 29/3/5 27/3/5 25/3/5
f 30/2/5 28/2/5 27/2/5
f 30/3/5 27/3/5 29/3/5
f 31/3/5 26/3/5 28/3/5
f 31/2/5 28/2/5 30/2/5
f 32/3/5 26/3/5 31/3/5
f 33/3/5 29/3/5 25/3/5
f 34/2/5 30/2/5 29/2/5
f 34/3/5 29/3/5 33/3/5
f 35/1/5 31/1/5 30/1/5
f 35/2/5 30/2/5 34/2/5
f 36/2/5 32/2/5 31/2/5
f 36/1/5 31/1/5 35/1/5
f 37/3/5 26/3/5 32/3/5
f 37/2/5 32/2/5 36/2/5
f 38/3/5 26/3/5 37/3/5
f 39/2/5 34/2/5 33/2/5
f 40/1/5 36/1/5 35/1/5
f 40/2/5 34/2/5 39/2/5
f 40/1/5 35/1/5 34/1/5
f 40/1/5 37/1/5 36/1/5
f 41/2/5 38/2/5 37/2/5
f 41/1/5 37/1/5 40/1/5
f 42/2/5 38/2/5 41/2/5
f 43/1/5 40/1/5 39/1/5
f 43/1/5 41/1/5 40/1/5
f 43/1/5 42/1/5 41/1/5
f 44/1/5 42/1/5 43/1/5
f 45/3/6 46/3/6 47/3/6
f 47/3/6 46/3/6 48/3/6
f 45/3/6 47/3/6 49/3/6
f 47/2/6 48/2/6 50/2/6
f 49/3/6 47/3/6 50/3/6
f 48/3/6 46/3/6 51/3/6
f 50/2/6 48/2/6 51/2/6
f 51/3/6 46/3/6 52/3/6
f 45/3/6 49/3/6 53/3/6
f 49/2/6 50/2/6 54/2/6
f 53/3/6 49/3/6 54/3/6
f 50/1/6 51/1/6 55/1/6
f 54/2/6 50/2/6 55/2/6
f 51/2/6 52/2/6 56/2/6
f 55/1/6 51/1/6 56/1/6
f 52/3/6 46/3/6 57/3/6
f 56/2/6 52/2/6 57/2/6
f 57/3/6 46/3/6 58/3/6
f 53/2/6 54/2/6 59/2/6
f 55/1/6 56/1/6 60/1/6
f 59/2/6 54/2/6 60/2/6
f 54/1/6 55/1/6 60/1/6
f 56/1/6 57/1/6 60/1/6
f 57/2/6 58/2/6 61/2/6
f 60/1/6 57/1/6 61/1/6
f 61/2/6 58/2/6 62/2/6
f 59/1/6 60/1/6 63/1/6
f 60/1/6 61/1/6 63/1/6
f 61/1/6 62/1/6 63/1/6
f 63/1/6 62/1/6 64/1/6
