# MagicaVoxel @ Ephtracy

# group
g Lv1_pnuts

# material
mtllib Lv1_pnuts.mtl
usemtl palette

# normals
vn -1 0 0
vn 1 0 0
vn 0 0 1
vn 0 0 -1
vn 0 -1 0
vn 0 1 0

# texcoords
vt 0.416016 0.5
vt 0.517578 0.5
vt 0.693359 0.5
vt 0.884766 0.5
vt 0.888672 0.5
vt 0.892578 0.5
vt 0.951172 0.5

# verts
v -5 0 1.5
v -5 0 0.5
v -5 1 1.5
v -5 1 0.5
v -4 0 -1.5
v -4 0 -2.5
v -4 1 -1.5
v -4 1 -2.5
v -3 0 2.5
v -3 0 1.5
v -3 0 0.5
v -3 0 -0.5
v -3 1 2.5
v -3 1 1.5
v -3 1 0.5
v -3 1 -0.5
v -1 0 2.5
v -1 0 -2.5
v -1 1 2.5
v -1 1 -2.5
v -1 3 2.5
v -1 3 -2.5
v -1 4 2.5
v -1 4 -2.5
v -1 5 2.5
v -1 5 -2.5
v -1 6 2.5
v -1 6 1.5
v -1 6 0.5
v -1 6 -0.5
v -1 6 -1.5
v -1 6 -2.5
v -1 7 2.5
v -1 7 1.5
v -1 7 0.5
v -1 7 -0.5
v -1 7 -1.5
v -1 7 -2.5
v 0 5 1.5
v 0 5 -1.5
v 0 6 1.5
v 0 6 0.5
v 0 6 -0.5
v 0 6 -1.5
v -4 0 1.5
v -4 0 0.5
v -4 1 1.5
v -4 1 0.5
v -3 0 -1.5
v -3 0 -2.5
v -3 1 -1.5
v -3 1 -2.5
v -2 0 2.5
v -2 0 1.5
v -2 0 0.5
v -2 0 -0.5
v -2 1 2.5
v -2 1 1.5
v -2 1 0.5
v -2 1 -0.5
v 3 5 1.5
v 3 5 -1.5
v 3 6 1.5
v 3 6 0.5
v 3 6 -0.5
v 3 6 -1.5
v 4 0 2.5
v 4 0 -2.5
v 4 1 2.5
v 4 1 -2.5
v 4 3 2.5
v 4 3 -2.5
v 4 4 2.5
v 4 4 -2.5
v 4 5 2.5
v 4 5 -2.5
v 4 6 2.5
v 4 6 1.5
v 4 6 0.5
v 4 6 -0.5
v 4 6 -1.5
v 4 6 -2.5
v 4 7 2.5
v 4 7 1.5
v 4 7 0.5
v 4 7 -0.5
v 4 7 -1.5
v 4 7 -2.5
v -3 0 2.5
v -3 1 2.5
v -2 0 2.5
v -2 1 2.5
v -1 0 2.5
v -1 1 2.5
v -1 3 2.5
v -1 4 2.5
v -1 5 2.5
v -1 6 2.5
v -1 7 2.5
v 0 6 2.5
v 0 7 2.5
v 1 6 2.5
v 1 7 2.5
v 2 6 2.5
v 2 7 2.5
v 3 6 2.5
v 3 7 2.5
v 4 0 2.5
v 4 1 2.5
v 4 3 2.5
v 4 4 2.5
v 4 5 2.5
v 4 6 2.5
v 4 7 2.5
v -5 0 1.5
v -5 1 1.5
v -4 0 1.5
v -4 1 1.5
v 0 5 1.5
v 0 6 1.5
v 1 6 1.5
v 2 6 1.5
v 3 5 1.5
v 3 6 1.5
v -3 0 0.5
v -3 1 0.5
v -2 0 0.5
v -2 1 0.5
v -4 0 -1.5
v -4 1 -1.5
v -3 0 -1.5
v -3 1 -1.5
v -3 0 1.5
v -3 1 1.5
v -2 0 1.5
v -2 1 1.5
v -5 0 0.5
v -5 1 0.5
v -4 0 0.5
v -4 1 0.5
v -3 0 -0.5
v -3 1 -0.5
v -2 0 -0.5
v -2 1 -0.5
v 0 5 -1.5
v 0 6 -1.5
v 1 6 -1.5
v 2 6 -1.5
v 3 5 -1.5
v 3 6 -1.5
v -4 0 -2.5
v -4 1 -2.5
v -3 0 -2.5
v -3 1 -2.5
v -1 0 -2.5
v -1 1 -2.5
v -1 3 -2.5
v -1 4 -2.5
v -1 5 -2.5
v -1 6 -2.5
v -1 7 -2.5
v 0 6 -2.5
v 0 7 -2.5
v 1 6 -2.5
v 1 7 -2.5
v 2 6 -2.5
v 2 7 -2.5
v 3 6 -2.5
v 3 7 -2.5
v 4 0 -2.5
v 4 1 -2.5
v 4 3 -2.5
v 4 4 -2.5
v 4 5 -2.5
v 4 6 -2.5
v 4 7 -2.5
v -3 0 2.5
v -2 0 2.5
v -1 0 2.5
v 4 0 2.5
v -5 0 1.5
v -4 0 1.5
v -3 0 1.5
v -2 0 1.5
v -5 0 0.5
v -4 0 0.5
v -3 0 0.5
v -2 0 0.5
v -3 0 -0.5
v -2 0 -0.5
v -4 0 -1.5
v -3 0 -1.5
v -4 0 -2.5
v -3 0 -2.5
v -1 0 -2.5
v 4 0 -2.5
v -1 6 2.5
v 0 6 2.5
v 1 6 2.5
v 2 6 2.5
v 3 6 2.5
v 4 6 2.5
v -1 6 1.5
v 0 6 1.5
v 1 6 1.5
v 2 6 1.5
v 3 6 1.5
v 4 6 1.5
v -1 6 0.5
v 0 6 0.5
v 3 6 0.5
v 4 6 0.5
v -1 6 -0.5
v 0 6 -0.5
v 3 6 -0.5
v 4 6 -0.5
v -1 6 -1.5
v 0 6 -1.5
v 1 6 -1.5
v 2 6 -1.5
v 3 6 -1.5
v 4 6 -1.5
v -1 6 -2.5
v 0 6 -2.5
v 1 6 -2.5
v 2 6 -2.5
v 3 6 -2.5
v 4 6 -2.5
v -3 1 2.5
v -2 1 2.5
v -5 1 1.5
v -4 1 1.5
v -3 1 1.5
v -2 1 1.5
v -5 1 0.5
v -4 1 0.5
v -3 1 0.5
v -2 1 0.5
v -3 1 -0.5
v -2 1 -0.5
v -4 1 -1.5
v -3 1 -1.5
v -4 1 -2.5
v -3 1 -2.5
v -1 5 2.5
v 4 5 2.5
v 0 5 1.5
v 3 5 1.5
v 0 5 -1.5
v 3 5 -1.5
v -1 5 -2.5
v 4 5 -2.5
v -1 7 2.5
v 0 7 2.5
v 1 7 2.5
v 2 7 2.5
v 3 7 2.5
v 4 7 2.5
v -1 7 1.5
v 0 7 1.5
v 1 7 1.5
v 2 7 1.5
v 3 7 1.5
v 4 7 1.5
v -1 7 0.5
v 0 7 0.5
v 3 7 0.5
v 4 7 0.5
v -1 7 -0.5
v 0 7 -0.5
v 3 7 -0.5
v 4 7 -0.5
v -1 7 -1.5
v 0 7 -1.5
v 1 7 -1.5
v 2 7 -1.5
v 3 7 -1.5
v 4 7 -1.5
v -1 7 -2.5
v 0 7 -2.5
v 1 7 -2.5
v 2 7 -2.5
v 3 7 -2.5
v 4 7 -2.5

# faces
f 3/3/1 2/3/1 1/3/1
f 4/3/1 2/3/1 3/3/1
f 7/3/1 6/3/1 5/3/1
f 8/3/1 6/3/1 7/3/1
f 13/3/1 10/3/1 9/3/1
f 14/3/1 10/3/1 13/3/1
f 15/3/1 12/3/1 11/3/1
f 16/3/1 12/3/1 15/3/1
f 19/2/1 18/2/1 17/2/1
f 20/2/1 18/2/1 19/2/1
f 21/7/1 20/7/1 19/7/1
f 22/7/1 20/7/1 21/7/1
f 23/2/1 22/2/1 21/2/1
f 24/2/1 22/2/1 23/2/1
f 25/1/1 24/1/1 23/1/1
f 26/1/1 24/1/1 25/1/1
f 33/6/1 28/6/1 27/6/1
f 34/4/1 29/4/1 28/4/1
f 34/6/1 28/6/1 33/6/1
f 35/6/1 30/6/1 29/6/1
f 35/4/1 29/4/1 34/4/1
f 36/4/1 31/4/1 30/4/1
f 36/6/1 30/6/1 35/6/1
f 37/6/1 32/6/1 31/6/1
f 37/4/1 31/4/1 36/4/1
f 38/6/1 32/6/1 37/6/1
f 41/1/1 40/1/1 39/1/1
f 42/1/1 40/1/1 41/1/1
f 43/1/1 40/1/1 42/1/1
f 44/1/1 40/1/1 43/1/1
f 45/3/2 46/3/2 47/3/2
f 47/3/2 46/3/2 48/3/2
f 49/3/2 50/3/2 51/3/2
f 51/3/2 50/3/2 52/3/2
f 53/3/2 54/3/2 57/3/2
f 57/3/2 54/3/2 58/3/2
f 55/3/2 56/3/2 59/3/2
f 59/3/2 56/3/2 60/3/2
f 61/1/2 62/1/2 63/1/2
f 63/1/2 62/1/2 64/1/2
f 64/1/2 62/1/2 65/1/2
f 65/1/2 62/1/2 66/1/2
f 67/2/2 68/2/2 69/2/2
f 69/2/2 68/2/2 70/2/2
f 69/7/2 70/7/2 71/7/2
f 71/7/2 70/7/2 72/7/2
f 71/2/2 72/2/2 73/2/2
f 73/2/2 72/2/2 74/2/2
f 73/1/2 74/1/2 75/1/2
f 75/1/2 74/1/2 76/1/2
f 77/6/2 78/6/2 83/6/2
f 78/4/2 79/4/2 84/4/2
f 83/6/2 78/6/2 84/6/2
f 79/6/2 80/6/2 85/6/2
f 84/4/2 79/4/2 85/4/2
f 80/4/2 81/4/2 86/4/2
f 85/6/2 80/6/2 86/6/2
f 81/6/2 82/6/2 87/6/2
f 86/4/2 81/4/2 87/4/2
f 87/6/2 82/6/2 88/6/2
f 91/3/3 90/3/3 89/3/3
f 92/3/3 90/3/3 91/3/3
f 100/6/3 99/6/3 98/6/3
f 101/6/3 99/6/3 100/6/3
f 102/4/3 101/4/3 100/4/3
f 103/4/3 101/4/3 102/4/3
f 104/6/3 103/6/3 102/6/3
f 105/6/3 103/6/3 104/6/3
f 106/4/3 105/4/3 104/4/3
f 107/4/3 105/4/3 106/4/3
f 108/2/3 94/2/3 93/2/3
f 109/7/3 95/7/3 94/7/3
f 109/2/3 94/2/3 108/2/3
f 110/2/3 96/2/3 95/2/3
f 110/7/3 95/7/3 109/7/3
f 111/1/3 97/1/3 96/1/3
f 111/2/3 96/2/3 110/2/3
f 112/1/3 97/1/3 111/1/3
f 113/6/3 107/6/3 106/6/3
f 114/6/3 107/6/3 113/6/3
f 117/3/3 116/3/3 115/3/3
f 118/3/3 116/3/3 117/3/3
f 121/1/3 120/1/3 119/1/3
f 122/1/3 121/1/3 119/1/3
f 123/1/3 122/1/3 119/1/3
f 124/1/3 122/1/3 123/1/3
f 127/3/3 126/3/3 125/3/3
f 128/3/3 126/3/3 127/3/3
f 131/3/3 130/3/3 129/3/3
f 132/3/3 130/3/3 131/3/3
f 133/3/4 134/3/4 135/3/4
f 135/3/4 134/3/4 136/3/4
f 137/3/4 138/3/4 139/3/4
f 139/3/4 138/3/4 140/3/4
f 141/3/4 142/3/4 143/3/4
f 143/3/4 142/3/4 144/3/4
f 145/1/4 146/1/4 147/1/4
f 145/1/4 147/1/4 148/1/4
f 145/1/4 148/1/4 149/1/4
f 149/1/4 148/1/4 150/1/4
f 151/3/4 152/3/4 153/3/4
f 153/3/4 152/3/4 154/3/4
f 160/6/4 161/6/4 162/6/4
f 162/6/4 161/6/4 163/6/4
f 162/4/4 163/4/4 164/4/4
f 164/4/4 163/4/4 165/4/4
f 164/6/4 165/6/4 166/6/4
f 166/6/4 165/6/4 167/6/4
f 166/4/4 167/4/4 168/4/4
f 168/4/4 167/4/4 169/4/4
f 155/2/4 156/2/4 170/2/4
f 156/7/4 157/7/4 171/7/4
f 170/2/4 156/2/4 171/2/4
f 157/2/4 158/2/4 172/2/4
f 171/7/4 157/7/4 172/7/4
f 158/1/4 159/1/4 173/1/4
f 172/2/4 158/2/4 173/2/4
f 173/1/4 159/1/4 174/1/4
f 168/6/4 169/6/4 175/6/4
f 175/6/4 169/6/4 176/6/4
f 183/3/5 178/3/5 177/3/5
f 184/3/5 178/3/5 183/3/5
f 185/3/5 182/3/5 181/3/5
f 186/3/5 182/3/5 185/3/5
f 189/3/5 188/3/5 187/3/5
f 190/3/5 188/3/5 189/3/5
f 193/3/5 192/3/5 191/3/5
f 194/3/5 192/3/5 193/3/5
f 195/2/5 180/2/5 179/2/5
f 196/2/5 180/2/5 195/2/5
f 203/6/5 198/6/5 197/6/5
f 204/4/5 199/4/5 198/4/5
f 204/6/5 198/6/5 203/6/5
f 205/6/5 200/6/5 199/6/5
f 205/4/5 199/4/5 204/4/5
f 206/4/5 201/4/5 200/4/5
f 206/6/5 200/6/5 205/6/5
f 207/6/5 202/6/5 201/6/5
f 207/4/5 201/4/5 206/4/5
f 208/6/5 202/6/5 207/6/5
f 209/4/5 204/4/5 203/4/5
f 210/4/5 204/4/5 209/4/5
f 211/4/5 208/4/5 207/4/5
f 212/4/5 208/4/5 211/4/5
f 213/6/5 210/6/5 209/6/5
f 214/6/5 210/6/5 213/6/5
f 215/6/5 212/6/5 211/6/5
f 216/6/5 212/6/5 215/6/5
f 217/4/5 214/4/5 213/4/5
f 218/4/5 214/4/5 217/4/5
f 221/4/5 216/4/5 215/4/5
f 222/4/5 216/4/5 221/4/5
f 223/6/5 218/6/5 217/6/5
f 224/4/5 219/4/5 218/4/5
f 224/6/5 218/6/5 223/6/5
f 225/6/5 220/6/5 219/6/5
f 225/4/5 219/4/5 224/4/5
f 226/4/5 221/4/5 220/4/5
f 226/6/5 220/6/5 225/6/5
f 227/6/5 222/6/5 221/6/5
f 227/4/5 221/4/5 226/4/5
f 228/6/5 222/6/5 227/6/5
f 229/3/6 230/3/6 233/3/6
f 233/3/6 230/3/6 234/3/6
f 231/3/6 232/3/6 235/3/6
f 235/3/6 232/3/6 236/3/6
f 237/3/6 238/3/6 239/3/6
f 239/3/6 238/3/6 240/3/6
f 241/3/6 242/3/6 243/3/6
f 243/3/6 242/3/6 244/3/6
f 245/1/6 246/1/6 247/1/6
f 247/1/6 246/1/6 248/1/6
f 245/1/6 247/1/6 249/1/6
f 248/1/6 246/1/6 250/1/6
f 245/1/6 249/1/6 251/1/6
f 249/1/6 250/1/6 251/1/6
f 250/1/6 246/1/6 252/1/6
f 251/1/6 250/1/6 252/1/6
f 253/6/6 254/6/6 259/6/6
f 254/4/6 255/4/6 260/4/6
f 259/6/6 254/6/6 260/6/6
f 255/6/6 256/6/6 261/6/6
f 260/4/6 255/4/6 261/4/6
f 256/4/6 257/4/6 262/4/6
f 261/6/6 256/6/6 262/6/6
f 257/6/6 258/6/6 263/6/6
f 262/4/6 257/4/6 263/4/6
f 263/6/6 258/6/6 264/6/6
f 259/4/6 260/4/6 265/4/6
f 261/5/6 262/5/6 266/5/6
f 265/4/6 260/4/6 266/4/6
f 260/5/6 261/5/6 266/5/6
f 262/5/6 263/5/6 266/5/6
f 263/4/6 264/4/6 267/4/6
f 266/5/6 263/5/6 267/5/6
f 267/4/6 264/4/6 268/4/6
f 265/6/6 266/6/6 269/6/6
f 266/5/6 267/5/6 270/5/6
f 269/6/6 266/6/6 270/6/6
f 267/6/6 268/6/6 271/6/6
f 270/5/6 267/5/6 271/5/6
f 271/6/6 268/6/6 272/6/6
f 269/4/6 270/4/6 273/4/6
f 270/5/6 271/5/6 274/5/6
f 273/4/6 270/4/6 274/4/6
f 274/5/6 271/5/6 275/5/6
f 275/5/6 271/5/6 276/5/6
f 271/4/6 272/4/6 277/4/6
f 276/5/6 271/5/6 277/5/6
f 277/4/6 272/4/6 278/4/6
f 273/6/6 274/6/6 279/6/6
f 274/4/6 275/4/6 280/4/6
f 279/6/6 274/6/6 280/6/6
f 275/6/6 276/6/6 281/6/6
f 280/4/6 275/4/6 281/4/6
f 276/4/6 277/4/6 282/4/6
f 281/6/6 276/6/6 282/6/6
f 277/6/6 278/6/6 283/6/6
f 282/4/6 277/4/6 283/4/6
f 283/6/6 278/6/6 284/6/6
