# MagicaVoxel @ Ephtracy

# group
g Lv1_mugcup

# material
mtllib Lv1_mugcup.mtl
usemtl palette

# normals
vn -1 0 0
vn 1 0 0
vn 0 0 1
vn 0 0 -1
vn 0 -1 0
vn 0 1 0

# texcoords
vt 0.412109 0.5
vt 0.416016 0.5
vt 0.697266 0.5
vt 0.705078 0.5
vt 0.708984 0.5

# verts
v -2.5 0 3.5
v -2.5 0 -1.5
v -2.5 1 3.5
v -2.5 1 -1.5
v -2.5 5 3.5
v -2.5 5 -1.5
v -0.5 1 -1.5
v -0.5 1 -2.5
v -0.5 1 -3.5
v -0.5 2 -1.5
v -0.5 2 -2.5
v -0.5 3 -1.5
v -0.5 3 -2.5
v -0.5 4 -1.5
v -0.5 4 -2.5
v -0.5 4 -3.5
v 1.5 3 2.5
v 1.5 3 -0.5
v 1.5 5 2.5
v 1.5 5 -0.5
v -1.5 3 2.5
v -1.5 3 1.5
v -1.5 3 -0.5
v -1.5 5 2.5
v -1.5 5 -0.5
v 0.5 1 -1.5
v 0.5 1 -2.5
v 0.5 1 -3.5
v 0.5 2 -1.5
v 0.5 2 -2.5
v 0.5 3 -1.5
v 0.5 3 -2.5
v 0.5 4 -1.5
v 0.5 4 -2.5
v 0.5 4 -3.5
v 2.5 0 3.5
v 2.5 0 -1.5
v 2.5 1 3.5
v 2.5 1 -1.5
v 2.5 5 3.5
v 2.5 5 -1.5
v -2.5 0 3.5
v -2.5 1 3.5
v -2.5 5 3.5
v 2.5 0 3.5
v 2.5 1 3.5
v 2.5 5 3.5
v -1.5 3 -0.5
v -1.5 5 -0.5
v 0.5 3 -0.5
v 1.5 3 -0.5
v 1.5 5 -0.5
v -0.5 2 -2.5
v -0.5 3 -2.5
v 0.5 2 -2.5
v 0.5 3 -2.5
v -1.5 3 2.5
v -1.5 5 2.5
v 1.5 3 2.5
v 1.5 5 2.5
v -2.5 0 -1.5
v -2.5 1 -1.5
v -2.5 5 -1.5
v -0.5 1 -1.5
v -0.5 2 -1.5
v -0.5 3 -1.5
v -0.5 4 -1.5
v 0.5 1 -1.5
v 0.5 2 -1.5
v 0.5 3 -1.5
v 0.5 4 -1.5
v 2.5 0 -1.5
v 2.5 1 -1.5
v 2.5 5 -1.5
v -0.5 1 -3.5
v -0.5 4 -3.5
v 0.5 1 -3.5
v 0.5 4 -3.5
v -2.5 0 3.5
v 2.5 0 3.5
v -2.5 0 -1.5
v 2.5 0 -1.5
v -0.5 1 -1.5
v 0.5 1 -1.5
v -0.5 1 -2.5
v 0.5 1 -2.5
v -0.5 1 -3.5
v 0.5 1 -3.5
v -0.5 3 -1.5
v 0.5 3 -1.5
v -0.5 3 -2.5
v 0.5 3 -2.5
v -0.5 2 -1.5
v 0.5 2 -1.5
v -0.5 2 -2.5
v 0.5 2 -2.5
v -1.5 3 2.5
v 1.5 3 2.5
v -1.5 3 1.5
v -0.5 3 1.5
v 0.5 3 1.5
v -0.5 3 0.5
v 0.5 3 0.5
v -1.5 3 -0.5
v 0.5 3 -0.5
v 1.5 3 -0.5
v -0.5 4 -1.5
v 0.5 4 -1.5
v -0.5 4 -2.5
v 0.5 4 -2.5
v -0.5 4 -3.5
v 0.5 4 -3.5
v -2.5 5 3.5
v 2.5 5 3.5
v -1.5 5 2.5
v 1.5 5 2.5
v -1.5 5 -0.5
v 1.5 5 -0.5
v -2.5 5 -1.5
v 2.5 5 -1.5

# faces
f 3/2/1 2/2/1 1/2/1
f 4/2/1 2/2/1 3/2/1
f 5/1/1 4/1/1 3/1/1
f 6/1/1 4/1/1 5/1/1
f 10/2/1 8/2/1 7/2/1
f 11/1/1 9/1/1 8/1/1
f 11/2/1 8/2/1 10/2/1
f 13/1/1 9/1/1 11/1/1
f 14/2/1 13/2/1 12/2/1
f 15/1/1 9/1/1 13/1/1
f 15/2/1 13/2/1 14/2/1
f 16/1/1 9/1/1 15/1/1
f 19/1/1 18/1/1 17/1/1
f 20/1/1 18/1/1 19/1/1
f 21/1/2 22/1/2 24/1/2
f 22/1/2 23/1/2 24/1/2
f 24/1/2 23/1/2 25/1/2
f 26/2/2 27/2/2 29/2/2
f 27/1/2 28/1/2 30/1/2
f 29/2/2 27/2/2 30/2/2
f 30/1/2 28/1/2 32/1/2
f 31/2/2 32/2/2 33/2/2
f 32/1/2 28/1/2 34/1/2
f 33/2/2 32/2/2 34/2/2
f 34/1/2 28/1/2 35/1/2
f 36/2/2 37/2/2 38/2/2
f 38/2/2 37/2/2 39/2/2
f 38/1/2 39/1/2 40/1/2
f 40/1/2 39/1/2 41/1/2
f 45/2/3 43/2/3 42/2/3
f 46/1/3 44/1/3 43/1/3
f 46/2/3 43/2/3 45/2/3
f 47/1/3 44/1/3 46/1/3
f 50/1/3 49/1/3 48/1/3
f 51/1/3 49/1/3 50/1/3
f 52/1/3 49/1/3 51/1/3
f 55/1/3 54/1/3 53/1/3
f 56/1/3 54/1/3 55/1/3
f 57/1/4 58/1/4 59/1/4
f 59/1/4 58/1/4 60/1/4
f 61/2/4 62/2/4 64/2/4
f 62/1/4 63/1/4 64/1/4
f 64/1/4 63/1/4 65/1/4
f 65/1/4 63/1/4 66/1/4
f 66/1/4 63/1/4 67/1/4
f 61/2/4 64/2/4 68/2/4
f 65/1/4 66/1/4 69/1/4
f 69/1/4 66/1/4 70/1/4
f 67/1/4 63/1/4 71/1/4
f 61/2/4 68/2/4 72/2/4
f 69/1/4 70/1/4 73/1/4
f 72/2/4 68/2/4 73/2/4
f 70/1/4 71/1/4 73/1/4
f 68/1/4 69/1/4 73/1/4
f 71/1/4 63/1/4 74/1/4
f 73/1/4 71/1/4 74/1/4
f 75/1/4 76/1/4 77/1/4
f 77/1/4 76/1/4 78/1/4
f 81/2/5 80/2/5 79/2/5
f 82/2/5 80/2/5 81/2/5
f 85/2/5 84/2/5 83/2/5
f 86/2/5 84/2/5 85/2/5
f 87/1/5 86/1/5 85/1/5
f 88/1/5 86/1/5 87/1/5
f 91/2/5 90/2/5 89/2/5
f 92/2/5 90/2/5 91/2/5
f 93/2/6 94/2/6 95/2/6
f 95/2/6 94/2/6 96/2/6
f 97/5/6 98/5/6 99/5/6
f 99/5/6 98/5/6 100/5/6
f 100/5/6 98/5/6 101/5/6
f 99/4/6 100/4/6 102/4/6
f 100/3/6 101/3/6 102/3/6
f 101/5/6 98/5/6 103/5/6
f 102/3/6 101/3/6 103/3/6
f 99/4/6 102/4/6 104/4/6
f 102/4/6 103/4/6 104/4/6
f 103/5/6 98/5/6 105/5/6
f 104/4/6 103/4/6 105/4/6
f 105/5/6 98/5/6 106/5/6
f 107/2/6 108/2/6 109/2/6
f 109/2/6 108/2/6 110/2/6
f 109/1/6 110/1/6 111/1/6
f 111/1/6 110/1/6 112/1/6
f 113/1/6 114/1/6 115/1/6
f 115/1/6 114/1/6 116/1/6
f 113/1/6 115/1/6 117/1/6
f 116/1/6 114/1/6 118/1/6
f 113/1/6 117/1/6 119/1/6
f 117/1/6 118/1/6 119/1/6
f 118/1/6 114/1/6 120/1/6
f 119/1/6 118/1/6 120/1/6
