# MagicaVoxel @ Ephtracy

# group
g Lv1_ebook

# material
mtllib Lv1_ebook.mtl
usemtl palette

# normals
vn -1 0 0
vn 1 0 0
vn 0 0 1
vn 0 0 -1
vn 0 -1 0
vn 0 1 0

# texcoords
vt 0.412109 0.5
vt 0.416016 0.5
vt 0.626953 0.5
vt 0.630859 0.5
vt 0.638672 0.5
vt 0.642578 0.5
vt 0.646484 0.5
vt 0.708984 0.5
vt 0.755859 0.5
vt 0.759766 0.5

# verts
v -3.5 0 3.5
v -3.5 0 -3.5
v -3.5 1 2.5
v -3.5 1 -2.5
v -3.5 2 2.5
v -3.5 2 -2.5
v -3.5 3 3.5
v -3.5 3 -3.5
v 3.5 0 3.5
v 3.5 0 -3.5
v 3.5 1 3.5
v 3.5 1 -3.5
v 3.5 2 3.5
v 3.5 2 -3.5
v 3.5 3 3.5
v 3.5 3 -3.5
v -3.5 0 3.5
v -3.5 3 3.5
v -2.5 0 3.5
v -2.5 1 3.5
v -2.5 2 3.5
v -2.5 3 3.5
v -1.5 1 3.5
v -1.5 2 3.5
v 3.5 0 3.5
v 3.5 1 3.5
v 3.5 2 3.5
v 3.5 3 3.5
v -3.5 0 -3.5
v -3.5 3 -3.5
v -2.5 0 -3.5
v -2.5 1 -3.5
v -2.5 2 -3.5
v -2.5 3 -3.5
v -1.5 1 -3.5
v -1.5 2 -3.5
v 3.5 0 -3.5
v 3.5 1 -3.5
v 3.5 2 -3.5
v 3.5 3 -3.5
v -3.5 0 3.5
v -2.5 0 3.5
v 3.5 0 3.5
v -3.5 0 -3.5
v -2.5 0 -3.5
v 3.5 0 -3.5
v -3.5 3 3.5
v -2.5 3 3.5
v 3.5 3 3.5
v -1.5 3 2.5
v -0.5 3 2.5
v 0.5 3 2.5
v 1.5 3 2.5
v -1.5 3 1.5
v -0.5 3 1.5
v 1.5 3 1.5
v 2.5 3 1.5
v -1.5 3 0.5
v -0.5 3 0.5
v 0.5 3 0.5
v 1.5 3 0.5
v 2.5 3 0.5
v -1.5 3 -0.5
v -0.5 3 -0.5
v 0.5 3 -0.5
v 1.5 3 -0.5
v -0.5 3 -1.5
v 0.5 3 -1.5
v 1.5 3 -1.5
v 2.5 3 -1.5
v -1.5 3 -2.5
v 0.5 3 -2.5
v 1.5 3 -2.5
v -3.5 3 -3.5
v -2.5 3 -3.5
v 3.5 3 -3.5

# faces
f 3/6/1 2/6/1 1/6/1
f 4/6/1 2/6/1 3/6/1
f 5/6/1 3/6/1 1/6/1
f 5/7/1 4/7/1 3/7/1
f 6/6/1 2/6/1 4/6/1
f 6/7/1 4/7/1 5/7/1
f 7/6/1 5/6/1 1/6/1
f 7/6/1 6/6/1 5/6/1
f 8/6/1 2/6/1 6/6/1
f 8/6/1 6/6/1 7/6/1
f 9/5/2 10/5/2 11/5/2
f 11/5/2 10/5/2 12/5/2
f 11/1/2 12/1/2 13/1/2
f 13/1/2 12/1/2 14/1/2
f 13/5/2 14/5/2 15/5/2
f 15/5/2 14/5/2 16/5/2
f 19/6/3 18/6/3 17/6/3
f 20/6/3 18/6/3 19/6/3
f 21/6/3 18/6/3 20/6/3
f 22/6/3 18/6/3 21/6/3
f 23/5/3 20/5/3 19/5/3
f 23/2/3 21/2/3 20/2/3
f 24/5/3 22/5/3 21/5/3
f 24/2/3 21/2/3 23/2/3
f 25/5/3 23/5/3 19/5/3
f 26/1/3 24/1/3 23/1/3
f 26/5/3 23/5/3 25/5/3
f 27/5/3 22/5/3 24/5/3
f 27/1/3 24/1/3 26/1/3
f 28/5/3 22/5/3 27/5/3
f 29/6/4 30/6/4 31/6/4
f 31/6/4 30/6/4 32/6/4
f 32/6/4 30/6/4 33/6/4
f 33/6/4 30/6/4 34/6/4
f 31/5/4 32/5/4 35/5/4
f 32/2/4 33/2/4 35/2/4
f 33/5/4 34/5/4 36/5/4
f 35/2/4 33/2/4 36/2/4
f 31/5/4 35/5/4 37/5/4
f 35/1/4 36/1/4 38/1/4
f 37/5/4 35/5/4 38/5/4
f 36/5/4 34/5/4 39/5/4
f 38/1/4 36/1/4 39/1/4
f 39/5/4 34/5/4 40/5/4
f 44/6/5 42/6/5 41/6/5
f 45/5/5 43/5/5 42/5/5
f 45/6/5 42/6/5 44/6/5
f 46/5/5 43/5/5 45/5/5
f 48/5/6 49/5/6 50/5/6
f 50/5/6 49/5/6 51/5/6
f 51/5/6 49/5/6 52/5/6
f 52/5/6 49/5/6 53/5/6
f 48/5/6 50/5/6 54/5/6
f 50/8/6 51/8/6 54/8/6
f 51/6/6 52/6/6 55/6/6
f 54/8/6 51/8/6 55/8/6
f 53/5/6 49/5/6 56/5/6
f 52/7/6 53/7/6 56/7/6
f 56/5/6 49/5/6 57/5/6
f 54/6/6 55/6/6 58/6/6
f 48/5/6 54/5/6 58/5/6
f 55/6/6 52/6/6 59/6/6
f 58/6/6 55/6/6 59/6/6
f 56/7/6 57/7/6 60/7/6
f 59/6/6 52/6/6 60/6/6
f 52/7/6 56/7/6 60/7/6
f 60/7/6 57/7/6 61/7/6
f 57/5/6 49/5/6 62/5/6
f 61/7/6 57/7/6 62/7/6
f 48/5/6 58/5/6 63/5/6
f 58/3/6 59/3/6 63/3/6
f 60/4/6 61/4/6 64/4/6
f 63/3/6 59/3/6 64/3/6
f 59/4/6 60/4/6 64/4/6
f 64/4/6 61/4/6 65/4/6
f 61/10/6 62/10/6 66/10/6
f 65/4/6 61/4/6 66/4/6
f 64/3/6 65/3/6 67/3/6
f 63/9/6 64/9/6 67/9/6
f 65/9/6 66/9/6 68/9/6
f 67/3/6 65/3/6 68/3/6
f 66/10/6 62/10/6 69/10/6
f 68/9/6 66/9/6 69/9/6
f 62/5/6 49/5/6 70/5/6
f 69/10/6 62/10/6 70/10/6
f 48/5/6 63/5/6 71/5/6
f 67/9/6 68/9/6 71/9/6
f 63/9/6 67/9/6 71/9/6
f 68/10/6 69/10/6 72/10/6
f 71/9/6 68/9/6 72/9/6
f 69/5/6 70/5/6 73/5/6
f 72/10/6 69/10/6 73/10/6
f 47/6/6 48/6/6 74/6/6
f 48/5/6 71/5/6 75/5/6
f 74/6/6 48/6/6 75/6/6
f 71/5/6 72/5/6 75/5/6
f 72/5/6 73/5/6 75/5/6
f 73/5/6 70/5/6 76/5/6
f 75/5/6 73/5/6 76/5/6
f 70/5/6 49/5/6 76/5/6
