# MagicaVoxel @ Ephtracy

# group
g Lv1_whisky

# material
mtllib Lv1_whisky.mtl
usemtl palette

# normals
vn -1 0 0
vn 1 0 0
vn 0 0 1
vn 0 0 -1
vn 0 -1 0
vn 0 1 0

# texcoords
vt 0.408203 0.5
vt 0.412109 0.5
vt 0.708984 0.5
vt 0.826172 0.5
vt 0.830078 0.5
vt 0.884766 0.5

# verts
v -1.5 0 1.5
v -1.5 0 -1.5
v -1.5 1 1.5
v -1.5 1 -1.5
v -1.5 3 1.5
v -1.5 3 0.5
v -1.5 5 1.5
v -1.5 5 0.5
v -1.5 7 1.5
v -1.5 7 -1.5
v -0.5 7 0.5
v -0.5 7 -0.5
v -0.5 9 0.5
v -0.5 9 -0.5
v -0.5 10 0.5
v -0.5 10 -0.5
v 0.5 7 0.5
v 0.5 7 -0.5
v 0.5 9 0.5
v 0.5 9 -0.5
v 0.5 10 0.5
v 0.5 10 -0.5
v 1.5 0 1.5
v 1.5 0 -1.5
v 1.5 1 1.5
v 1.5 1 -1.5
v 1.5 3 1.5
v 1.5 3 0.5
v 1.5 5 1.5
v 1.5 5 0.5
v 1.5 7 1.5
v 1.5 7 -1.5
v -1.5 0 1.5
v -1.5 1 1.5
v -1.5 3 1.5
v -1.5 5 1.5
v -1.5 7 1.5
v -0.5 1 1.5
v -0.5 3 1.5
v -0.5 5 1.5
v -0.5 7 1.5
v 0.5 1 1.5
v 0.5 3 1.5
v 0.5 5 1.5
v 0.5 7 1.5
v 1.5 0 1.5
v 1.5 1 1.5
v 1.5 3 1.5
v 1.5 5 1.5
v 1.5 7 1.5
v -0.5 7 0.5
v -0.5 9 0.5
v -0.5 10 0.5
v 0.5 7 0.5
v 0.5 9 0.5
v 0.5 10 0.5
v -0.5 7 -0.5
v -0.5 9 -0.5
v -0.5 10 -0.5
v 0.5 7 -0.5
v 0.5 9 -0.5
v 0.5 10 -0.5
v -1.5 0 -1.5
v -1.5 1 -1.5
v -1.5 7 -1.5
v 1.5 0 -1.5
v 1.5 1 -1.5
v 1.5 7 -1.5
v -1.5 0 1.5
v 1.5 0 1.5
v -0.5 0 0.5
v 0.5 0 0.5
v -0.5 0 -0.5
v 0.5 0 -0.5
v -1.5 0 -1.5
v 1.5 0 -1.5
v -1.5 7 1.5
v -0.5 7 1.5
v 0.5 7 1.5
v 1.5 7 1.5
v -0.5 7 0.5
v 0.5 7 0.5
v -0.5 7 -0.5
v 0.5 7 -0.5
v -1.5 7 -1.5
v 1.5 7 -1.5
v -0.5 10 0.5
v 0.5 10 0.5
v -0.5 10 -0.5
v 0.5 10 -0.5

# faces
f 3/3/1 2/3/1 1/3/1
f 4/3/1 2/3/1 3/3/1
f 5/5/1 4/5/1 3/5/1
f 6/5/1 4/5/1 5/5/1
f 7/2/1 6/2/1 5/2/1
f 8/5/1 4/5/1 6/5/1
f 8/2/1 6/2/1 7/2/1
f 9/5/1 8/5/1 7/5/1
f 10/5/1 4/5/1 8/5/1
f 10/5/1 8/5/1 9/5/1
f 13/5/1 12/5/1 11/5/1
f 14/5/1 12/5/1 13/5/1
f 15/6/1 14/6/1 13/6/1
f 16/6/1 14/6/1 15/6/1
f 17/5/2 18/5/2 19/5/2
f 19/5/2 18/5/2 20/5/2
f 19/6/2 20/6/2 21/6/2
f 21/6/2 20/6/2 22/6/2
f 23/3/2 24/3/2 25/3/2
f 25/3/2 24/3/2 26/3/2
f 25/5/2 26/5/2 27/5/2
f 27/5/2 26/5/2 28/5/2
f 27/2/2 28/2/2 29/2/2
f 28/5/2 26/5/2 30/5/2
f 29/2/2 28/2/2 30/2/2
f 29/5/2 30/5/2 31/5/2
f 30/5/2 26/5/2 32/5/2
f 31/5/2 30/5/2 32/5/2
f 38/3/3 34/3/3 33/3/3
f 38/5/3 35/5/3 34/5/3
f 39/2/3 36/2/3 35/2/3
f 39/5/3 35/5/3 38/5/3
f 40/5/3 37/5/3 36/5/3
f 40/2/3 36/2/3 39/2/3
f 41/5/3 37/5/3 40/5/3
f 42/4/3 39/4/3 38/4/3
f 42/3/3 38/3/3 33/3/3
f 43/1/3 40/1/3 39/1/3
f 43/4/3 39/4/3 42/4/3
f 44/4/3 41/4/3 40/4/3
f 44/1/3 40/1/3 43/1/3
f 45/4/3 41/4/3 44/4/3
f 46/3/3 42/3/3 33/3/3
f 47/5/3 43/5/3 42/5/3
f 47/3/3 42/3/3 46/3/3
f 48/2/3 44/2/3 43/2/3
f 48/5/3 43/5/3 47/5/3
f 49/5/3 45/5/3 44/5/3
f 49/2/3 44/2/3 48/2/3
f 50/5/3 45/5/3 49/5/3
f 54/5/3 52/5/3 51/5/3
f 55/6/3 53/6/3 52/6/3
f 55/5/3 52/5/3 54/5/3
f 56/6/3 53/6/3 55/6/3
f 57/5/4 58/5/4 60/5/4
f 58/6/4 59/6/4 61/6/4
f 60/5/4 58/5/4 61/5/4
f 61/6/4 59/6/4 62/6/4
f 63/3/4 64/3/4 66/3/4
f 64/5/4 65/5/4 67/5/4
f 66/3/4 64/3/4 67/3/4
f 67/5/4 65/5/4 68/5/4
f 71/3/5 70/3/5 69/3/5
f 72/3/5 70/3/5 71/3/5
f 73/3/5 71/3/5 69/3/5
f 73/5/5 72/5/5 71/5/5
f 74/3/5 70/3/5 72/3/5
f 74/5/5 72/5/5 73/5/5
f 75/3/5 73/3/5 69/3/5
f 75/3/5 74/3/5 73/3/5
f 76/3/5 70/3/5 74/3/5
f 76/3/5 74/3/5 75/3/5
f 77/5/6 78/5/6 81/5/6
f 78/4/6 79/4/6 81/4/6
f 79/5/6 80/5/6 82/5/6
f 81/4/6 79/4/6 82/4/6
f 77/5/6 81/5/6 83/5/6
f 82/5/6 80/5/6 84/5/6
f 77/5/6 83/5/6 85/5/6
f 83/5/6 84/5/6 85/5/6
f 84/5/6 80/5/6 86/5/6
f 85/5/6 84/5/6 86/5/6
f 87/6/6 88/6/6 89/6/6
f 89/6/6 88/6/6 90/6/6
