# MagicaVoxel @ Ephtracy

# group
g Lv2_mat

# material
mtllib Lv2_mat.mtl
usemtl palette

# normals
vn -1 0 0
vn 1 0 0
vn 0 0 1
vn 0 0 -1
vn 0 -1 0
vn 0 1 0

# texcoords
vt 0.826172 0.5
vt 0.830078 0.5
vt 0.892578 0.5

# verts
v -10 0 7
v -10 0 5
v -10 0 4
v -10 0 2
v -10 0 1
v -10 0 -1
v -10 0 -2
v -10 0 -4
v -10 0 -5
v -10 0 -7
v -10 1 7
v -10 1 5
v -10 1 4
v -10 1 2
v -10 1 1
v -10 1 -1
v -10 1 -2
v -10 1 -4
v -10 1 -5
v -10 1 -7
v 10 0 7
v 10 0 5
v 10 0 4
v 10 0 2
v 10 0 1
v 10 0 -1
v 10 0 -2
v 10 0 -4
v 10 0 -5
v 10 0 -7
v 10 1 7
v 10 1 5
v 10 1 4
v 10 1 2
v 10 1 1
v 10 1 -1
v 10 1 -2
v 10 1 -4
v 10 1 -5
v 10 1 -7
v -10 0 7
v -10 1 7
v -8 0 7
v -8 1 7
v -7 0 7
v -7 1 7
v -5 0 7
v -5 1 7
v -4 0 7
v -4 1 7
v -2 0 7
v -2 1 7
v -1 0 7
v -1 1 7
v 1 0 7
v 1 1 7
v 2 0 7
v 2 1 7
v 4 0 7
v 4 1 7
v 5 0 7
v 5 1 7
v 7 0 7
v 7 1 7
v 8 0 7
v 8 1 7
v 10 0 7
v 10 1 7
v -10 0 -7
v -10 1 -7
v -8 0 -7
v -8 1 -7
v -7 0 -7
v -7 1 -7
v -5 0 -7
v -5 1 -7
v -4 0 -7
v -4 1 -7
v -2 0 -7
v -2 1 -7
v -1 0 -7
v -1 1 -7
v 1 0 -7
v 1 1 -7
v 2 0 -7
v 2 1 -7
v 4 0 -7
v 4 1 -7
v 5 0 -7
v 5 1 -7
v 7 0 -7
v 7 1 -7
v 8 0 -7
v 8 1 -7
v 10 0 -7
v 10 1 -7
v -10 0 7
v -8 0 7
v -7 0 7
v -5 0 7
v -4 0 7
v -2 0 7
v -1 0 7
v 1 0 7
v 2 0 7
v 4 0 7
v 5 0 7
v 7 0 7
v 8 0 7
v 10 0 7
v -9 0 6
v -8 0 6
v -7 0 6
v -5 0 6
v -4 0 6
v -2 0 6
v -1 0 6
v 1 0 6
v 2 0 6
v 4 0 6
v 5 0 6
v 7 0 6
v 8 0 6
v 9 0 6
v -10 0 5
v -9 0 5
v -8 0 5
v 8 0 5
v 9 0 5
v 10 0 5
v -10 0 4
v -9 0 4
v 9 0 4
v 10 0 4
v -10 0 2
v -9 0 2
v 9 0 2
v 10 0 2
v -10 0 1
v -9 0 1
v 9 0 1
v 10 0 1
v -10 0 -1
v -9 0 -1
v 9 0 -1
v 10 0 -1
v -10 0 -2
v -9 0 -2
v 9 0 -2
v 10 0 -2
v -10 0 -4
v -9 0 -4
v 9 0 -4
v 10 0 -4
v -10 0 -5
v -9 0 -5
v -8 0 -5
v 8 0 -5
v 9 0 -5
v 10 0 -5
v -9 0 -6
v -8 0 -6
v -7 0 -6
v -5 0 -6
v -4 0 -6
v -2 0 -6
v -1 0 -6
v 1 0 -6
v 2 0 -6
v 4 0 -6
v 5 0 -6
v 7 0 -6
v 8 0 -6
v 9 0 -6
v -10 0 -7
v -8 0 -7
v -7 0 -7
v -5 0 -7
v -4 0 -7
v -2 0 -7
v -1 0 -7
v 1 0 -7
v 2 0 -7
v 4 0 -7
v 5 0 -7
v 7 0 -7
v 8 0 -7
v 10 0 -7
v -10 1 7
v -8 1 7
v -7 1 7
v -5 1 7
v -4 1 7
v -2 1 7
v -1 1 7
v 1 1 7
v 2 1 7
v 4 1 7
v 5 1 7
v 7 1 7
v 8 1 7
v 10 1 7
v -9 1 6
v -8 1 6
v -7 1 6
v -5 1 6
v -4 1 6
v -2 1 6
v -1 1 6
v 1 1 6
v 2 1 6
v 4 1 6
v 5 1 6
v 7 1 6
v 8 1 6
v 9 1 6
v -10 1 5
v -9 1 5
v -8 1 5
v 8 1 5
v 9 1 5
v 10 1 5
v -10 1 4
v -9 1 4
v 9 1 4
v 10 1 4
v -10 1 2
v -9 1 2
v 9 1 2
v 10 1 2
v -10 1 1
v -9 1 1
v 9 1 1
v 10 1 1
v -10 1 -1
v -9 1 -1
v 9 1 -1
v 10 1 -1
v -10 1 -2
v -9 1 -2
v 9 1 -2
v 10 1 -2
v -10 1 -4
v -9 1 -4
v 9 1 -4
v 10 1 -4
v -10 1 -5
v -9 1 -5
v -8 1 -5
v 8 1 -5
v 9 1 -5
v 10 1 -5
v -9 1 -6
v -8 1 -6
v -7 1 -6
v -5 1 -6
v -4 1 -6
v -2 1 -6
v -1 1 -6
v 1 1 -6
v 2 1 -6
v 4 1 -6
v 5 1 -6
v 7 1 -6
v 8 1 -6
v 9 1 -6
v -10 1 -7
v -8 1 -7
v -7 1 -7
v -5 1 -7
v -4 1 -7
v -2 1 -7
v -1 1 -7
v 1 1 -7
v 2 1 -7
v 4 1 -7
v 5 1 -7
v 7 1 -7
v 8 1 -7
v 10 1 -7

# faces
f 11/2/1 2/2/1 1/2/1
f 12/1/1 3/1/1 2/1/1
f 12/2/1 2/2/1 11/2/1
f 13/2/1 4/2/1 3/2/1
f 13/1/1 3/1/1 12/1/1
f 14/1/1 5/1/1 4/1/1
f 14/2/1 4/2/1 13/2/1
f 15/2/1 6/2/1 5/2/1
f 15/1/1 5/1/1 14/1/1
f 16/1/1 7/1/1 6/1/1
f 16/2/1 6/2/1 15/2/1
f 17/2/1 8/2/1 7/2/1
f 17/1/1 7/1/1 16/1/1
f 18/1/1 9/1/1 8/1/1
f 18/2/1 8/2/1 17/2/1
f 19/2/1 10/2/1 9/2/1
f 19/1/1 9/1/1 18/1/1
f 20/2/1 10/2/1 19/2/1
f 21/2/2 22/2/2 31/2/2
f 22/1/2 23/1/2 32/1/2
f 31/2/2 22/2/2 32/2/2
f 23/2/2 24/2/2 33/2/2
f 32/1/2 23/1/2 33/1/2
f 24/1/2 25/1/2 34/1/2
f 33/2/2 24/2/2 34/2/2
f 25/2/2 26/2/2 35/2/2
f 34/1/2 25/1/2 35/1/2
f 26/1/2 27/1/2 36/1/2
f 35/2/2 26/2/2 36/2/2
f 27/2/2 28/2/2 37/2/2
f 36/1/2 27/1/2 37/1/2
f 28/1/2 29/1/2 38/1/2
f 37/2/2 28/2/2 38/2/2
f 29/2/2 30/2/2 39/2/2
f 38/1/2 29/1/2 39/1/2
f 39/2/2 30/2/2 40/2/2
f 43/2/3 42/2/3 41/2/3
f 44/2/3 42/2/3 43/2/3
f 45/1/3 44/1/3 43/1/3
f 46/1/3 44/1/3 45/1/3
f 47/2/3 46/2/3 45/2/3
f 48/2/3 46/2/3 47/2/3
f 49/1/3 48/1/3 47/1/3
f 50/1/3 48/1/3 49/1/3
f 51/2/3 50/2/3 49/2/3
f 52/2/3 50/2/3 51/2/3
f 53/1/3 52/1/3 51/1/3
f 54/1/3 52/1/3 53/1/3
f 55/2/3 54/2/3 53/2/3
f 56/2/3 54/2/3 55/2/3
f 57/1/3 56/1/3 55/1/3
f 58/1/3 56/1/3 57/1/3
f 59/2/3 58/2/3 57/2/3
f 60/2/3 58/2/3 59/2/3
f 61/1/3 60/1/3 59/1/3
f 62/1/3 60/1/3 61/1/3
f 63/2/3 62/2/3 61/2/3
f 64/2/3 62/2/3 63/2/3
f 65/1/3 64/1/3 63/1/3
f 66/1/3 64/1/3 65/1/3
f 67/2/3 66/2/3 65/2/3
f 68/2/3 66/2/3 67/2/3
f 69/2/4 70/2/4 71/2/4
f 71/2/4 70/2/4 72/2/4
f 71/1/4 72/1/4 73/1/4
f 73/1/4 72/1/4 74/1/4
f 73/2/4 74/2/4 75/2/4
f 75/2/4 74/2/4 76/2/4
f 75/1/4 76/1/4 77/1/4
f 77/1/4 76/1/4 78/1/4
f 77/2/4 78/2/4 79/2/4
f 79/2/4 78/2/4 80/2/4
f 79/1/4 80/1/4 81/1/4
f 81/1/4 80/1/4 82/1/4
f 81/2/4 82/2/4 83/2/4
f 83/2/4 82/2/4 84/2/4
f 83/1/4 84/1/4 85/1/4
f 85/1/4 84/1/4 86/1/4
f 85/2/4 86/2/4 87/2/4
f 87/2/4 86/2/4 88/2/4
f 87/1/4 88/1/4 89/1/4
f 89/1/4 88/1/4 90/1/4
f 89/2/4 90/2/4 91/2/4
f 91/2/4 90/2/4 92/2/4
f 91/1/4 92/1/4 93/1/4
f 93/1/4 92/1/4 94/1/4
f 93/2/4 94/2/4 95/2/4
f 95/2/4 94/2/4 96/2/4
f 111/2/5 98/2/5 97/2/5
f 112/1/5 99/1/5 98/1/5
f 112/2/5 98/2/5 111/2/5
f 113/2/5 100/2/5 99/2/5
f 113/1/5 99/1/5 112/1/5
f 114/1/5 101/1/5 100/1/5
f 114/2/5 100/2/5 113/2/5
f 115/2/5 102/2/5 101/2/5
f 115/1/5 101/1/5 114/1/5
f 116/1/5 103/1/5 102/1/5
f 116/2/5 102/2/5 115/2/5
f 117/2/5 104/2/5 103/2/5
f 117/1/5 103/1/5 116/1/5
f 118/1/5 105/1/5 104/1/5
f 118/2/5 104/2/5 117/2/5
f 119/2/5 106/2/5 105/2/5
f 119/1/5 105/1/5 118/1/5
f 120/1/5 107/1/5 106/1/5
f 120/2/5 106/2/5 119/2/5
f 121/2/5 108/2/5 107/2/5
f 121/1/5 107/1/5 120/1/5
f 122/1/5 109/1/5 108/1/5
f 122/2/5 108/2/5 121/2/5
f 123/2/5 110/2/5 109/2/5
f 123/1/5 109/1/5 122/1/5
f 124/2/5 110/2/5 123/2/5
f 125/2/5 111/2/5 97/2/5
f 126/3/5 122/3/5 121/3/5
f 126/2/5 111/2/5 125/2/5
f 126/3/5 112/3/5 111/3/5
f 126/3/5 124/3/5 123/3/5
f 126/3/5 123/3/5 122/3/5
f 126/3/5 121/3/5 120/3/5
f 126/3/5 120/3/5 119/3/5
f 126/3/5 119/3/5 118/3/5
f 126/3/5 118/3/5 117/3/5
f 126/3/5 117/3/5 116/3/5
f 126/3/5 116/3/5 115/3/5
f 126/3/5 115/3/5 114/3/5
f 126/3/5 114/3/5 113/3/5
f 126/3/5 113/3/5 112/3/5
f 127/3/5 124/3/5 126/3/5
f 128/3/5 124/3/5 127/3/5
f 129/2/5 110/2/5 124/2/5
f 129/3/5 124/3/5 128/3/5
f 130/2/5 110/2/5 129/2/5
f 131/1/5 126/1/5 125/1/5
f 132/3/5 127/3/5 126/3/5
f 132/1/5 126/1/5 131/1/5
f 133/3/5 129/3/5 128/3/5
f 133/1/5 130/1/5 129/1/5
f 134/1/5 130/1/5 133/1/5
f 135/2/5 132/2/5 131/2/5
f 136/3/5 127/3/5 132/3/5
f 136/2/5 132/2/5 135/2/5
f 137/3/5 133/3/5 128/3/5
f 137/2/5 134/2/5 133/2/5
f 138/2/5 134/2/5 137/2/5
f 139/1/5 136/1/5 135/1/5
f 140/3/5 127/3/5 136/3/5
f 140/1/5 136/1/5 139/1/5
f 141/3/5 137/3/5 128/3/5
f 141/1/5 138/1/5 137/1/5
f 142/1/5 138/1/5 141/1/5
f 143/2/5 140/2/5 139/2/5
f 144/3/5 127/3/5 140/3/5
f 144/2/5 140/2/5 143/2/5
f 145/3/5 141/3/5 128/3/5
f 145/2/5 142/2/5 141/2/5
f 146/2/5 142/2/5 145/2/5
f 147/1/5 144/1/5 143/1/5
f 148/3/5 127/3/5 144/3/5
f 148/1/5 144/1/5 147/1/5
f 149/3/5 145/3/5 128/3/5
f 149/1/5 146/1/5 145/1/5
f 150/1/5 146/1/5 149/1/5
f 151/2/5 148/2/5 147/2/5
f 152/3/5 127/3/5 148/3/5
f 152/2/5 148/2/5 151/2/5
f 153/3/5 149/3/5 128/3/5
f 153/2/5 150/2/5 149/2/5
f 154/2/5 150/2/5 153/2/5
f 155/1/5 152/1/5 151/1/5
f 156/3/5 127/3/5 152/3/5
f 156/1/5 152/1/5 155/1/5
f 157/1/5 128/1/5 127/1/5
f 157/3/5 127/3/5 156/3/5
f 158/3/5 153/3/5 128/3/5
f 158/1/5 128/1/5 157/1/5
f 159/1/5 154/1/5 153/1/5
f 159/3/5 153/3/5 158/3/5
f 160/1/5 154/1/5 159/1/5
f 161/2/5 156/2/5 155/2/5
f 161/3/5 157/3/5 156/3/5
f 161/3/5 158/3/5 157/3/5
f 161/3/5 159/3/5 158/3/5
f 162/3/5 159/3/5 161/3/5
f 163/3/5 159/3/5 162/3/5
f 164/3/5 159/3/5 163/3/5
f 165/3/5 159/3/5 164/3/5
f 166/3/5 159/3/5 165/3/5
f 167/3/5 159/3/5 166/3/5
f 168/3/5 159/3/5 167/3/5
f 169/3/5 159/3/5 168/3/5
f 170/3/5 159/3/5 169/3/5
f 171/3/5 159/3/5 170/3/5
f 172/3/5 159/3/5 171/3/5
f 173/3/5 159/3/5 172/3/5
f 174/2/5 160/2/5 159/2/5
f 174/3/5 159/3/5 173/3/5
f 175/2/5 161/2/5 155/2/5
f 175/2/5 162/2/5 161/2/5
f 176/1/5 163/1/5 162/1/5
f 176/2/5 162/2/5 175/2/5
f 177/2/5 164/2/5 163/2/5
f 177/1/5 163/1/5 176/1/5
f 178/1/5 165/1/5 164/1/5
f 178/2/5 164/2/5 177/2/5
f 179/2/5 166/2/5 165/2/5
f 179/1/5 165/1/5 178/1/5
f 180/1/5 167/1/5 166/1/5
f 180/2/5 166/2/5 179/2/5
f 181/2/5 168/2/5 167/2/5
f 181/1/5 167/1/5 180/1/5
f 182/1/5 169/1/5 168/1/5
f 182/2/5 168/2/5 181/2/5
f 183/2/5 170/2/5 169/2/5
f 183/1/5 169/1/5 182/1/5
f 184/1/5 171/1/5 170/1/5
f 184/2/5 170/2/5 183/2/5
f 185/2/5 172/2/5 171/2/5
f 185/1/5 171/1/5 184/1/5
f 186/1/5 173/1/5 172/1/5
f 186/2/5 172/2/5 185/2/5
f 187/2/5 174/2/5 173/2/5
f 187/1/5 173/1/5 186/1/5
f 188/2/5 160/2/5 174/2/5
f 188/2/5 174/2/5 187/2/5
f 189/2/6 190/2/6 203/2/6
f 190/1/6 191/1/6 204/1/6
f 203/2/6 190/2/6 204/2/6
f 191/2/6 192/2/6 205/2/6
f 204/1/6 191/1/6 205/1/6
f 192/1/6 193/1/6 206/1/6
f 205/2/6 192/2/6 206/2/6
f 193/2/6 194/2/6 207/2/6
f 206/1/6 193/1/6 207/1/6
f 194/1/6 195/1/6 208/1/6
f 207/2/6 194/2/6 208/2/6
f 195/2/6 196/2/6 209/2/6
f 208/1/6 195/1/6 209/1/6
f 196/1/6 197/1/6 210/1/6
f 209/2/6 196/2/6 210/2/6
f 197/2/6 198/2/6 211/2/6
f 210/1/6 197/1/6 211/1/6
f 198/1/6 199/1/6 212/1/6
f 211/2/6 198/2/6 212/2/6
f 199/2/6 200/2/6 213/2/6
f 212/1/6 199/1/6 213/1/6
f 200/1/6 201/1/6 214/1/6
f 213/2/6 200/2/6 214/2/6
f 201/2/6 202/2/6 215/2/6
f 214/1/6 201/1/6 215/1/6
f 215/2/6 202/2/6 216/2/6
f 189/2/6 203/2/6 217/2/6
f 213/3/6 214/3/6 218/3/6
f 217/2/6 203/2/6 218/2/6
f 203/3/6 204/3/6 218/3/6
f 215/3/6 216/3/6 218/3/6
f 214/3/6 215/3/6 218/3/6
f 212/3/6 213/3/6 218/3/6
f 211/3/6 212/3/6 218/3/6
f 210/3/6 211/3/6 218/3/6
f 209/3/6 210/3/6 218/3/6
f 208/3/6 209/3/6 218/3/6
f 207/3/6 208/3/6 218/3/6
f 206/3/6 207/3/6 218/3/6
f 205/3/6 206/3/6 218/3/6
f 204/3/6 205/3/6 218/3/6
f 218/3/6 216/3/6 219/3/6
f 219/3/6 216/3/6 220/3/6
f 216/2/6 202/2/6 221/2/6
f 220/3/6 216/3/6 221/3/6
f 221/2/6 202/2/6 222/2/6
f 217/1/6 218/1/6 223/1/6
f 218/3/6 219/3/6 224/3/6
f 223/1/6 218/1/6 224/1/6
f 220/3/6 221/3/6 225/3/6
f 221/1/6 222/1/6 225/1/6
f 225/1/6 222/1/6 226/1/6
f 223/2/6 224/2/6 227/2/6
f 224/3/6 219/3/6 228/3/6
f 227/2/6 224/2/6 228/2/6
f 220/3/6 225/3/6 229/3/6
f 225/2/6 226/2/6 229/2/6
f 229/2/6 226/2/6 230/2/6
f 227/1/6 228/1/6 231/1/6
f 228/3/6 219/3/6 232/3/6
f 231/1/6 228/1/6 232/1/6
f 220/3/6 229/3/6 233/3/6
f 229/1/6 230/1/6 233/1/6
f 233/1/6 230/1/6 234/1/6
f 231/2/6 232/2/6 235/2/6
f 232/3/6 219/3/6 236/3/6
f 235/2/6 232/2/6 236/2/6
f 220/3/6 233/3/6 237/3/6
f 233/2/6 234/2/6 237/2/6
f 237/2/6 234/2/6 238/2/6
f 235/1/6 236/1/6 239/1/6
f 236/3/6 219/3/6 240/3/6
f 239/1/6 236/1/6 240/1/6
f 220/3/6 237/3/6 241/3/6
f 237/1/6 238/1/6 241/1/6
f 241/1/6 238/1/6 242/1/6
f 239/2/6 240/2/6 243/2/6
f 240/3/6 219/3/6 244/3/6
f 243/2/6 240/2/6 244/2/6
f 220/3/6 241/3/6 245/3/6
f 241/2/6 242/2/6 245/2/6
f 245/2/6 242/2/6 246/2/6
f 243/1/6 244/1/6 247/1/6
f 244/3/6 219/3/6 248/3/6
f 247/1/6 244/1/6 248/1/6
f 219/1/6 220/1/6 249/1/6
f 248/3/6 219/3/6 249/3/6
f 220/3/6 245/3/6 250/3/6
f 249/1/6 220/1/6 250/1/6
f 245/1/6 246/1/6 251/1/6
f 250/3/6 245/3/6 251/3/6
f 251/1/6 246/1/6 252/1/6
f 247/2/6 248/2/6 253/2/6
f 248/3/6 249/3/6 253/3/6
f 249/3/6 250/3/6 253/3/6
f 250/3/6 251/3/6 253/3/6
f 253/3/6 251/3/6 254/3/6
f 254/3/6 251/3/6 255/3/6
f 255/3/6 251/3/6 256/3/6
f 256/3/6 251/3/6 257/3/6
f 257/3/6 251/3/6 258/3/6
f 258/3/6 251/3/6 259/3/6
f 259/3/6 251/3/6 260/3/6
f 260/3/6 251/3/6 261/3/6
f 261/3/6 251/3/6 262/3/6
f 262/3/6 251/3/6 263/3/6
f 263/3/6 251/3/6 264/3/6
f 264/3/6 251/3/6 265/3/6
f 251/2/6 252/2/6 266/2/6
f 265/3/6 251/3/6 266/3/6
f 247/2/6 253/2/6 267/2/6
f 253/2/6 254/2/6 267/2/6
f 254/1/6 255/1/6 268/1/6
f 267/2/6 254/2/6 268/2/6
f 255/2/6 256/2/6 269/2/6
f 268/1/6 255/1/6 269/1/6
f 256/1/6 257/1/6 270/1/6
f 269/2/6 256/2/6 270/2/6
f 257/2/6 258/2/6 271/2/6
f 270/1/6 257/1/6 271/1/6
f 258/1/6 259/1/6 272/1/6
f 271/2/6 258/2/6 272/2/6
f 259/2/6 260/2/6 273/2/6
f 272/1/6 259/1/6 273/1/6
f 260/1/6 261/1/6 274/1/6
f 273/2/6 260/2/6 274/2/6
f 261/2/6 262/2/6 275/2/6
f 274/1/6 261/1/6 275/1/6
f 262/1/6 263/1/6 276/1/6
f 275/2/6 262/2/6 276/2/6
f 263/2/6 264/2/6 277/2/6
f 276/1/6 263/1/6 277/1/6
f 264/1/6 265/1/6 278/1/6
f 277/2/6 264/2/6 278/2/6
f 265/2/6 266/2/6 279/2/6
f 278/1/6 265/1/6 279/1/6
f 266/2/6 252/2/6 280/2/6
f 279/2/6 266/2/6 280/2/6
