# MagicaVoxel @ Ephtracy

# group
g LV2_barbell

# material
mtllib LV2_barbell.mtl
usemtl palette

# normals
vn -1 0 0
vn 1 0 0
vn 0 0 1
vn 0 0 -1
vn 0 -1 0
vn 0 1 0

# texcoords
vt 0.263672 0.5
vt 0.267578 0.5
vt 0.271484 0.5

# verts
v -6 0 2
v -6 0 -2
v -6 1 3
v -6 1 2
v -6 1 -2
v -6 1 -3
v -6 2 1
v -6 2 -1
v -6 3 1
v -6 3 -0
v -6 4 1
v -6 4 -0
v -6 4 -1
v -6 5 3
v -6 5 2
v -6 5 -2
v -6 5 -3
v -6 6 2
v -6 6 -2
v 4 0 2
v 4 0 -2
v 4 1 3
v 4 1 2
v 4 1 -2
v 4 1 -3
v 4 2 1
v 4 2 -1
v 4 3 1
v 4 4 1
v 4 4 -0
v 4 4 -1
v 4 5 3
v 4 5 2
v 4 5 -2
v 4 5 -3
v 4 6 2
v 4 6 -2
v -4 0 2
v -4 0 -2
v -4 1 3
v -4 1 2
v -4 1 -2
v -4 1 -3
v -4 2 1
v -4 2 -1
v -4 3 1
v -4 4 1
v -4 4 -0
v -4 4 -1
v -4 5 3
v -4 5 2
v -4 5 -2
v -4 5 -3
v -4 6 2
v -4 6 -2
v 6 0 2
v 6 0 -2
v 6 1 3
v 6 1 2
v 6 1 -2
v 6 1 -3
v 6 2 1
v 6 2 -1
v 6 3 1
v 6 3 -0
v 6 4 1
v 6 4 -0
v 6 4 -1
v 6 5 3
v 6 5 2
v 6 5 -2
v 6 5 -3
v 6 6 2
v 6 6 -2
v -6 1 3
v -6 5 3
v -4 1 3
v -4 5 3
v 4 1 3
v 4 5 3
v 6 1 3
v 6 5 3
v -6 0 2
v -6 1 2
v -6 5 2
v -6 6 2
v -4 0 2
v -4 1 2
v -4 5 2
v -4 6 2
v 4 0 2
v 4 1 2
v 4 5 2
v 4 6 2
v 6 0 2
v 6 1 2
v 6 5 2
v 6 6 2
v -4 2 1
v -4 3 1
v -4 4 1
v 4 2 1
v 4 3 1
v 4 4 1
v -4 2 -1
v -4 4 -1
v 4 2 -1
v 4 4 -1
v -6 0 -2
v -6 1 -2
v -6 5 -2
v -6 6 -2
v -4 0 -2
v -4 1 -2
v -4 5 -2
v -4 6 -2
v 4 0 -2
v 4 1 -2
v 4 5 -2
v 4 6 -2
v 6 0 -2
v 6 1 -2
v 6 5 -2
v 6 6 -2
v -6 1 -3
v -6 5 -3
v -4 1 -3
v -4 5 -3
v 4 1 -3
v 4 5 -3
v 6 1 -3
v 6 5 -3
v -6 0 2
v -4 0 2
v 4 0 2
v 6 0 2
v -6 0 -2
v -4 0 -2
v 4 0 -2
v 6 0 -2
v -6 1 3
v -4 1 3
v 4 1 3
v 6 1 3
v -6 1 2
v -4 1 2
v 4 1 2
v 6 1 2
v -6 1 -2
v -4 1 -2
v 4 1 -2
v 6 1 -2
v -6 1 -3
v -4 1 -3
v 4 1 -3
v 6 1 -3
v -4 2 1
v 4 2 1
v -4 2 -1
v 4 2 -1
v -4 4 1
v 4 4 1
v -4 4 -0
v 4 4 -0
v -4 4 -1
v 4 4 -1
v -6 5 3
v -4 5 3
v 4 5 3
v 6 5 3
v -6 5 2
v -4 5 2
v 4 5 2
v 6 5 2
v -6 5 -2
v -4 5 -2
v 4 5 -2
v 6 5 -2
v -6 5 -3
v -4 5 -3
v 4 5 -3
v 6 5 -3
v -6 6 2
v -4 6 2
v 4 6 2
v 6 6 2
v -6 6 -2
v -4 6 -2
v 4 6 -2
v 6 6 -2

# faces
f 4/2/1 2/2/1 1/2/1
f 5/2/1 2/2/1 4/2/1
f 7/3/1 5/3/1 4/3/1
f 8/3/1 5/3/1 7/3/1
f 9/3/1 7/3/1 4/3/1
f 9/2/1 8/2/1 7/2/1
f 10/2/1 8/2/1 9/2/1
f 11/3/1 9/3/1 4/3/1
f 11/1/1 10/1/1 9/1/1
f 12/2/1 8/2/1 10/2/1
f 12/1/1 10/1/1 11/1/1
f 13/3/1 5/3/1 8/3/1
f 13/2/1 8/2/1 12/2/1
f 14/2/1 4/2/1 3/2/1
f 15/3/1 12/3/1 11/3/1
f 15/2/1 4/2/1 14/2/1
f 15/3/1 11/3/1 4/3/1
f 15/3/1 13/3/1 12/3/1
f 16/3/1 5/3/1 13/3/1
f 16/3/1 13/3/1 15/3/1
f 16/2/1 6/2/1 5/2/1
f 17/2/1 6/2/1 16/2/1
f 18/2/1 16/2/1 15/2/1
f 19/2/1 16/2/1 18/2/1
f 23/2/1 21/2/1 20/2/1
f 24/2/1 21/2/1 23/2/1
f 26/3/1 24/3/1 23/3/1
f 27/3/1 24/3/1 26/3/1
f 28/3/1 26/3/1 23/3/1
f 29/3/1 28/3/1 23/3/1
f 31/3/1 24/3/1 27/3/1
f 32/2/1 23/2/1 22/2/1
f 33/3/1 31/3/1 30/3/1
f 33/2/1 23/2/1 32/2/1
f 33/3/1 30/3/1 29/3/1
f 33/3/1 29/3/1 23/3/1
f 34/2/1 25/2/1 24/2/1
f 34/3/1 31/3/1 33/3/1
f 34/3/1 24/3/1 31/3/1
f 35/2/1 25/2/1 34/2/1
f 36/2/1 34/2/1 33/2/1
f 37/2/1 34/2/1 36/2/1
f 38/2/2 39/2/2 41/2/2
f 41/2/2 39/2/2 42/2/2
f 41/3/2 42/3/2 44/3/2
f 44/3/2 42/3/2 45/3/2
f 41/3/2 44/3/2 46/3/2
f 41/3/2 46/3/2 47/3/2
f 45/3/2 42/3/2 49/3/2
f 40/2/2 41/2/2 50/2/2
f 48/3/2 49/3/2 51/3/2
f 50/2/2 41/2/2 51/2/2
f 47/3/2 48/3/2 51/3/2
f 41/3/2 47/3/2 51/3/2
f 42/2/2 43/2/2 52/2/2
f 51/3/2 49/3/2 52/3/2
f 49/3/2 42/3/2 52/3/2
f 52/2/2 43/2/2 53/2/2
f 51/2/2 52/2/2 54/2/2
f 54/2/2 52/2/2 55/2/2
f 56/2/2 57/2/2 59/2/2
f 59/2/2 57/2/2 60/2/2
f 59/3/2 60/3/2 62/3/2
f 62/3/2 60/3/2 63/3/2
f 59/3/2 62/3/2 64/3/2
f 62/2/2 63/2/2 64/2/2
f 64/2/2 63/2/2 65/2/2
f 59/3/2 64/3/2 66/3/2
f 64/1/2 65/1/2 66/1/2
f 65/2/2 63/2/2 67/2/2
f 66/1/2 65/1/2 67/1/2
f 63/3/2 60/3/2 68/3/2
f 67/2/2 63/2/2 68/2/2
f 58/2/2 59/2/2 69/2/2
f 66/3/2 67/3/2 70/3/2
f 69/2/2 59/2/2 70/2/2
f 59/3/2 66/3/2 70/3/2
f 67/3/2 68/3/2 70/3/2
f 68/3/2 60/3/2 71/3/2
f 70/3/2 68/3/2 71/3/2
f 60/2/2 61/2/2 71/2/2
f 71/2/2 61/2/2 72/2/2
f 70/2/2 71/2/2 73/2/2
f 73/2/2 71/2/2 74/2/2
f 77/2/3 76/2/3 75/2/3
f 78/2/3 76/2/3 77/2/3
f 81/2/3 80/2/3 79/2/3
f 82/2/3 80/2/3 81/2/3
f 87/2/3 84/2/3 83/2/3
f 88/2/3 84/2/3 87/2/3
f 89/2/3 86/2/3 85/2/3
f 90/2/3 86/2/3 89/2/3
f 95/2/3 92/2/3 91/2/3
f 96/2/3 92/2/3 95/2/3
f 97/2/3 94/2/3 93/2/3
f 98/2/3 94/2/3 97/2/3
f 102/2/3 100/2/3 99/2/3
f 103/1/3 101/1/3 100/1/3
f 103/2/3 100/2/3 102/2/3
f 104/1/3 101/1/3 103/1/3
f 105/2/4 106/2/4 107/2/4
f 107/2/4 106/2/4 108/2/4
f 109/2/4 110/2/4 113/2/4
f 113/2/4 110/2/4 114/2/4
f 111/2/4 112/2/4 115/2/4
f 115/2/4 112/2/4 116/2/4
f 117/2/4 118/2/4 121/2/4
f 121/2/4 118/2/4 122/2/4
f 119/2/4 120/2/4 123/2/4
f 123/2/4 120/2/4 124/2/4
f 125/2/4 126/2/4 127/2/4
f 127/2/4 126/2/4 128/2/4
f 129/2/4 130/2/4 131/2/4
f 131/2/4 130/2/4 132/2/4
f 137/2/5 134/2/5 133/2/5
f 138/2/5 134/2/5 137/2/5
f 139/2/5 136/2/5 135/2/5
f 140/2/5 136/2/5 139/2/5
f 145/2/5 142/2/5 141/2/5
f 146/2/5 142/2/5 145/2/5
f 147/2/5 144/2/5 143/2/5
f 148/2/5 144/2/5 147/2/5
f 153/2/5 150/2/5 149/2/5
f 154/2/5 150/2/5 153/2/5
f 155/2/5 152/2/5 151/2/5
f 156/2/5 152/2/5 155/2/5
f 159/2/5 158/2/5 157/2/5
f 160/2/5 158/2/5 159/2/5
f 161/1/6 162/1/6 163/1/6
f 163/1/6 162/1/6 164/1/6
f 163/2/6 164/2/6 165/2/6
f 165/2/6 164/2/6 166/2/6
f 167/2/6 168/2/6 171/2/6
f 171/2/6 168/2/6 172/2/6
f 169/2/6 170/2/6 173/2/6
f 173/2/6 170/2/6 174/2/6
f 175/2/6 176/2/6 179/2/6
f 179/2/6 176/2/6 180/2/6
f 177/2/6 178/2/6 181/2/6
f 181/2/6 178/2/6 182/2/6
f 183/2/6 184/2/6 187/2/6
f 187/2/6 184/2/6 188/2/6
f 185/2/6 186/2/6 189/2/6
f 189/2/6 186/2/6 190/2/6
