# MagicaVoxel @ Ephtracy

# group
g Lv2_cushion

# material
mtllib Lv2_cushion.mtl
usemtl palette

# normals
vn -1 0 0
vn 1 0 0
vn 0 0 1
vn 0 0 -1
vn 0 -1 0
vn 0 1 0

# texcoords
vt 0.291016 0.5
vt 0.294922 0.5
vt 0.298828 0.5

# verts
v -6.5 0 6
v -6.5 0 -6
v -6.5 1 6
v -6.5 1 5
v -6.5 1 -4
v -6.5 2 6
v -6.5 2 5
v -6.5 2 -4
v -6.5 2 -5
v -6.5 3 -4
v -6.5 3 -5
v -6.5 9 -4
v -6.5 9 -5
v -6.5 10 -4
v -6.5 10 -5
v -6.5 10 -6
v 6.5 0 6
v 6.5 0 -6
v 6.5 1 6
v 6.5 1 5
v 6.5 1 -4
v 6.5 2 6
v 6.5 2 5
v 6.5 2 -4
v 6.5 2 -5
v 6.5 3 -4
v 6.5 3 -5
v 6.5 9 -4
v 6.5 9 -5
v 6.5 10 -4
v 6.5 10 -5
v 6.5 10 -6
v -6.5 0 6
v -6.5 1 6
v -6.5 2 6
v 6.5 0 6
v 6.5 1 6
v 6.5 2 6
v -6.5 3 -4
v -6.5 9 -4
v -6.5 10 -4
v 6.5 3 -4
v 6.5 9 -4
v 6.5 10 -4
v -6.5 2 -5
v -6.5 3 -5
v 6.5 2 -5
v 6.5 3 -5
v -6.5 0 -6
v -6.5 10 -6
v 6.5 0 -6
v 6.5 10 -6
v -6.5 0 6
v 6.5 0 6
v -6.5 0 -6
v 6.5 0 -6
v -6.5 3 -4
v 6.5 3 -4
v -6.5 3 -5
v 6.5 3 -5
v -6.5 2 6
v 6.5 2 6
v -6.5 2 5
v 6.5 2 5
v -6.5 2 -4
v 6.5 2 -4
v -6.5 2 -5
v 6.5 2 -5
v -6.5 10 -4
v 6.5 10 -4
v -6.5 10 -5
v 6.5 10 -5
v -6.5 10 -6
v 6.5 10 -6

# faces
f 3/3/1 2/3/1 1/3/1
f 4/3/1 2/3/1 3/3/1
f 5/3/1 2/3/1 4/3/1
f 6/1/1 4/1/1 3/1/1
f 7/2/1 5/2/1 4/2/1
f 7/1/1 4/1/1 6/1/1
f 8/3/1 2/3/1 5/3/1
f 8/2/1 5/2/1 7/2/1
f 9/3/1 2/3/1 8/3/1
f 11/3/1 2/3/1 9/3/1
f 12/2/1 11/2/1 10/2/1
f 13/3/1 2/3/1 11/3/1
f 13/2/1 11/2/1 12/2/1
f 14/1/1 13/1/1 12/1/1
f 15/3/1 2/3/1 13/3/1
f 15/1/1 13/1/1 14/1/1
f 16/3/1 2/3/1 15/3/1
f 17/3/2 18/3/2 19/3/2
f 19/3/2 18/3/2 20/3/2
f 20/3/2 18/3/2 21/3/2
f 19/1/2 20/1/2 22/1/2
f 20/2/2 21/2/2 23/2/2
f 22/1/2 20/1/2 23/1/2
f 21/3/2 18/3/2 24/3/2
f 23/2/2 21/2/2 24/2/2
f 24/3/2 18/3/2 25/3/2
f 25/3/2 18/3/2 27/3/2
f 26/2/2 27/2/2 28/2/2
f 27/3/2 18/3/2 29/3/2
f 28/2/2 27/2/2 29/2/2
f 28/1/2 29/1/2 30/1/2
f 29/3/2 18/3/2 31/3/2
f 30/1/2 29/1/2 31/1/2
f 31/3/2 18/3/2 32/3/2
f 36/3/3 34/3/3 33/3/3
f 37/1/3 35/1/3 34/1/3
f 37/3/3 34/3/3 36/3/3
f 38/1/3 35/1/3 37/1/3
f 42/2/3 40/2/3 39/2/3
f 43/1/3 41/1/3 40/1/3
f 43/2/3 40/2/3 42/2/3
f 44/1/3 41/1/3 43/1/3
f 47/3/3 46/3/3 45/3/3
f 48/3/3 46/3/3 47/3/3
f 49/3/4 50/3/4 51/3/4
f 51/3/4 50/3/4 52/3/4
f 55/3/5 54/3/5 53/3/5
f 56/3/5 54/3/5 55/3/5
f 59/2/5 58/2/5 57/2/5
f 60/2/5 58/2/5 59/2/5
f 61/1/6 62/1/6 63/1/6
f 63/1/6 62/1/6 64/1/6
f 63/2/6 64/2/6 65/2/6
f 65/2/6 64/2/6 66/2/6
f 65/3/6 66/3/6 67/3/6
f 67/3/6 66/3/6 68/3/6
f 69/1/6 70/1/6 71/1/6
f 71/1/6 70/1/6 72/1/6
f 71/3/6 72/3/6 73/3/6
f 73/3/6 72/3/6 74/3/6
