# MagicaVoxel @ Ephtracy

# group
g Lv2_trophy

# material
mtllib Lv2_trophy.mtl
usemtl palette

# normals
vn -1 0 0
vn 1 0 0
vn 0 0 1
vn 0 0 -1
vn 0 -1 0
vn 0 1 0

# texcoords
vt 0.384766 0.5
vt 0.392578 0.5
vt 0.412109 0.5
vt 0.416016 0.5
vt 0.419922 0.5
vt 0.423828 0.5
vt 0.689453 0.5

# verts
v -5 7 1
v -5 7 -1
v -5 9 1
v -5 9 -1
v -5 10 1
v -5 10 -1
v -3 0 2
v -3 0 -2
v -3 3 2
v -3 3 -2
v -3 4 2
v -3 4 -2
v -3 6 2
v -3 6 -2
v -3 7 1
v -3 7 -1
v -3 8 1
v -3 8 -1
v -3 9 1
v -3 9 -1
v -3 10 2
v -3 10 1
v -3 10 -1
v -3 10 -2
v -2 0 3
v -2 0 2
v -2 0 -2
v -2 0 -3
v -2 3 3
v -2 3 2
v -2 3 -2
v -2 3 -3
v -2 4 3
v -2 4 2
v -2 4 -2
v -2 4 -3
v -2 5 2
v -2 5 -2
v -2 6 3
v -2 6 2
v -2 6 -2
v -2 6 -3
v -2 7 3
v -2 7 2
v -2 7 -2
v -2 7 -3
v -2 10 3
v -2 10 2
v -2 10 -2
v -2 10 -3
v -1 4 1
v -1 4 -1
v -1 5 1
v -1 5 -1
v 1 6 2
v 1 6 1
v 1 6 -1
v 1 6 -2
v 1 7 2
v 1 7 -2
v 1 10 2
v 1 10 1
v 1 10 -1
v 1 10 -2
v 2 6 1
v 2 6 -1
v 2 10 1
v 2 10 -1
v 4 8 1
v 4 8 -1
v 4 9 1
v 4 9 -1
v -4 8 1
v -4 8 -1
v -4 9 1
v -4 9 -1
v -2 6 1
v -2 6 -1
v -2 10 1
v -2 10 -1
v -1 6 2
v -1 6 1
v -1 6 -1
v -1 6 -2
v -1 7 2
v -1 7 -2
v -1 10 2
v -1 10 1
v -1 10 -1
v -1 10 -2
v 1 4 1
v 1 4 -1
v 1 5 1
v 1 5 -1
v 2 0 3
v 2 0 2
v 2 0 -2
v 2 0 -3
v 2 3 3
v 2 3 2
v 2 3 -2
v 2 3 -3
v 2 4 3
v 2 4 2
v 2 4 -2
v 2 4 -3
v 2 5 2
v 2 5 -2
v 2 6 3
v 2 6 2
v 2 6 -2
v 2 6 -3
v 2 7 3
v 2 7 2
v 2 7 -2
v 2 7 -3
v 2 10 3
v 2 10 2
v 2 10 -2
v 2 10 -3
v 3 0 2
v 3 0 -2
v 3 3 2
v 3 3 -2
v 3 4 2
v 3 4 -2
v 3 6 2
v 3 6 -2
v 3 7 1
v 3 7 -1
v 3 8 1
v 3 8 -1
v 3 9 1
v 3 9 -1
v 3 10 2
v 3 10 1
v 3 10 -1
v 3 10 -2
v 5 7 1
v 5 7 -1
v 5 9 1
v 5 9 -1
v 5 10 1
v 5 10 -1
v -2 0 3
v -2 3 3
v -2 4 3
v -2 6 3
v -2 7 3
v -2 10 3
v -1 2 3
v -1 3 3
v -1 6 3
v -1 7 3
v -1 10 3
v 1 2 3
v 1 3 3
v 1 6 3
v 1 7 3
v 1 10 3
v 2 0 3
v 2 3 3
v 2 4 3
v 2 6 3
v 2 7 3
v 2 10 3
v -3 0 2
v -3 3 2
v -3 4 2
v -3 6 2
v -3 10 2
v -2 0 2
v -2 3 2
v -2 4 2
v -2 5 2
v -2 6 2
v -2 7 2
v -2 10 2
v -1 6 2
v 1 6 2
v 2 0 2
v 2 3 2
v 2 4 2
v 2 5 2
v 2 6 2
v 2 7 2
v 2 10 2
v 3 0 2
v 3 3 2
v 3 4 2
v 3 6 2
v 3 10 2
v -5 7 1
v -5 9 1
v -5 10 1
v -4 8 1
v -4 9 1
v -4 10 1
v -3 7 1
v -3 8 1
v -3 9 1
v -3 10 1
v -1 4 1
v -1 5 1
v 1 4 1
v 1 5 1
v 3 7 1
v 3 8 1
v 3 9 1
v 3 10 1
v 4 8 1
v 4 9 1
v 4 10 1
v 5 7 1
v 5 9 1
v 5 10 1
v -2 6 -1
v -2 10 -1
v -1 6 -1
v -1 10 -1
v 1 6 -1
v 1 10 -1
v 2 6 -1
v 2 10 -1
v -1 6 -2
v -1 7 -2
v -1 10 -2
v 1 6 -2
v 1 7 -2
v 1 10 -2
v -1 6 2
v -1 7 2
v -1 10 2
v 1 6 2
v 1 7 2
v 1 10 2
v -2 6 1
v -2 10 1
v -1 6 1
v -1 10 1
v 1 6 1
v 1 10 1
v 2 6 1
v 2 10 1
v -5 7 -1
v -5 9 -1
v -5 10 -1
v -4 8 -1
v -4 9 -1
v -4 10 -1
v -3 7 -1
v -3 8 -1
v -3 9 -1
v -3 10 -1
v -1 4 -1
v -1 5 -1
v 1 4 -1
v 1 5 -1
v 3 7 -1
v 3 8 -1
v 3 9 -1
v 3 10 -1
v 4 8 -1
v 4 9 -1
v 4 10 -1
v 5 7 -1
v 5 9 -1
v 5 10 -1
v -3 0 -2
v -3 3 -2
v -3 4 -2
v -3 6 -2
v -3 10 -2
v -2 0 -2
v -2 3 -2
v -2 4 -2
v -2 5 -2
v -2 6 -2
v -2 7 -2
v -2 10 -2
v -1 6 -2
v 1 6 -2
v 2 0 -2
v 2 3 -2
v 2 4 -2
v 2 5 -2
v 2 6 -2
v 2 7 -2
v 2 10 -2
v 3 0 -2
v 3 3 -2
v 3 4 -2
v 3 6 -2
v 3 10 -2
v -2 0 -3
v -2 3 -3
v -2 4 -3
v -2 6 -3
v -2 7 -3
v -2 10 -3
v -1 6 -3
v -1 7 -3
v -1 10 -3
v 1 6 -3
v 1 7 -3
v 1 10 -3
v 2 0 -3
v 2 3 -3
v 2 4 -3
v 2 6 -3
v 2 7 -3
v 2 10 -3
v -2 0 3
v 2 0 3
v -3 0 2
v -2 0 2
v 2 0 2
v 3 0 2
v -3 0 -2
v -2 0 -2
v 2 0 -2
v 3 0 -2
v -2 0 -3
v 2 0 -3
v -2 5 2
v 2 5 2
v -1 5 1
v 1 5 1
v -1 5 -1
v 1 5 -1
v -2 5 -2
v 2 5 -2
v -2 6 3
v -1 6 3
v 1 6 3
v 2 6 3
v -3 6 2
v -2 6 2
v -1 6 2
v 1 6 2
v 2 6 2
v 3 6 2
v -3 6 -2
v -2 6 -2
v -1 6 -2
v 1 6 -2
v 2 6 -2
v 3 6 -2
v -2 6 -3
v -1 6 -3
v 1 6 -3
v 2 6 -3
v -5 7 1
v -3 7 1
v 3 7 1
v 5 7 1
v -5 7 -1
v -3 7 -1
v 3 7 -1
v 5 7 -1
v -4 9 1
v -3 9 1
v 3 9 1
v 4 9 1
v -4 9 -1
v -3 9 -1
v 3 9 -1
v 4 9 -1
v -2 4 3
v 2 4 3
v -3 4 2
v -2 4 2
v 2 4 2
v 3 4 2
v -1 4 1
v 1 4 1
v -1 4 -1
v 1 4 -1
v -3 4 -2
v -2 4 -2
v 2 4 -2
v 3 4 -2
v -2 4 -3
v 2 4 -3
v -1 6 2
v 1 6 2
v -2 6 1
v -1 6 1
v 1 6 1
v 2 6 1
v -2 6 -1
v -1 6 -1
v 1 6 -1
v 2 6 -1
v -1 6 -2
v 1 6 -2
v -4 8 1
v -3 8 1
v 3 8 1
v 4 8 1
v -4 8 -1
v -3 8 -1
v 3 8 -1
v 4 8 -1
v -2 10 3
v -1 10 3
v 1 10 3
v 2 10 3
v -3 10 2
v -2 10 2
v -1 10 2
v 1 10 2
v 2 10 2
v 3 10 2
v -5 10 1
v -4 10 1
v -3 10 1
v -2 10 1
v -1 10 1
v 1 10 1
v 2 10 1
v 3 10 1
v 4 10 1
v 5 10 1
v -5 10 -1
v -4 10 -1
v -3 10 -1
v -2 10 -1
v -1 10 -1
v 1 10 -1
v 2 10 -1
v 3 10 -1
v 4 10 -1
v 5 10 -1
v -3 10 -2
v -2 10 -2
v -1 10 -2
v 1 10 -2
v 2 10 -2
v 3 10 -2
v -2 10 -3
v -1 10 -3
v 1 10 -3
v 2 10 -3

# faces
f 3/5/1 2/5/1 1/5/1
f 4/5/1 2/5/1 3/5/1
f 5/3/1 4/3/1 3/3/1
f 6/3/1 4/3/1 5/3/1
f 9/1/1 8/1/1 7/1/1
f 10/1/1 8/1/1 9/1/1
f 11/2/1 10/2/1 9/2/1
f 12/2/1 10/2/1 11/2/1
f 15/5/1 14/5/1 13/5/1
f 16/5/1 14/5/1 15/5/1
f 17/5/1 15/5/1 13/5/1
f 18/5/1 14/5/1 16/5/1
f 19/5/1 17/5/1 13/5/1
f 19/5/1 18/5/1 17/5/1
f 20/5/1 14/5/1 18/5/1
f 20/5/1 18/5/1 19/5/1
f 21/5/1 19/5/1 13/5/1
f 22/5/1 19/5/1 21/5/1
f 23/5/1 14/5/1 20/5/1
f 24/5/1 14/5/1 23/5/1
f 29/1/1 26/1/1 25/1/1
f 30/1/1 26/1/1 29/1/1
f 31/1/1 28/1/1 27/1/1
f 32/1/1 28/1/1 31/1/1
f 33/2/1 30/2/1 29/2/1
f 34/2/1 30/2/1 33/2/1
f 35/2/1 32/2/1 31/2/1
f 36/2/1 32/2/1 35/2/1
f 40/5/1 38/5/1 37/5/1
f 41/5/1 38/5/1 40/5/1
f 43/5/1 40/5/1 39/5/1
f 44/5/1 40/5/1 43/5/1
f 45/5/1 42/5/1 41/5/1
f 46/5/1 42/5/1 45/5/1
f 47/4/1 44/4/1 43/4/1
f 48/4/1 44/4/1 47/4/1
f 49/4/1 46/4/1 45/4/1
f 50/4/1 46/4/1 49/4/1
f 53/6/1 52/6/1 51/6/1
f 54/6/1 52/6/1 53/6/1
f 59/5/1 56/5/1 55/5/1
f 60/5/1 58/5/1 57/5/1
f 61/5/1 56/5/1 59/5/1
f 62/5/1 56/5/1 61/5/1
f 63/5/1 60/5/1 57/5/1
f 64/5/1 60/5/1 63/5/1
f 67/5/1 66/5/1 65/5/1
f 68/5/1 66/5/1 67/5/1
f 71/5/1 70/5/1 69/5/1
f 72/5/1 70/5/1 71/5/1
f 73/5/2 74/5/2 75/5/2
f 75/5/2 74/5/2 76/5/2
f 77/5/2 78/5/2 79/5/2
f 79/5/2 78/5/2 80/5/2
f 81/5/2 82/5/2 85/5/2
f 83/5/2 84/5/2 86/5/2
f 85/5/2 82/5/2 87/5/2
f 87/5/2 82/5/2 88/5/2
f 83/5/2 86/5/2 89/5/2
f 89/5/2 86/5/2 90/5/2
f 91/6/2 92/6/2 93/6/2
f 93/6/2 92/6/2 94/6/2
f 95/1/2 96/1/2 99/1/2
f 99/1/2 96/1/2 100/1/2
f 97/1/2 98/1/2 101/1/2
f 101/1/2 98/1/2 102/1/2
f 99/2/2 100/2/2 103/2/2
f 103/2/2 100/2/2 104/2/2
f 101/2/2 102/2/2 105/2/2
f 105/2/2 102/2/2 106/2/2
f 107/5/2 108/5/2 110/5/2
f 110/5/2 108/5/2 111/5/2
f 109/5/2 110/5/2 113/5/2
f 113/5/2 110/5/2 114/5/2
f 111/5/2 112/5/2 115/5/2
f 115/5/2 112/5/2 116/5/2
f 113/4/2 114/4/2 117/4/2
f 117/4/2 114/4/2 118/4/2
f 115/4/2 116/4/2 119/4/2
f 119/4/2 116/4/2 120/4/2
f 121/1/2 122/1/2 123/1/2
f 123/1/2 122/1/2 124/1/2
f 123/2/2 124/2/2 125/2/2
f 125/2/2 124/2/2 126/2/2
f 127/5/2 128/5/2 129/5/2
f 129/5/2 128/5/2 130/5/2
f 127/5/2 129/5/2 131/5/2
f 130/5/2 128/5/2 132/5/2
f 127/5/2 131/5/2 133/5/2
f 131/5/2 132/5/2 133/5/2
f 132/5/2 128/5/2 134/5/2
f 133/5/2 132/5/2 134/5/2
f 127/5/2 133/5/2 135/5/2
f 135/5/2 133/5/2 136/5/2
f 134/5/2 128/5/2 137/5/2
f 137/5/2 128/5/2 138/5/2
f 139/5/2 140/5/2 141/5/2
f 141/5/2 140/5/2 142/5/2
f 141/3/2 142/3/2 143/3/2
f 143/3/2 142/3/2 144/3/2
f 151/1/3 146/1/3 145/1/3
f 152/2/3 147/2/3 146/2/3
f 152/1/3 146/1/3 151/1/3
f 153/5/3 149/5/3 148/5/3
f 154/4/3 150/4/3 149/4/3
f 154/5/3 149/5/3 153/5/3
f 155/4/3 150/4/3 154/4/3
f 156/1/3 151/1/3 145/1/3
f 156/7/3 152/7/3 151/7/3
f 157/2/3 147/2/3 152/2/3
f 157/7/3 152/7/3 156/7/3
f 158/4/3 154/4/3 153/4/3
f 159/3/3 155/3/3 154/3/3
f 159/4/3 154/4/3 158/4/3
f 160/3/3 155/3/3 159/3/3
f 161/1/3 156/1/3 145/1/3
f 161/1/3 157/1/3 156/1/3
f 162/2/3 147/2/3 157/2/3
f 162/1/3 157/1/3 161/1/3
f 163/2/3 147/2/3 162/2/3
f 164/5/3 159/5/3 158/5/3
f 165/4/3 160/4/3 159/4/3
f 165/5/3 159/5/3 164/5/3
f 166/4/3 160/4/3 165/4/3
f 172/1/3 168/1/3 167/1/3
f 173/2/3 169/2/3 168/2/3
f 173/1/3 168/1/3 172/1/3
f 174/2/3 169/2/3 173/2/3
f 176/5/3 171/5/3 170/5/3
f 177/5/3 171/5/3 176/5/3
f 178/5/3 171/5/3 177/5/3
f 179/5/3 176/5/3 175/5/3
f 180/5/3 179/5/3 175/5/3
f 184/5/3 180/5/3 175/5/3
f 185/5/3 180/5/3 184/5/3
f 188/1/3 182/1/3 181/1/3
f 189/2/3 183/2/3 182/2/3
f 189/1/3 182/1/3 188/1/3
f 190/2/3 183/2/3 189/2/3
f 191/5/3 187/5/3 186/5/3
f 191/5/3 186/5/3 185/5/3
f 192/5/3 187/5/3 191/5/3
f 196/5/3 194/5/3 193/5/3
f 197/3/3 195/3/3 194/3/3
f 197/5/3 194/5/3 196/5/3
f 198/3/3 195/3/3 197/3/3
f 199/5/3 196/5/3 193/5/3
f 200/5/3 196/5/3 199/5/3
f 201/4/3 198/4/3 197/4/3
f 202/4/3 198/4/3 201/4/3
f 205/6/3 204/6/3 203/6/3
f 206/6/3 204/6/3 205/6/3
f 211/5/3 208/5/3 207/5/3
f 212/4/3 210/4/3 209/4/3
f 213/4/3 210/4/3 212/4/3
f 214/5/3 211/5/3 207/5/3
f 214/5/3 212/5/3 211/5/3
f 215/3/3 213/3/3 212/3/3
f 215/5/3 212/5/3 214/5/3
f 216/3/3 213/3/3 215/3/3
f 219/5/3 218/5/3 217/5/3
f 220/5/3 218/5/3 219/5/3
f 223/5/3 222/5/3 221/5/3
f 224/5/3 222/5/3 223/5/3
f 228/4/3 226/4/3 225/4/3
f 229/3/3 227/3/3 226/3/3
f 229/4/3 226/4/3 228/4/3
f 230/3/3 227/3/3 229/3/3
f 231/4/4 232/4/4 234/4/4
f 232/3/4 233/3/4 235/3/4
f 234/4/4 232/4/4 235/4/4
f 235/3/4 233/3/4 236/3/4
f 237/5/4 238/5/4 239/5/4
f 239/5/4 238/5/4 240/5/4
f 241/5/4 242/5/4 243/5/4
f 243/5/4 242/5/4 244/5/4
f 245/5/4 246/5/4 248/5/4
f 246/3/4 247/3/4 249/3/4
f 248/5/4 246/5/4 249/5/4
f 249/3/4 247/3/4 250/3/4
f 245/5/4 248/5/4 251/5/4
f 251/5/4 248/5/4 252/5/4
f 249/4/4 250/4/4 253/4/4
f 253/4/4 250/4/4 254/4/4
f 255/6/4 256/6/4 257/6/4
f 257/6/4 256/6/4 258/6/4
f 259/5/4 260/5/4 263/5/4
f 261/4/4 262/4/4 264/4/4
f 264/4/4 262/4/4 265/4/4
f 259/5/4 263/5/4 266/5/4
f 263/5/4 264/5/4 266/5/4
f 264/3/4 265/3/4 267/3/4
f 266/5/4 264/5/4 267/5/4
f 267/3/4 265/3/4 268/3/4
f 269/1/4 270/1/4 274/1/4
f 270/2/4 271/2/4 275/2/4
f 274/1/4 270/1/4 275/1/4
f 275/2/4 271/2/4 276/2/4
f 272/5/4 273/5/4 278/5/4
f 278/5/4 273/5/4 279/5/4
f 279/5/4 273/5/4 280/5/4
f 277/5/4 278/5/4 281/5/4
f 277/5/4 281/5/4 282/5/4
f 277/5/4 282/5/4 286/5/4
f 286/5/4 282/5/4 287/5/4
f 283/1/4 284/1/4 290/1/4
f 284/2/4 285/2/4 291/2/4
f 290/1/4 284/1/4 291/1/4
f 291/2/4 285/2/4 292/2/4
f 288/5/4 289/5/4 293/5/4
f 287/5/4 288/5/4 293/5/4
f 293/5/4 289/5/4 294/5/4
f 298/5/4 299/5/4 301/5/4
f 299/4/4 300/4/4 302/4/4
f 301/5/4 299/5/4 302/5/4
f 302/4/4 300/4/4 303/4/4
f 301/4/4 302/4/4 304/4/4
f 302/3/4 303/3/4 305/3/4
f 304/4/4 302/4/4 305/4/4
f 305/3/4 303/3/4 306/3/4
f 295/1/4 296/1/4 307/1/4
f 296/2/4 297/2/4 308/2/4
f 307/1/4 296/1/4 308/1/4
f 308/2/4 297/2/4 309/2/4
f 304/5/4 305/5/4 310/5/4
f 305/4/4 306/4/4 311/4/4
f 310/5/4 305/5/4 311/5/4
f 311/4/4 306/4/4 312/4/4
f 316/1/5 314/1/5 313/1/5
f 317/1/5 314/1/5 316/1/5
f 319/1/5 316/1/5 315/1/5
f 319/1/5 318/1/5 317/1/5
f 319/1/5 317/1/5 316/1/5
f 320/1/5 318/1/5 319/1/5
f 321/1/5 318/1/5 320/1/5
f 322/1/5 318/1/5 321/1/5
f 323/1/5 321/1/5 320/1/5
f 324/1/5 321/1/5 323/1/5
f 327/5/5 326/5/5 325/5/5
f 328/5/5 326/5/5 327/5/5
f 329/5/5 327/5/5 325/5/5
f 330/5/5 326/5/5 328/5/5
f 331/5/5 329/5/5 325/5/5
f 331/5/5 330/5/5 329/5/5
f 332/5/5 326/5/5 330/5/5
f 332/5/5 330/5/5 331/5/5
f 338/5/5 334/5/5 333/5/5
f 339/4/5 335/4/5 334/4/5
f 339/5/5 334/5/5 338/5/5
f 340/5/5 336/5/5 335/5/5
f 340/4/5 335/4/5 339/4/5
f 341/5/5 336/5/5 340/5/5
f 343/5/5 338/5/5 337/5/5
f 344/5/5 338/5/5 343/5/5
f 347/5/5 342/5/5 341/5/5
f 348/5/5 342/5/5 347/5/5
f 349/5/5 345/5/5 344/5/5
f 350/4/5 346/4/5 345/4/5
f 350/5/5 345/5/5 349/5/5
f 351/5/5 347/5/5 346/5/5
f 351/4/5 346/4/5 350/4/5
f 352/5/5 347/5/5 351/5/5
f 357/5/5 354/5/5 353/5/5
f 358/5/5 354/5/5 357/5/5
f 359/5/5 356/5/5 355/5/5
f 360/5/5 356/5/5 359/5/5
f 365/4/5 362/4/5 361/4/5
f 366/4/5 362/4/5 365/4/5
f 367/4/5 364/4/5 363/4/5
f 368/4/5 364/4/5 367/4/5
f 369/2/6 370/2/6 372/2/6
f 372/2/6 370/2/6 373/2/6
f 371/2/6 372/2/6 375/2/6
f 373/2/6 374/2/6 375/2/6
f 372/2/6 373/2/6 375/2/6
f 375/2/6 374/2/6 376/2/6
f 371/2/6 375/2/6 377/2/6
f 376/2/6 374/2/6 378/2/6
f 371/2/6 377/2/6 379/2/6
f 377/2/6 378/2/6 379/2/6
f 379/2/6 378/2/6 380/2/6
f 378/2/6 374/2/6 381/2/6
f 380/2/6 378/2/6 381/2/6
f 381/2/6 374/2/6 382/2/6
f 380/2/6 381/2/6 383/2/6
f 383/2/6 381/2/6 384/2/6
f 385/5/6 386/5/6 388/5/6
f 388/5/6 386/5/6 389/5/6
f 387/5/6 388/5/6 391/5/6
f 389/5/6 390/5/6 391/5/6
f 388/5/6 389/5/6 391/5/6
f 391/5/6 390/5/6 392/5/6
f 392/5/6 390/5/6 393/5/6
f 393/5/6 390/5/6 394/5/6
f 392/5/6 393/5/6 395/5/6
f 395/5/6 393/5/6 396/5/6
f 397/5/6 398/5/6 401/5/6
f 401/5/6 398/5/6 402/5/6
f 399/5/6 400/5/6 403/5/6
f 403/5/6 400/5/6 404/5/6
f 405/4/6 406/4/6 410/4/6
f 406/3/6 407/3/6 411/3/6
f 410/4/6 406/4/6 411/4/6
f 407/4/6 408/4/6 412/4/6
f 411/3/6 407/3/6 412/3/6
f 412/4/6 408/4/6 413/4/6
f 410/5/6 411/5/6 417/5/6
f 409/5/6 410/5/6 417/5/6
f 417/5/6 411/5/6 418/5/6
f 418/5/6 411/5/6 419/5/6
f 412/5/6 413/5/6 420/5/6
f 413/5/6 414/5/6 420/5/6
f 420/5/6 414/5/6 421/5/6
f 421/5/6 414/5/6 422/5/6
f 415/3/6 416/3/6 425/3/6
f 416/4/6 417/4/6 426/4/6
f 425/3/6 416/3/6 426/3/6
f 417/5/6 418/5/6 427/5/6
f 426/4/6 417/4/6 427/4/6
f 427/5/6 418/5/6 428/5/6
f 421/5/6 422/5/6 431/5/6
f 422/4/6 423/4/6 432/4/6
f 431/5/6 422/5/6 432/5/6
f 423/3/6 424/3/6 433/3/6
f 432/4/6 423/4/6 433/4/6
f 433/3/6 424/3/6 434/3/6
f 428/5/6 429/5/6 435/5/6
f 427/5/6 428/5/6 435/5/6
f 435/5/6 429/5/6 436/5/6
f 436/5/6 429/5/6 437/5/6
f 431/5/6 432/5/6 438/5/6
f 430/5/6 431/5/6 438/5/6
f 438/5/6 432/5/6 439/5/6
f 439/5/6 432/5/6 440/5/6
f 436/4/6 437/4/6 441/4/6
f 437/3/6 438/3/6 442/3/6
f 441/4/6 437/4/6 442/4/6
f 438/4/6 439/4/6 443/4/6
f 442/3/6 438/3/6 443/3/6
f 443/4/6 439/4/6 444/4/6
