# MagicaVoxel @ Ephtracy

# group
g Lv2_picopico

# material
mtllib Lv2_picopico.mtl
usemtl palette

# normals
vn -1 0 0
vn 1 0 0
vn 0 0 1
vn 0 0 -1
vn 0 -1 0
vn 0 1 0

# texcoords
vt 0.267578 0.5
vt 0.416016 0.5
vt 0.419922 0.5
vt 0.423828 0.5
vt 0.646484 0.5
vt 0.708984 0.5
vt 0.892578 0.5

# verts
v -5 0 6
v -5 0 -6
v -5 1 6
v -5 1 2
v -5 1 -5
v -5 1 -6
v -5 2 6
v -5 2 2
v -5 2 1
v -5 2 -0
v -5 2 -3
v -5 2 -4
v -5 2 -5
v -5 2 -6
v -5 3 1
v -5 3 -0
v -5 3 -3
v -5 3 -4
v -5 4 2
v -5 4 -5
v -3 2 -2
v -3 2 -3
v -3 2 -4
v -3 6 -2
v -3 6 -3
v -3 6 -4
v -2 2 2
v -2 2 1
v -2 3 2
v -2 3 1
v 4 2 2
v 4 2 1
v 4 2 -0
v 4 2 -3
v 4 2 -4
v 4 2 -5
v 4 3 1
v 4 3 -0
v 4 3 -3
v 4 3 -4
v 4 4 2
v 4 4 -5
v -4 2 2
v -4 2 1
v -4 2 -0
v -4 2 -3
v -4 2 -4
v -4 2 -5
v -4 3 1
v -4 3 -0
v -4 3 -3
v -4 3 -4
v -4 4 2
v -4 4 -5
v 2 2 2
v 2 2 1
v 2 3 2
v 2 3 1
v 3 2 -2
v 3 2 -3
v 3 2 -4
v 3 6 -2
v 3 6 -3
v 3 6 -4
v 5 0 6
v 5 0 -6
v 5 1 6
v 5 1 2
v 5 1 -5
v 5 1 -6
v 5 2 6
v 5 2 2
v 5 2 1
v 5 2 -0
v 5 2 -3
v 5 2 -4
v 5 2 -5
v 5 2 -6
v 5 3 1
v 5 3 -0
v 5 3 -3
v 5 3 -4
v 5 4 2
v 5 4 -5
v -5 0 6
v -5 1 6
v -5 2 6
v -4 0 6
v -4 1 6
v -2 0 6
v -2 1 6
v 2 0 6
v 2 1 6
v 4 0 6
v 4 1 6
v 5 0 6
v 5 1 6
v 5 2 6
v -5 2 2
v -5 4 2
v -4 2 2
v -4 4 2
v -2 2 2
v -2 3 2
v 2 2 2
v 2 3 2
v 4 2 2
v 4 4 2
v 5 2 2
v 5 4 2
v -3 2 -2
v -3 6 -2
v -2 3 -2
v -2 5 -2
v 2 3 -2
v 2 5 -2
v 3 2 -2
v 3 6 -2
v -2 2 1
v -2 3 1
v 2 2 1
v 2 3 1
v -3 2 -4
v -3 6 -4
v 3 2 -4
v 3 6 -4
v -5 2 -5
v -5 4 -5
v -4 2 -5
v -4 4 -5
v 4 2 -5
v 4 4 -5
v 5 2 -5
v 5 4 -5
v -5 0 -6
v -5 1 -6
v -5 2 -6
v 5 0 -6
v 5 1 -6
v 5 2 -6
v -5 0 6
v -4 0 6
v -2 0 6
v 2 0 6
v 4 0 6
v 5 0 6
v -4 0 5
v -2 0 5
v 2 0 5
v 4 0 5
v -5 0 -6
v 5 0 -6
v -5 2 6
v 5 2 6
v -4 2 5
v -2 2 5
v 2 2 5
v 4 2 5
v -2 2 4
v 2 2 4
v -4 2 3
v -3 2 3
v -2 2 3
v 2 2 3
v 3 2 3
v 4 2 3
v -5 2 2
v -4 2 2
v -2 2 2
v 2 2 2
v 4 2 2
v 5 2 2
v -4 2 1
v -2 2 1
v 2 2 1
v 4 2 1
v -4 2 -0
v 4 2 -0
v -2 2 -1
v 2 2 -1
v -3 2 -2
v 3 2 -2
v -4 2 -3
v -3 2 -3
v 3 2 -3
v 4 2 -3
v -4 2 -4
v -3 2 -4
v 3 2 -4
v 4 2 -4
v -5 2 -5
v -4 2 -5
v -3 2 -5
v 3 2 -5
v 4 2 -5
v 5 2 -5
v -5 2 -6
v 5 2 -6
v -2 3 2
v 2 3 2
v -2 3 1
v 2 3 1
v -5 4 2
v -4 4 2
v 4 4 2
v 5 4 2
v -5 4 -5
v -4 4 -5
v 4 4 -5
v 5 4 -5
v -3 6 -2
v 3 6 -2
v -3 6 -3
v 3 6 -3
v -3 6 -4
v 3 6 -4

# faces
f 3/3/1 2/3/1 1/3/1
f 4/3/1 2/3/1 3/3/1
f 5/3/1 2/3/1 4/3/1
f 6/3/1 2/3/1 5/3/1
f 7/2/1 4/2/1 3/2/1
f 8/5/1 5/5/1 4/5/1
f 8/2/1 4/2/1 7/2/1
f 9/5/1 5/5/1 8/5/1
f 10/5/1 5/5/1 9/5/1
f 11/5/1 5/5/1 10/5/1
f 12/5/1 5/5/1 11/5/1
f 13/2/1 6/2/1 5/2/1
f 13/5/1 5/5/1 12/5/1
f 14/2/1 6/2/1 13/2/1
f 15/5/1 9/5/1 8/5/1
f 15/1/1 10/1/1 9/1/1
f 16/6/1 11/6/1 10/6/1
f 16/1/1 10/1/1 15/1/1
f 17/1/1 12/1/1 11/1/1
f 17/6/1 11/6/1 16/6/1
f 18/5/1 13/5/1 12/5/1
f 18/1/1 12/1/1 17/1/1
f 19/5/1 16/5/1 15/5/1
f 19/5/1 17/5/1 16/5/1
f 19/5/1 18/5/1 17/5/1
f 19/5/1 15/5/1 8/5/1
f 20/5/1 13/5/1 18/5/1
f 20/5/1 18/5/1 19/5/1
f 24/7/1 22/7/1 21/7/1
f 25/6/1 23/6/1 22/6/1
f 25/7/1 22/7/1 24/7/1
f 26/6/1 23/6/1 25/6/1
f 29/5/1 28/5/1 27/5/1
f 30/5/1 28/5/1 29/5/1
f 37/5/1 32/5/1 31/5/1
f 37/1/1 33/1/1 32/1/1
f 38/6/1 34/6/1 33/6/1
f 38/1/1 33/1/1 37/1/1
f 39/1/1 35/1/1 34/1/1
f 39/6/1 34/6/1 38/6/1
f 40/5/1 36/5/1 35/5/1
f 40/1/1 35/1/1 39/1/1
f 41/5/1 39/5/1 38/5/1
f 41/5/1 38/5/1 37/5/1
f 41/5/1 40/5/1 39/5/1
f 41/5/1 37/5/1 31/5/1
f 42/5/1 36/5/1 40/5/1
f 42/5/1 40/5/1 41/5/1
f 43/5/2 44/5/2 49/5/2
f 44/1/2 45/1/2 49/1/2
f 45/6/2 46/6/2 50/6/2
f 49/1/2 45/1/2 50/1/2
f 46/1/2 47/1/2 51/1/2
f 50/6/2 46/6/2 51/6/2
f 47/5/2 48/5/2 52/5/2
f 51/1/2 47/1/2 52/1/2
f 50/5/2 51/5/2 53/5/2
f 49/5/2 50/5/2 53/5/2
f 51/5/2 52/5/2 53/5/2
f 43/5/2 49/5/2 53/5/2
f 52/5/2 48/5/2 54/5/2
f 53/5/2 52/5/2 54/5/2
f 55/5/2 56/5/2 57/5/2
f 57/5/2 56/5/2 58/5/2
f 59/7/2 60/7/2 62/7/2
f 60/6/2 61/6/2 63/6/2
f 62/7/2 60/7/2 63/7/2
f 63/6/2 61/6/2 64/6/2
f 65/3/2 66/3/2 67/3/2
f 67/3/2 66/3/2 68/3/2
f 68/3/2 66/3/2 69/3/2
f 69/3/2 66/3/2 70/3/2
f 67/2/2 68/2/2 71/2/2
f 68/5/2 69/5/2 72/5/2
f 71/2/2 68/2/2 72/2/2
f 72/5/2 69/5/2 73/5/2
f 73/5/2 69/5/2 74/5/2
f 74/5/2 69/5/2 75/5/2
f 75/5/2 69/5/2 76/5/2
f 69/2/2 70/2/2 77/2/2
f 76/5/2 69/5/2 77/5/2
f 77/2/2 70/2/2 78/2/2
f 72/5/2 73/5/2 79/5/2
f 73/1/2 74/1/2 79/1/2
f 74/6/2 75/6/2 80/6/2
f 79/1/2 74/1/2 80/1/2
f 75/1/2 76/1/2 81/1/2
f 80/6/2 75/6/2 81/6/2
f 76/5/2 77/5/2 82/5/2
f 81/1/2 76/1/2 82/1/2
f 79/5/2 80/5/2 83/5/2
f 80/5/2 81/5/2 83/5/2
f 81/5/2 82/5/2 83/5/2
f 72/5/2 79/5/2 83/5/2
f 82/5/2 77/5/2 84/5/2
f 83/5/2 82/5/2 84/5/2
f 88/3/3 86/3/3 85/3/3
f 89/2/3 87/2/3 86/2/3
f 89/3/3 86/3/3 88/3/3
f 90/4/3 89/4/3 88/4/3
f 91/2/3 87/2/3 89/2/3
f 91/4/3 89/4/3 90/4/3
f 92/3/3 91/3/3 90/3/3
f 93/2/3 87/2/3 91/2/3
f 93/3/3 91/3/3 92/3/3
f 94/4/3 93/4/3 92/4/3
f 95/2/3 87/2/3 93/2/3
f 95/4/3 93/4/3 94/4/3
f 96/3/3 95/3/3 94/3/3
f 97/2/3 87/2/3 95/2/3
f 97/3/3 95/3/3 96/3/3
f 98/2/3 87/2/3 97/2/3
f 101/5/3 100/5/3 99/5/3
f 102/5/3 100/5/3 101/5/3
f 105/5/3 104/5/3 103/5/3
f 106/5/3 104/5/3 105/5/3
f 109/5/3 108/5/3 107/5/3
f 110/5/3 108/5/3 109/5/3
f 113/7/3 112/7/3 111/7/3
f 114/7/3 112/7/3 113/7/3
f 115/7/3 113/7/3 111/7/3
f 115/6/3 114/6/3 113/6/3
f 116/7/3 112/7/3 114/7/3
f 116/6/3 114/6/3 115/6/3
f 117/7/3 115/7/3 111/7/3
f 117/7/3 116/7/3 115/7/3
f 118/7/3 112/7/3 116/7/3
f 118/7/3 116/7/3 117/7/3
f 119/5/4 120/5/4 121/5/4
f 121/5/4 120/5/4 122/5/4
f 123/6/4 124/6/4 125/6/4
f 125/6/4 124/6/4 126/6/4
f 127/5/4 128/5/4 129/5/4
f 129/5/4 128/5/4 130/5/4
f 131/5/4 132/5/4 133/5/4
f 133/5/4 132/5/4 134/5/4
f 135/3/4 136/3/4 138/3/4
f 136/2/4 137/2/4 139/2/4
f 138/3/4 136/3/4 139/3/4
f 139/2/4 137/2/4 140/2/4
f 147/3/5 142/3/5 141/3/5
f 147/4/5 143/4/5 142/4/5
f 148/3/5 144/3/5 143/3/5
f 148/4/5 143/4/5 147/4/5
f 149/4/5 145/4/5 144/4/5
f 149/3/5 144/3/5 148/3/5
f 150/3/5 146/3/5 145/3/5
f 150/4/5 145/4/5 149/4/5
f 151/3/5 149/3/5 148/3/5
f 151/3/5 148/3/5 147/3/5
f 151/3/5 150/3/5 149/3/5
f 151/3/5 147/3/5 141/3/5
f 152/3/5 146/3/5 150/3/5
f 152/3/5 150/3/5 151/3/5
f 153/2/6 154/2/6 155/2/6
f 155/2/6 154/2/6 156/2/6
f 156/2/6 154/2/6 157/2/6
f 157/2/6 154/2/6 158/2/6
f 155/5/6 156/5/6 159/5/6
f 156/2/6 157/2/6 159/2/6
f 157/5/6 158/5/6 160/5/6
f 159/2/6 157/2/6 160/2/6
f 153/2/6 155/2/6 161/2/6
f 155/5/6 159/5/6 161/5/6
f 161/5/6 159/5/6 162/5/6
f 159/3/6 160/3/6 163/3/6
f 162/5/6 159/5/6 163/5/6
f 160/5/6 158/5/6 164/5/6
f 163/3/6 160/3/6 164/3/6
f 164/5/6 158/5/6 165/5/6
f 158/2/6 154/2/6 166/2/6
f 165/5/6 158/5/6 166/5/6
f 161/2/6 162/2/6 167/2/6
f 153/2/6 161/2/6 167/2/6
f 167/2/6 162/2/6 168/2/6
f 162/3/6 163/3/6 169/3/6
f 164/3/6 165/3/6 169/3/6
f 163/3/6 164/3/6 169/3/6
f 169/3/6 165/3/6 170/3/6
f 166/2/6 154/2/6 171/2/6
f 165/2/6 166/2/6 171/2/6
f 171/2/6 154/2/6 172/2/6
f 168/2/6 162/2/6 173/2/6
f 162/3/6 169/3/6 174/3/6
f 170/3/6 165/3/6 175/3/6
f 165/2/6 171/2/6 176/2/6
f 173/2/6 162/2/6 177/2/6
f 165/2/6 176/2/6 178/2/6
f 174/4/6 175/4/6 179/4/6
f 162/3/6 174/3/6 179/3/6
f 175/3/6 165/3/6 180/3/6
f 179/4/6 175/4/6 180/4/6
f 162/3/6 179/3/6 181/3/6
f 177/2/6 162/2/6 181/2/6
f 179/3/6 180/3/6 181/3/6
f 165/2/6 178/2/6 182/2/6
f 181/3/6 180/3/6 182/3/6
f 180/3/6 165/3/6 182/3/6
f 177/2/6 181/2/6 183/2/6
f 183/2/6 181/2/6 184/2/6
f 182/2/6 178/2/6 185/2/6
f 185/2/6 178/2/6 186/2/6
f 183/2/6 184/2/6 187/2/6
f 187/2/6 184/2/6 188/2/6
f 185/2/6 186/2/6 189/2/6
f 189/2/6 186/2/6 190/2/6
f 187/2/6 188/2/6 192/2/6
f 188/3/6 189/3/6 193/3/6
f 192/2/6 188/2/6 193/2/6
f 189/2/6 190/2/6 194/2/6
f 193/3/6 189/3/6 194/3/6
f 194/2/6 190/2/6 195/2/6
f 194/2/6 195/2/6 197/2/6
f 195/2/6 196/2/6 197/2/6
f 191/2/6 192/2/6 197/2/6
f 193/2/6 194/2/6 197/2/6
f 192/2/6 193/2/6 197/2/6
f 197/2/6 196/2/6 198/2/6
f 199/5/6 200/5/6 201/5/6
f 201/5/6 200/5/6 202/5/6
f 203/5/6 204/5/6 207/5/6
f 207/5/6 204/5/6 208/5/6
f 205/5/6 206/5/6 209/5/6
f 209/5/6 206/5/6 210/5/6
f 211/7/6 212/7/6 213/7/6
f 213/7/6 212/7/6 214/7/6
f 213/6/6 214/6/6 215/6/6
f 215/6/6 214/6/6 216/6/6
