# MagicaVoxel @ Ephtracy

# group
g Lv3_closet

# material
mtllib Lv3_closet.mtl
usemtl palette

# normals
vn -1 0 0
vn 1 0 0
vn 0 0 1
vn 0 0 -1
vn 0 -1 0
vn 0 1 0

# texcoords
vt 0.259766 0.5
vt 0.263672 0.5
vt 0.701172 0.5
vt 0.705078 0.5
vt 0.708984 0.5

# verts
v -10 0 5
v -10 0 -5
v -10 1 5
v -10 1 -5
v -10 2 5
v -10 2 4
v -10 2 -5
v -10 3 4
v -10 3 -5
v -10 21 4
v -10 21 3
v -10 22 4
v -10 22 3
v -10 22 -5
v -10 23 5
v -10 23 4
v -10 23 -5
v -10 24 5
v -10 24 -5
v -10 25 5
v -10 25 -5
v -3 11 5
v -3 11 4
v -3 13 5
v -3 13 4
v -3 14 5
v -3 14 4
v 1 2 4
v 1 2 3
v 1 3 4
v 1 3 3
v 1 21 4
v 1 21 3
v 1 22 4
v 1 22 3
v 1 23 4
v 1 23 3
v 2 11 5
v 2 11 4
v 2 13 5
v 2 13 4
v 2 14 5
v 2 14 4
v -2 11 5
v -2 11 4
v -2 13 5
v -2 13 4
v -2 14 5
v -2 14 4
v -1 2 4
v -1 2 3
v -1 3 4
v -1 3 3
v -1 21 4
v -1 21 3
v -1 22 4
v -1 22 3
v -1 23 4
v -1 23 3
v 3 11 5
v 3 11 4
v 3 13 5
v 3 13 4
v 3 14 5
v 3 14 4
v 10 0 5
v 10 0 -5
v 10 1 5
v 10 1 -5
v 10 2 5
v 10 2 4
v 10 2 -5
v 10 3 4
v 10 3 -5
v 10 21 4
v 10 21 -5
v 10 22 4
v 10 22 -5
v 10 23 5
v 10 23 4
v 10 23 -5
v 10 24 5
v 10 24 -5
v 10 25 5
v 10 25 -5
v -10 0 5
v -10 1 5
v -10 2 5
v -10 23 5
v -10 24 5
v -10 25 5
v -3 11 5
v -3 13 5
v -3 14 5
v -2 11 5
v -2 13 5
v -2 14 5
v 2 11 5
v 2 13 5
v 2 14 5
v 3 11 5
v 3 13 5
v 3 14 5
v 10 0 5
v 10 1 5
v 10 2 5
v 10 23 5
v 10 24 5
v 10 25 5
v -10 2 4
v -10 3 4
v -10 21 4
v -10 22 4
v -10 23 4
v -3 11 4
v -3 13 4
v -3 14 4
v -2 11 4
v -2 13 4
v -2 14 4
v -1 2 4
v -1 3 4
v -1 21 4
v -1 22 4
v -1 23 4
v 1 2 4
v 1 3 4
v 1 21 4
v 1 22 4
v 1 23 4
v 2 11 4
v 2 13 4
v 2 14 4
v 3 11 4
v 3 13 4
v 3 14 4
v 10 2 4
v 10 3 4
v 10 21 4
v 10 22 4
v 10 23 4
v -1 2 3
v -1 3 3
v -1 21 3
v -1 22 3
v -1 23 3
v 1 2 3
v 1 3 3
v 1 21 3
v 1 22 3
v 1 23 3
v -10 0 -5
v -10 1 -5
v -10 2 -5
v -10 3 -5
v -10 22 -5
v -10 23 -5
v -10 24 -5
v -10 25 -5
v 9 21 -5
v 9 22 -5
v 10 0 -5
v 10 1 -5
v 10 2 -5
v 10 3 -5
v 10 21 -5
v 10 22 -5
v 10 23 -5
v 10 24 -5
v 10 25 -5
v -10 0 5
v 10 0 5
v -10 0 -5
v 10 0 -5
v -3 11 5
v -2 11 5
v 2 11 5
v 3 11 5
v -3 11 4
v -2 11 4
v 2 11 4
v 3 11 4
v -10 23 5
v 10 23 5
v -10 23 4
v -1 23 4
v 1 23 4
v 10 23 4
v -1 23 3
v 1 23 3
v -10 2 5
v 10 2 5
v -10 2 4
v -1 2 4
v 1 2 4
v 10 2 4
v -1 2 3
v 1 2 3
v -3 14 5
v -2 14 5
v 2 14 5
v 3 14 5
v -3 14 4
v -2 14 4
v 2 14 4
v 3 14 4
v -10 25 5
v 10 25 5
v -10 25 -5
v 10 25 -5

# faces
f 3/4/1 2/4/1 1/4/1
f 4/4/1 2/4/1 3/4/1
f 5/3/1 4/3/1 3/3/1
f 6/3/1 4/3/1 5/3/1
f 7/3/1 4/3/1 6/3/1
f 8/5/1 7/5/1 6/5/1
f 9/5/1 7/5/1 8/5/1
f 10/4/1 9/4/1 8/4/1
f 11/4/1 9/4/1 10/4/1
f 12/3/1 11/3/1 10/3/1
f 13/4/1 9/4/1 11/4/1
f 13/3/1 11/3/1 12/3/1
f 14/4/1 9/4/1 13/4/1
f 16/5/1 13/5/1 12/5/1
f 16/5/1 14/5/1 13/5/1
f 17/5/1 14/5/1 16/5/1
f 18/4/1 16/4/1 15/4/1
f 18/4/1 17/4/1 16/4/1
f 19/4/1 17/4/1 18/4/1
f 20/3/1 19/3/1 18/3/1
f 21/3/1 19/3/1 20/3/1
f 24/2/1 23/2/1 22/2/1
f 25/2/1 23/2/1 24/2/1
f 26/1/1 25/1/1 24/1/1
f 27/1/1 25/1/1 26/1/1
f 30/5/1 29/5/1 28/5/1
f 31/5/1 29/5/1 30/5/1
f 32/4/1 31/4/1 30/4/1
f 33/4/1 31/4/1 32/4/1
f 34/3/1 33/3/1 32/3/1
f 35/3/1 33/3/1 34/3/1
f 36/5/1 35/5/1 34/5/1
f 37/5/1 35/5/1 36/5/1
f 40/2/1 39/2/1 38/2/1
f 41/2/1 39/2/1 40/2/1
f 42/1/1 41/1/1 40/1/1
f 43/1/1 41/1/1 42/1/1
f 44/2/2 45/2/2 46/2/2
f 46/2/2 45/2/2 47/2/2
f 46/1/2 47/1/2 48/1/2
f 48/1/2 47/1/2 49/1/2
f 50/5/2 51/5/2 52/5/2
f 52/5/2 51/5/2 53/5/2
f 52/4/2 53/4/2 54/4/2
f 54/4/2 53/4/2 55/4/2
f 54/3/2 55/3/2 56/3/2
f 56/3/2 55/3/2 57/3/2
f 56/5/2 57/5/2 58/5/2
f 58/5/2 57/5/2 59/5/2
f 60/2/2 61/2/2 62/2/2
f 62/2/2 61/2/2 63/2/2
f 62/1/2 63/1/2 64/1/2
f 64/1/2 63/1/2 65/1/2
f 66/4/2 67/4/2 68/4/2
f 68/4/2 67/4/2 69/4/2
f 68/3/2 69/3/2 70/3/2
f 70/3/2 69/3/2 71/3/2
f 71/3/2 69/3/2 72/3/2
f 71/5/2 72/5/2 73/5/2
f 73/5/2 72/5/2 74/5/2
f 73/4/2 74/4/2 75/4/2
f 75/4/2 74/4/2 76/4/2
f 75/3/2 76/3/2 77/3/2
f 77/3/2 76/3/2 78/3/2
f 77/5/2 78/5/2 80/5/2
f 80/5/2 78/5/2 81/5/2
f 79/4/2 80/4/2 82/4/2
f 80/4/2 81/4/2 82/4/2
f 82/4/2 81/4/2 83/4/2
f 82/3/2 83/3/2 84/3/2
f 84/3/2 83/3/2 85/3/2
f 95/2/3 93/2/3 92/2/3
f 96/1/3 94/1/3 93/1/3
f 96/2/3 93/2/3 95/2/3
f 97/1/3 94/1/3 96/1/3
f 101/2/3 99/2/3 98/2/3
f 102/1/3 100/1/3 99/1/3
f 102/2/3 99/2/3 101/2/3
f 103/1/3 100/1/3 102/1/3
f 104/4/3 87/4/3 86/4/3
f 105/3/3 88/3/3 87/3/3
f 105/4/3 87/4/3 104/4/3
f 106/3/3 88/3/3 105/3/3
f 107/4/3 90/4/3 89/4/3
f 108/3/3 91/3/3 90/3/3
f 108/4/3 90/4/3 107/4/3
f 109/3/3 91/3/3 108/3/3
f 115/4/3 112/4/3 111/4/3
f 116/4/3 112/4/3 115/4/3
f 117/4/3 112/4/3 116/4/3
f 118/4/3 115/4/3 111/4/3
f 120/4/3 112/4/3 117/4/3
f 121/5/3 111/5/3 110/5/3
f 122/4/3 120/4/3 119/4/3
f 122/5/3 111/5/3 121/5/3
f 122/4/3 119/4/3 118/4/3
f 122/4/3 118/4/3 111/4/3
f 123/3/3 113/3/3 112/3/3
f 123/4/3 120/4/3 122/4/3
f 123/4/3 112/4/3 120/4/3
f 124/5/3 114/5/3 113/5/3
f 124/3/3 113/3/3 123/3/3
f 125/5/3 114/5/3 124/5/3
f 131/4/3 128/4/3 127/4/3
f 132/4/3 128/4/3 131/4/3
f 133/4/3 128/4/3 132/4/3
f 134/4/3 131/4/3 127/4/3
f 136/4/3 128/4/3 133/4/3
f 137/5/3 127/5/3 126/5/3
f 138/4/3 136/4/3 135/4/3
f 138/5/3 127/5/3 137/5/3
f 138/4/3 135/4/3 134/4/3
f 138/4/3 134/4/3 127/4/3
f 139/3/3 129/3/3 128/3/3
f 139/4/3 136/4/3 138/4/3
f 139/4/3 128/4/3 136/4/3
f 140/5/3 130/5/3 129/5/3
f 140/3/3 129/3/3 139/3/3
f 141/5/3 130/5/3 140/5/3
f 147/5/3 143/5/3 142/5/3
f 147/5/3 146/5/3 145/5/3
f 147/5/3 145/5/3 144/5/3
f 147/5/3 144/5/3 143/5/3
f 148/5/3 146/5/3 147/5/3
f 149/5/3 146/5/3 148/5/3
f 150/5/3 146/5/3 149/5/3
f 151/5/3 146/5/3 150/5/3
f 155/4/4 156/4/4 160/4/4
f 156/5/4 157/5/4 161/5/4
f 160/4/4 156/4/4 161/4/4
f 152/4/4 153/4/4 162/4/4
f 153/3/4 154/3/4 163/3/4
f 162/4/4 153/4/4 163/4/4
f 154/5/4 155/5/4 164/5/4
f 163/3/4 154/3/4 164/3/4
f 155/4/4 160/4/4 165/4/4
f 164/5/4 155/5/4 165/5/4
f 160/3/4 161/3/4 166/3/4
f 165/4/4 160/4/4 166/4/4
f 161/5/4 157/5/4 167/5/4
f 166/3/4 161/3/4 167/3/4
f 157/4/4 158/4/4 168/4/4
f 167/5/4 157/5/4 168/5/4
f 158/3/4 159/3/4 169/3/4
f 168/4/4 158/4/4 169/4/4
f 169/3/4 159/3/4 170/3/4
f 173/4/5 172/4/5 171/4/5
f 174/4/5 172/4/5 173/4/5
f 179/2/5 176/2/5 175/2/5
f 180/2/5 176/2/5 179/2/5
f 181/2/5 178/2/5 177/2/5
f 182/2/5 178/2/5 181/2/5
f 185/4/5 184/4/5 183/4/5
f 186/4/5 184/4/5 185/4/5
f 187/4/5 184/4/5 186/4/5
f 188/4/5 184/4/5 187/4/5
f 189/4/5 187/4/5 186/4/5
f 190/4/5 187/4/5 189/4/5
f 191/3/6 192/3/6 193/3/6
f 193/3/6 192/3/6 194/3/6
f 194/3/6 192/3/6 195/3/6
f 195/3/6 192/3/6 196/3/6
f 194/3/6 195/3/6 197/3/6
f 197/3/6 195/3/6 198/3/6
f 199/1/6 200/1/6 203/1/6
f 203/1/6 200/1/6 204/1/6
f 201/1/6 202/1/6 205/1/6
f 205/1/6 202/1/6 206/1/6
f 207/3/6 208/3/6 209/3/6
f 209/3/6 208/3/6 210/3/6
