# MagicaVoxel @ Ephtracy

# group
g LV3_barbell

# material
mtllib LV3_barbell.mtl
usemtl palette

# normals
vn -1 0 0
vn 1 0 0
vn 0 0 1
vn 0 0 -1
vn 0 -1 0
vn 0 1 0

# texcoords
vt 0.259766 0.5
vt 0.263672 0.5
vt 0.267578 0.5

# verts
v -10 4 1
v -10 4 -1
v -10 5 1
v -10 5 -0
v -10 6 1
v -10 6 -0
v -10 6 -1
v -9 0 3
v -9 0 -3
v -9 1 4
v -9 1 3
v -9 1 -3
v -9 1 -4
v -9 2 5
v -9 2 4
v -9 2 3
v -9 2 -3
v -9 2 -4
v -9 2 -5
v -9 8 5
v -9 8 4
v -9 8 3
v -9 8 -3
v -9 8 -4
v -9 8 -5
v -9 9 4
v -9 9 3
v -9 9 -3
v -9 9 -4
v -9 10 3
v -9 10 -3
v -8 1 3
v -8 1 -3
v -8 2 4
v -8 2 3
v -8 2 -3
v -8 2 -4
v -8 4 1
v -8 4 -1
v -8 6 1
v -8 6 -1
v -8 8 4
v -8 8 3
v -8 8 -3
v -8 8 -4
v -8 9 3
v -8 9 -3
v 6 0 3
v 6 0 -3
v 6 1 4
v 6 1 3
v 6 1 -3
v 6 1 -4
v 6 2 5
v 6 2 4
v 6 2 3
v 6 2 -3
v 6 2 -4
v 6 2 -5
v 6 8 5
v 6 8 4
v 6 8 3
v 6 8 -3
v 6 8 -4
v 6 8 -5
v 6 9 4
v 6 9 3
v 6 9 -3
v 6 9 -4
v 6 10 3
v 6 10 -3
v 7 1 3
v 7 1 -3
v 7 2 4
v 7 2 3
v 7 2 -3
v 7 2 -4
v 7 4 1
v 7 4 -1
v 7 6 1
v 7 6 -1
v 7 8 4
v 7 8 3
v 7 8 -3
v 7 8 -4
v 7 9 3
v 7 9 -3
v -7 1 3
v -7 1 -3
v -7 2 4
v -7 2 3
v -7 2 -3
v -7 2 -4
v -7 4 1
v -7 4 -1
v -7 6 1
v -7 6 -1
v -7 8 4
v -7 8 3
v -7 8 -3
v -7 8 -4
v -7 9 3
v -7 9 -3
v -6 0 3
v -6 0 -3
v -6 1 4
v -6 1 3
v -6 1 -3
v -6 1 -4
v -6 2 5
v -6 2 4
v -6 2 3
v -6 2 -3
v -6 2 -4
v -6 2 -5
v -6 8 5
v -6 8 4
v -6 8 3
v -6 8 -3
v -6 8 -4
v -6 8 -5
v -6 9 4
v -6 9 3
v -6 9 -3
v -6 9 -4
v -6 10 3
v -6 10 -3
v 8 1 3
v 8 1 -3
v 8 2 4
v 8 2 3
v 8 2 -3
v 8 2 -4
v 8 4 1
v 8 4 -1
v 8 6 1
v 8 6 -1
v 8 8 4
v 8 8 3
v 8 8 -3
v 8 8 -4
v 8 9 3
v 8 9 -3
v 9 0 3
v 9 0 -3
v 9 1 4
v 9 1 3
v 9 1 -3
v 9 1 -4
v 9 2 5
v 9 2 4
v 9 2 3
v 9 2 -3
v 9 2 -4
v 9 2 -5
v 9 8 5
v 9 8 4
v 9 8 3
v 9 8 -3
v 9 8 -4
v 9 8 -5
v 9 9 4
v 9 9 3
v 9 9 -3
v 9 9 -4
v 9 10 3
v 9 10 -3
v 10 4 1
v 10 4 -1
v 10 5 1
v 10 5 -0
v 10 6 1
v 10 6 -0
v 10 6 -1
v -9 2 5
v -9 8 5
v -6 2 5
v -6 8 5
v 6 2 5
v 6 8 5
v 9 2 5
v 9 8 5
v -9 1 4
v -9 2 4
v -9 8 4
v -9 9 4
v -6 1 4
v -6 2 4
v -6 8 4
v -6 9 4
v 6 1 4
v 6 2 4
v 6 8 4
v 6 9 4
v 9 1 4
v 9 2 4
v 9 8 4
v 9 9 4
v -9 0 3
v -9 1 3
v -9 9 3
v -9 10 3
v -6 0 3
v -6 1 3
v -6 9 3
v -6 10 3
v 6 0 3
v 6 1 3
v 6 9 3
v 6 10 3
v 9 0 3
v 9 1 3
v 9 9 3
v 9 10 3
v -10 4 1
v -10 5 1
v -10 6 1
v -9 4 1
v -9 5 1
v -9 6 1
v -8 4 1
v -8 6 1
v -7 4 1
v -7 6 1
v -6 4 1
v -6 5 1
v -6 6 1
v 6 4 1
v 6 5 1
v 6 6 1
v 7 4 1
v 7 6 1
v 8 4 1
v 8 6 1
v 9 4 1
v 9 5 1
v 9 6 1
v 10 4 1
v 10 5 1
v 10 6 1
v -9 1 -3
v -9 2 -3
v -9 8 -3
v -9 9 -3
v -8 1 -3
v -8 2 -3
v -8 8 -3
v -8 9 -3
v -7 1 -3
v -7 2 -3
v -7 8 -3
v -7 9 -3
v -6 1 -3
v -6 2 -3
v -6 8 -3
v -6 9 -3
v 6 1 -3
v 6 2 -3
v 6 8 -3
v 6 9 -3
v 7 1 -3
v 7 2 -3
v 7 8 -3
v 7 9 -3
v 8 1 -3
v 8 2 -3
v 8 8 -3
v 8 9 -3
v 9 1 -3
v 9 2 -3
v 9 8 -3
v 9 9 -3
v -9 2 -4
v -9 8 -4
v -8 2 -4
v -8 8 -4
v -7 2 -4
v -7 8 -4
v -6 2 -4
v -6 8 -4
v 6 2 -4
v 6 8 -4
v 7 2 -4
v 7 8 -4
v 8 2 -4
v 8 8 -4
v 9 2 -4
v 9 8 -4
v -9 2 4
v -9 8 4
v -8 2 4
v -8 8 4
v -7 2 4
v -7 8 4
v -6 2 4
v -6 8 4
v 6 2 4
v 6 8 4
v 7 2 4
v 7 8 4
v 8 2 4
v 8 8 4
v 9 2 4
v 9 8 4
v -9 1 3
v -9 2 3
v -9 8 3
v -9 9 3
v -8 1 3
v -8 2 3
v -8 8 3
v -8 9 3
v -7 1 3
v -7 2 3
v -7 8 3
v -7 9 3
v -6 1 3
v -6 2 3
v -6 8 3
v -6 9 3
v 6 1 3
v 6 2 3
v 6 8 3
v 6 9 3
v 7 1 3
v 7 2 3
v 7 8 3
v 7 9 3
v 8 1 3
v 8 2 3
v 8 8 3
v 8 9 3
v 9 1 3
v 9 2 3
v 9 8 3
v 9 9 3
v -10 4 -1
v -10 6 -1
v -9 4 -1
v -9 6 -1
v -8 4 -1
v -8 6 -1
v -7 4 -1
v -7 6 -1
v -6 4 -1
v -6 6 -1
v 6 4 -1
v 6 6 -1
v 7 4 -1
v 7 6 -1
v 8 4 -1
v 8 6 -1
v 9 4 -1
v 9 6 -1
v 10 4 -1
v 10 6 -1
v -9 0 -3
v -9 1 -3
v -9 9 -3
v -9 10 -3
v -6 0 -3
v -6 1 -3
v -6 9 -3
v -6 10 -3
v 6 0 -3
v 6 1 -3
v 6 9 -3
v 6 10 -3
v 9 0 -3
v 9 1 -3
v 9 9 -3
v 9 10 -3
v -9 1 -4
v -9 2 -4
v -9 8 -4
v -9 9 -4
v -6 1 -4
v -6 2 -4
v -6 8 -4
v -6 9 -4
v 6 1 -4
v 6 2 -4
v 6 8 -4
v 6 9 -4
v 9 1 -4
v 9 2 -4
v 9 8 -4
v 9 9 -4
v -9 2 -5
v -9 8 -5
v -6 2 -5
v -6 8 -5
v 6 2 -5
v 6 8 -5
v 9 2 -5
v 9 8 -5
v -9 0 3
v -6 0 3
v 6 0 3
v 9 0 3
v -9 0 -3
v -6 0 -3
v 6 0 -3
v 9 0 -3
v -9 1 4
v -6 1 4
v 6 1 4
v 9 1 4
v -9 1 3
v -6 1 3
v 6 1 3
v 9 1 3
v -9 1 -3
v -6 1 -3
v 6 1 -3
v 9 1 -3
v -9 1 -4
v -6 1 -4
v 6 1 -4
v 9 1 -4
v -9 2 5
v -6 2 5
v 6 2 5
v 9 2 5
v -9 2 4
v -6 2 4
v 6 2 4
v 9 2 4
v -9 2 -4
v -6 2 -4
v 6 2 -4
v 9 2 -4
v -9 2 -5
v -6 2 -5
v 6 2 -5
v 9 2 -5
v -10 4 1
v -9 4 1
v -8 4 1
v -7 4 1
v -6 4 1
v 6 4 1
v 7 4 1
v 8 4 1
v 9 4 1
v 10 4 1
v -10 4 -1
v -9 4 -1
v -8 4 -1
v -7 4 -1
v -6 4 -1
v 6 4 -1
v 7 4 -1
v 8 4 -1
v 9 4 -1
v 10 4 -1
v -9 8 4
v -8 8 4
v -7 8 4
v -6 8 4
v 6 8 4
v 7 8 4
v 8 8 4
v 9 8 4
v -9 8 3
v -8 8 3
v -7 8 3
v -6 8 3
v 6 8 3
v 7 8 3
v 8 8 3
v 9 8 3
v -9 8 -3
v -8 8 -3
v -7 8 -3
v -6 8 -3
v 6 8 -3
v 7 8 -3
v 8 8 -3
v 9 8 -3
v -9 8 -4
v -8 8 -4
v -7 8 -4
v -6 8 -4
v 6 8 -4
v 7 8 -4
v 8 8 -4
v 9 8 -4
v -9 9 3
v -8 9 3
v -7 9 3
v -6 9 3
v 6 9 3
v 7 9 3
v 8 9 3
v 9 9 3
v -9 9 -3
v -8 9 -3
v -7 9 -3
v -6 9 -3
v 6 9 -3
v 7 9 -3
v 8 9 -3
v 9 9 -3
v -9 1 3
v -8 1 3
v -7 1 3
v -6 1 3
v 6 1 3
v 7 1 3
v 8 1 3
v 9 1 3
v -9 1 -3
v -8 1 -3
v -7 1 -3
v -6 1 -3
v 6 1 -3
v 7 1 -3
v 8 1 -3
v 9 1 -3
v -9 2 4
v -8 2 4
v -7 2 4
v -6 2 4
v 6 2 4
v 7 2 4
v 8 2 4
v 9 2 4
v -9 2 3
v -8 2 3
v -7 2 3
v -6 2 3
v 6 2 3
v 7 2 3
v 8 2 3
v 9 2 3
v -9 2 -3
v -8 2 -3
v -7 2 -3
v -6 2 -3
v 6 2 -3
v 7 2 -3
v 8 2 -3
v 9 2 -3
v -9 2 -4
v -8 2 -4
v -7 2 -4
v -6 2 -4
v 6 2 -4
v 7 2 -4
v 8 2 -4
v 9 2 -4
v -10 6 1
v -9 6 1
v -8 6 1
v -7 6 1
v -6 6 1
v 6 6 1
v 7 6 1
v 8 6 1
v 9 6 1
v 10 6 1
v -10 6 -0
v -9 6 -0
v -6 6 -0
v 6 6 -0
v 9 6 -0
v 10 6 -0
v -10 6 -1
v -9 6 -1
v -8 6 -1
v -7 6 -1
v -6 6 -1
v 6 6 -1
v 7 6 -1
v 8 6 -1
v 9 6 -1
v 10 6 -1
v -9 8 5
v -6 8 5
v 6 8 5
v 9 8 5
v -9 8 4
v -6 8 4
v 6 8 4
v 9 8 4
v -9 8 -4
v -6 8 -4
v 6 8 -4
v 9 8 -4
v -9 8 -5
v -6 8 -5
v 6 8 -5
v 9 8 -5
v -9 9 4
v -6 9 4
v 6 9 4
v 9 9 4
v -9 9 3
v -6 9 3
v 6 9 3
v 9 9 3
v -9 9 -3
v -6 9 -3
v 6 9 -3
v 9 9 -3
v -9 9 -4
v -6 9 -4
v 6 9 -4
v 9 9 -4
v -9 10 3
v -6 10 3
v 6 10 3
v 9 10 3
v -9 10 -3
v -6 10 -3
v 6 10 -3
v 9 10 -3

# faces
f 3/2/1 2/2/1 1/2/1
f 4/2/1 2/2/1 3/2/1
f 5/1/1 4/1/1 3/1/1
f 6/2/1 2/2/1 4/2/1
f 6/1/1 4/1/1 5/1/1
f 7/2/1 2/2/1 6/2/1
f 11/2/1 9/2/1 8/2/1
f 12/2/1 9/2/1 11/2/1
f 15/2/1 11/2/1 10/2/1
f 16/2/1 11/2/1 15/2/1
f 17/2/1 13/2/1 12/2/1
f 18/2/1 13/2/1 17/2/1
f 20/2/1 15/2/1 14/2/1
f 21/2/1 15/2/1 20/2/1
f 24/2/1 19/2/1 18/2/1
f 25/2/1 19/2/1 24/2/1
f 26/2/1 22/2/1 21/2/1
f 27/2/1 22/2/1 26/2/1
f 28/2/1 24/2/1 23/2/1
f 29/2/1 24/2/1 28/2/1
f 30/2/1 28/2/1 27/2/1
f 31/2/1 28/2/1 30/2/1
f 35/3/1 33/3/1 32/3/1
f 36/3/1 33/3/1 35/3/1
f 38/3/1 35/3/1 34/3/1
f 38/3/1 37/3/1 36/3/1
f 38/3/1 36/3/1 35/3/1
f 39/3/1 37/3/1 38/3/1
f 40/3/1 38/3/1 34/3/1
f 41/3/1 37/3/1 39/3/1
f 42/3/1 40/3/1 34/3/1
f 42/3/1 41/3/1 40/3/1
f 43/3/1 41/3/1 42/3/1
f 44/3/1 37/3/1 41/3/1
f 44/3/1 41/3/1 43/3/1
f 45/3/1 37/3/1 44/3/1
f 46/3/1 44/3/1 43/3/1
f 47/3/1 44/3/1 46/3/1
f 51/2/1 49/2/1 48/2/1
f 52/2/1 49/2/1 51/2/1
f 55/2/1 51/2/1 50/2/1
f 56/2/1 51/2/1 55/2/1
f 57/2/1 53/2/1 52/2/1
f 58/2/1 53/2/1 57/2/1
f 60/2/1 55/2/1 54/2/1
f 61/2/1 55/2/1 60/2/1
f 64/2/1 59/2/1 58/2/1
f 65/2/1 59/2/1 64/2/1
f 66/2/1 62/2/1 61/2/1
f 67/2/1 62/2/1 66/2/1
f 68/2/1 64/2/1 63/2/1
f 69/2/1 64/2/1 68/2/1
f 70/2/1 68/2/1 67/2/1
f 71/2/1 68/2/1 70/2/1
f 75/3/1 73/3/1 72/3/1
f 76/3/1 73/3/1 75/3/1
f 78/3/1 75/3/1 74/3/1
f 78/3/1 77/3/1 76/3/1
f 78/3/1 76/3/1 75/3/1
f 79/3/1 77/3/1 78/3/1
f 80/3/1 78/3/1 74/3/1
f 81/3/1 77/3/1 79/3/1
f 82/3/1 80/3/1 74/3/1
f 82/3/1 81/3/1 80/3/1
f 83/3/1 81/3/1 82/3/1
f 84/3/1 77/3/1 81/3/1
f 84/3/1 81/3/1 83/3/1
f 85/3/1 77/3/1 84/3/1
f 86/3/1 84/3/1 83/3/1
f 87/3/1 84/3/1 86/3/1
f 88/3/2 89/3/2 91/3/2
f 91/3/2 89/3/2 92/3/2
f 90/3/2 91/3/2 94/3/2
f 92/3/2 93/3/2 94/3/2
f 91/3/2 92/3/2 94/3/2
f 94/3/2 93/3/2 95/3/2
f 90/3/2 94/3/2 96/3/2
f 95/3/2 93/3/2 97/3/2
f 90/3/2 96/3/2 98/3/2
f 96/3/2 97/3/2 98/3/2
f 98/3/2 97/3/2 99/3/2
f 97/3/2 93/3/2 100/3/2
f 99/3/2 97/3/2 100/3/2
f 100/3/2 93/3/2 101/3/2
f 99/3/2 100/3/2 102/3/2
f 102/3/2 100/3/2 103/3/2
f 104/2/2 105/2/2 107/2/2
f 107/2/2 105/2/2 108/2/2
f 106/2/2 107/2/2 111/2/2
f 111/2/2 107/2/2 112/2/2
f 108/2/2 109/2/2 113/2/2
f 113/2/2 109/2/2 114/2/2
f 110/2/2 111/2/2 116/2/2
f 116/2/2 111/2/2 117/2/2
f 114/2/2 115/2/2 120/2/2
f 120/2/2 115/2/2 121/2/2
f 117/2/2 118/2/2 122/2/2
f 122/2/2 118/2/2 123/2/2
f 119/2/2 120/2/2 124/2/2
f 124/2/2 120/2/2 125/2/2
f 123/2/2 124/2/2 126/2/2
f 126/2/2 124/2/2 127/2/2
f 128/3/2 129/3/2 131/3/2
f 131/3/2 129/3/2 132/3/2
f 130/3/2 131/3/2 134/3/2
f 132/3/2 133/3/2 134/3/2
f 131/3/2 132/3/2 134/3/2
f 134/3/2 133/3/2 135/3/2
f 130/3/2 134/3/2 136/3/2
f 135/3/2 133/3/2 137/3/2
f 130/3/2 136/3/2 138/3/2
f 136/3/2 137/3/2 138/3/2
f 138/3/2 137/3/2 139/3/2
f 137/3/2 133/3/2 140/3/2
f 139/3/2 137/3/2 140/3/2
f 140/3/2 133/3/2 141/3/2
f 139/3/2 140/3/2 142/3/2
f 142/3/2 140/3/2 143/3/2
f 144/2/2 145/2/2 147/2/2
f 147/2/2 145/2/2 148/2/2
f 146/2/2 147/2/2 151/2/2
f 151/2/2 147/2/2 152/2/2
f 148/2/2 149/2/2 153/2/2
f 153/2/2 149/2/2 154/2/2
f 150/2/2 151/2/2 156/2/2
f 156/2/2 151/2/2 157/2/2
f 154/2/2 155/2/2 160/2/2
f 160/2/2 155/2/2 161/2/2
f 157/2/2 158/2/2 162/2/2
f 162/2/2 158/2/2 163/2/2
f 159/2/2 160/2/2 164/2/2
f 164/2/2 160/2/2 165/2/2
f 163/2/2 164/2/2 166/2/2
f 166/2/2 164/2/2 167/2/2
f 168/2/2 169/2/2 170/2/2
f 170/2/2 169/2/2 171/2/2
f 170/1/2 171/1/2 172/1/2
f 171/2/2 169/2/2 173/2/2
f 172/1/2 171/1/2 173/1/2
f 173/2/2 169/2/2 174/2/2
f 177/2/3 176/2/3 175/2/3
f 178/2/3 176/2/3 177/2/3
f 181/2/3 180/2/3 179/2/3
f 182/2/3 180/2/3 181/2/3
f 187/2/3 184/2/3 183/2/3
f 188/2/3 184/2/3 187/2/3
f 189/2/3 186/2/3 185/2/3
f 190/2/3 186/2/3 189/2/3
f 195/2/3 192/2/3 191/2/3
f 196/2/3 192/2/3 195/2/3
f 197/2/3 194/2/3 193/2/3
f 198/2/3 194/2/3 197/2/3
f 203/2/3 200/2/3 199/2/3
f 204/2/3 200/2/3 203/2/3
f 205/2/3 202/2/3 201/2/3
f 206/2/3 202/2/3 205/2/3
f 211/2/3 208/2/3 207/2/3
f 212/2/3 208/2/3 211/2/3
f 213/2/3 210/2/3 209/2/3
f 214/2/3 210/2/3 213/2/3
f 218/2/3 216/2/3 215/2/3
f 219/1/3 217/1/3 216/1/3
f 219/2/3 216/2/3 218/2/3
f 220/1/3 217/1/3 219/1/3
f 221/3/3 219/3/3 218/3/3
f 221/3/3 220/3/3 219/3/3
f 222/3/3 220/3/3 221/3/3
f 225/3/3 224/3/3 223/3/3
f 226/3/3 224/3/3 225/3/3
f 227/3/3 224/3/3 226/3/3
f 228/2/3 226/2/3 225/2/3
f 229/1/3 227/1/3 226/1/3
f 229/2/3 226/2/3 228/2/3
f 230/1/3 227/1/3 229/1/3
f 231/3/3 229/3/3 228/3/3
f 231/3/3 230/3/3 229/3/3
f 232/3/3 230/3/3 231/3/3
f 235/3/3 234/3/3 233/3/3
f 236/3/3 234/3/3 235/3/3
f 237/3/3 234/3/3 236/3/3
f 238/2/3 236/2/3 235/2/3
f 239/1/3 237/1/3 236/1/3
f 239/2/3 236/2/3 238/2/3
f 240/1/3 237/1/3 239/1/3
f 245/2/3 242/2/3 241/2/3
f 246/2/3 242/2/3 245/2/3
f 247/2/3 244/2/3 243/2/3
f 248/2/3 244/2/3 247/2/3
f 253/2/3 250/2/3 249/2/3
f 254/2/3 250/2/3 253/2/3
f 255/2/3 252/2/3 251/2/3
f 256/2/3 252/2/3 255/2/3
f 261/2/3 258/2/3 257/2/3
f 262/2/3 258/2/3 261/2/3
f 263/2/3 260/2/3 259/2/3
f 264/2/3 260/2/3 263/2/3
f 269/2/3 266/2/3 265/2/3
f 270/2/3 266/2/3 269/2/3
f 271/2/3 268/2/3 267/2/3
f 272/2/3 268/2/3 271/2/3
f 275/2/3 274/2/3 273/2/3
f 276/2/3 274/2/3 275/2/3
f 279/2/3 278/2/3 277/2/3
f 280/2/3 278/2/3 279/2/3
f 283/2/3 282/2/3 281/2/3
f 284/2/3 282/2/3 283/2/3
f 287/2/3 286/2/3 285/2/3
f 288/2/3 286/2/3 287/2/3
f 289/2/4 290/2/4 291/2/4
f 291/2/4 290/2/4 292/2/4
f 293/2/4 294/2/4 295/2/4
f 295/2/4 294/2/4 296/2/4
f 297/2/4 298/2/4 299/2/4
f 299/2/4 298/2/4 300/2/4
f 301/2/4 302/2/4 303/2/4
f 303/2/4 302/2/4 304/2/4
f 305/2/4 306/2/4 309/2/4
f 309/2/4 306/2/4 310/2/4
f 307/2/4 308/2/4 311/2/4
f 311/2/4 308/2/4 312/2/4
f 313/2/4 314/2/4 317/2/4
f 317/2/4 314/2/4 318/2/4
f 315/2/4 316/2/4 319/2/4
f 319/2/4 316/2/4 320/2/4
f 321/2/4 322/2/4 325/2/4
f 325/2/4 322/2/4 326/2/4
f 323/2/4 324/2/4 327/2/4
f 327/2/4 324/2/4 328/2/4
f 329/2/4 330/2/4 333/2/4
f 333/2/4 330/2/4 334/2/4
f 331/2/4 332/2/4 335/2/4
f 335/2/4 332/2/4 336/2/4
f 337/2/4 338/2/4 339/2/4
f 339/2/4 338/2/4 340/2/4
f 339/3/4 340/3/4 341/3/4
f 341/3/4 340/3/4 342/3/4
f 343/3/4 344/3/4 345/3/4
f 345/3/4 344/3/4 346/3/4
f 345/2/4 346/2/4 347/2/4
f 347/2/4 346/2/4 348/2/4
f 347/3/4 348/3/4 349/3/4
f 349/3/4 348/3/4 350/3/4
f 351/3/4 352/3/4 353/3/4
f 353/3/4 352/3/4 354/3/4
f 353/2/4 354/2/4 355/2/4
f 355/2/4 354/2/4 356/2/4
f 357/2/4 358/2/4 361/2/4
f 361/2/4 358/2/4 362/2/4
f 359/2/4 360/2/4 363/2/4
f 363/2/4 360/2/4 364/2/4
f 365/2/4 366/2/4 369/2/4
f 369/2/4 366/2/4 370/2/4
f 367/2/4 368/2/4 371/2/4
f 371/2/4 368/2/4 372/2/4
f 373/2/4 374/2/4 377/2/4
f 377/2/4 374/2/4 378/2/4
f 375/2/4 376/2/4 379/2/4
f 379/2/4 376/2/4 380/2/4
f 381/2/4 382/2/4 385/2/4
f 385/2/4 382/2/4 386/2/4
f 383/2/4 384/2/4 387/2/4
f 387/2/4 384/2/4 388/2/4
f 389/2/4 390/2/4 391/2/4
f 391/2/4 390/2/4 392/2/4
f 393/2/4 394/2/4 395/2/4
f 395/2/4 394/2/4 396/2/4
f 401/2/5 398/2/5 397/2/5
f 402/2/5 398/2/5 401/2/5
f 403/2/5 400/2/5 399/2/5
f 404/2/5 400/2/5 403/2/5
f 409/2/5 406/2/5 405/2/5
f 410/2/5 406/2/5 409/2/5
f 411/2/5 408/2/5 407/2/5
f 412/2/5 408/2/5 411/2/5
f 417/2/5 414/2/5 413/2/5
f 418/2/5 414/2/5 417/2/5
f 419/2/5 416/2/5 415/2/5
f 420/2/5 416/2/5 419/2/5
f 425/2/5 422/2/5 421/2/5
f 426/2/5 422/2/5 425/2/5
f 427/2/5 424/2/5 423/2/5
f 428/2/5 424/2/5 427/2/5
f 433/2/5 430/2/5 429/2/5
f 434/2/5 430/2/5 433/2/5
f 435/2/5 432/2/5 431/2/5
f 436/2/5 432/2/5 435/2/5
f 447/2/5 438/2/5 437/2/5
f 448/3/5 439/3/5 438/3/5
f 448/2/5 438/2/5 447/2/5
f 449/3/5 439/3/5 448/3/5
f 450/3/5 441/3/5 440/3/5
f 451/2/5 442/2/5 441/2/5
f 451/3/5 441/3/5 450/3/5
f 452/3/5 443/3/5 442/3/5
f 452/2/5 442/2/5 451/2/5
f 453/3/5 443/3/5 452/3/5
f 454/3/5 445/3/5 444/3/5
f 455/2/5 446/2/5 445/2/5
f 455/3/5 445/3/5 454/3/5
f 456/2/5 446/2/5 455/2/5
f 465/2/5 458/2/5 457/2/5
f 466/2/5 458/2/5 465/2/5
f 467/2/5 460/2/5 459/2/5
f 468/2/5 460/2/5 467/2/5
f 469/2/5 462/2/5 461/2/5
f 470/2/5 462/2/5 469/2/5
f 471/2/5 464/2/5 463/2/5
f 472/2/5 464/2/5 471/2/5
f 481/2/5 474/2/5 473/2/5
f 482/2/5 474/2/5 481/2/5
f 483/2/5 476/2/5 475/2/5
f 484/2/5 476/2/5 483/2/5
f 485/2/5 478/2/5 477/2/5
f 486/2/5 478/2/5 485/2/5
f 487/2/5 480/2/5 479/2/5
f 488/2/5 480/2/5 487/2/5
f 497/2/5 490/2/5 489/2/5
f 498/2/5 490/2/5 497/2/5
f 499/2/5 492/2/5 491/2/5
f 500/2/5 492/2/5 499/2/5
f 501/2/5 494/2/5 493/2/5
f 502/2/5 494/2/5 501/2/5
f 503/2/5 496/2/5 495/2/5
f 504/2/5 496/2/5 503/2/5
f 505/2/6 506/2/6 513/2/6
f 513/2/6 506/2/6 514/2/6
f 507/2/6 508/2/6 515/2/6
f 515/2/6 508/2/6 516/2/6
f 509/2/6 510/2/6 517/2/6
f 517/2/6 510/2/6 518/2/6
f 511/2/6 512/2/6 519/2/6
f 519/2/6 512/2/6 520/2/6
f 521/2/6 522/2/6 529/2/6
f 529/2/6 522/2/6 530/2/6
f 523/2/6 524/2/6 531/2/6
f 531/2/6 524/2/6 532/2/6
f 525/2/6 526/2/6 533/2/6
f 533/2/6 526/2/6 534/2/6
f 527/2/6 528/2/6 535/2/6
f 535/2/6 528/2/6 536/2/6
f 537/2/6 538/2/6 545/2/6
f 545/2/6 538/2/6 546/2/6
f 539/2/6 540/2/6 547/2/6
f 547/2/6 540/2/6 548/2/6
f 541/2/6 542/2/6 549/2/6
f 549/2/6 542/2/6 550/2/6
f 543/2/6 544/2/6 551/2/6
f 551/2/6 544/2/6 552/2/6
f 553/1/6 554/1/6 563/1/6
f 554/3/6 555/3/6 564/3/6
f 563/1/6 554/1/6 564/1/6
f 556/3/6 557/3/6 565/3/6
f 557/1/6 558/1/6 565/1/6
f 558/3/6 559/3/6 566/3/6
f 565/1/6 558/1/6 566/1/6
f 561/1/6 562/1/6 567/1/6
f 560/3/6 561/3/6 567/3/6
f 567/1/6 562/1/6 568/1/6
f 563/2/6 564/2/6 569/2/6
f 564/3/6 555/3/6 570/3/6
f 569/2/6 564/2/6 570/2/6
f 570/3/6 555/3/6 571/3/6
f 556/3/6 565/3/6 572/3/6
f 565/2/6 566/2/6 573/2/6
f 572/3/6 565/3/6 573/3/6
f 566/3/6 559/3/6 574/3/6
f 573/2/6 566/2/6 574/2/6
f 574/3/6 559/3/6 575/3/6
f 560/3/6 567/3/6 576/3/6
f 567/2/6 568/2/6 577/2/6
f 576/3/6 567/3/6 577/3/6
f 577/2/6 568/2/6 578/2/6
f 579/2/6 580/2/6 583/2/6
f 583/2/6 580/2/6 584/2/6
f 581/2/6 582/2/6 585/2/6
f 585/2/6 582/2/6 586/2/6
f 587/2/6 588/2/6 591/2/6
f 591/2/6 588/2/6 592/2/6
f 589/2/6 590/2/6 593/2/6
f 593/2/6 590/2/6 594/2/6
f 595/2/6 596/2/6 599/2/6
f 599/2/6 596/2/6 600/2/6
f 597/2/6 598/2/6 601/2/6
f 601/2/6 598/2/6 602/2/6
f 603/2/6 604/2/6 607/2/6
f 607/2/6 604/2/6 608/2/6
f 605/2/6 606/2/6 609/2/6
f 609/2/6 606/2/6 610/2/6
f 611/2/6 612/2/6 615/2/6
f 615/2/6 612/2/6 616/2/6
f 613/2/6 614/2/6 617/2/6
f 617/2/6 614/2/6 618/2/6
