# MagicaVoxel @ Ephtracy

# group
g Lv3_trashcan

# material
mtllib Lv3_trashcan.mtl
usemtl palette

# normals
vn -1 0 0
vn 1 0 0
vn 0 0 1
vn 0 0 -1
vn 0 -1 0
vn 0 1 0

# texcoords
vt 0.572266 0.5
vt 0.576172 0.5
vt 0.603516 0.5
vt 0.607422 0.5

# verts
v -6 0 5
v -6 0 -5
v -6 1 5
v -6 1 -5
v -6 12 6
v -6 12 5
v -6 12 -5
v -6 12 -6
v -6 13 6
v -6 13 -6
v -6 14 6
v -6 14 -6
v -5 0 6
v -5 0 5
v -5 0 -5
v -5 0 -6
v -5 1 6
v -5 1 5
v -5 1 -5
v -5 1 -6
v -5 2 6
v -5 2 5
v -5 3 6
v -5 3 5
v -5 10 6
v -5 10 5
v -5 11 6
v -5 11 5
v -5 12 6
v -5 12 5
v -5 12 -5
v -5 12 -6
v 4 1 4
v 4 1 -4
v 4 14 4
v 4 14 -4
v -4 1 4
v -4 1 -4
v -4 14 4
v -4 14 -4
v 5 0 6
v 5 0 5
v 5 0 -5
v 5 0 -6
v 5 1 6
v 5 1 5
v 5 1 -5
v 5 1 -6
v 5 2 6
v 5 2 5
v 5 3 6
v 5 3 5
v 5 10 6
v 5 10 5
v 5 11 6
v 5 11 5
v 5 12 6
v 5 12 5
v 5 12 -5
v 5 12 -6
v 6 0 5
v 6 0 -5
v 6 1 5
v 6 1 -5
v 6 12 6
v 6 12 5
v 6 12 -5
v 6 12 -6
v 6 13 6
v 6 13 -6
v 6 14 6
v 6 14 -6
v -6 12 6
v -6 13 6
v -6 14 6
v -5 0 6
v -5 1 6
v -5 2 6
v -5 3 6
v -5 10 6
v -5 11 6
v -5 12 6
v -4 2 6
v -4 3 6
v -4 10 6
v -4 11 6
v -3 7 6
v -3 10 6
v -2 8 6
v -2 9 6
v -1 8 6
v -1 9 6
v 0 8 6
v 0 9 6
v 2 8 6
v 2 9 6
v 3 7 6
v 3 10 6
v 4 2 6
v 4 3 6
v 4 10 6
v 4 11 6
v 5 0 6
v 5 1 6
v 5 2 6
v 5 3 6
v 5 10 6
v 5 11 6
v 5 12 6
v 6 12 6
v 6 13 6
v 6 14 6
v -6 0 5
v -6 1 5
v -6 12 5
v -5 0 5
v -5 1 5
v -5 2 5
v -5 3 5
v -5 10 5
v -5 11 5
v -5 12 5
v 5 0 5
v 5 1 5
v 5 2 5
v 5 3 5
v 5 10 5
v 5 11 5
v 5 12 5
v 6 0 5
v 6 1 5
v 6 12 5
v -4 1 -4
v -4 14 -4
v 4 1 -4
v 4 14 -4
v -4 1 4
v -4 14 4
v 4 1 4
v 4 14 4
v -6 0 -5
v -6 1 -5
v -6 12 -5
v -5 0 -5
v -5 1 -5
v -5 12 -5
v 5 0 -5
v 5 1 -5
v 5 12 -5
v 6 0 -5
v 6 1 -5
v 6 12 -5
v -6 12 -6
v -6 13 -6
v -6 14 -6
v -5 0 -6
v -5 1 -6
v -5 12 -6
v 5 0 -6
v 5 1 -6
v 5 12 -6
v 6 12 -6
v 6 13 -6
v 6 14 -6
v -5 0 6
v 5 0 6
v -6 0 5
v -5 0 5
v 5 0 5
v 6 0 5
v -6 0 -5
v -5 0 -5
v 5 0 -5
v 6 0 -5
v -5 0 -6
v 5 0 -6
v -6 12 6
v -5 12 6
v 5 12 6
v 6 12 6
v -6 12 5
v -5 12 5
v 5 12 5
v 6 12 5
v -6 12 -5
v -5 12 -5
v 5 12 -5
v 6 12 -5
v -6 12 -6
v -5 12 -6
v 5 12 -6
v 6 12 -6
v -4 1 4
v 4 1 4
v -4 1 -4
v 4 1 -4
v -6 14 6
v 6 14 6
v -4 14 4
v 4 14 4
v -4 14 -4
v 4 14 -4
v -6 14 -6
v 6 14 -6

# faces
f 3/2/1 2/2/1 1/2/1
f 4/2/1 2/2/1 3/2/1
f 6/1/1 4/1/1 3/1/1
f 7/1/1 4/1/1 6/1/1
f 9/2/1 7/2/1 6/2/1
f 9/2/1 8/2/1 7/2/1
f 9/2/1 6/2/1 5/2/1
f 10/2/1 8/2/1 9/2/1
f 11/1/1 10/1/1 9/1/1
f 12/1/1 10/1/1 11/1/1
f 17/2/1 14/2/1 13/2/1
f 18/2/1 14/2/1 17/2/1
f 19/2/1 16/2/1 15/2/1
f 20/2/1 16/2/1 19/2/1
f 21/1/1 18/1/1 17/1/1
f 22/1/1 18/1/1 21/1/1
f 23/2/1 22/2/1 21/2/1
f 24/2/1 22/2/1 23/2/1
f 25/1/1 24/1/1 23/1/1
f 26/1/1 24/1/1 25/1/1
f 27/2/1 26/2/1 25/2/1
f 28/2/1 26/2/1 27/2/1
f 29/1/1 28/1/1 27/1/1
f 30/1/1 28/1/1 29/1/1
f 31/1/1 20/1/1 19/1/1
f 32/1/1 20/1/1 31/1/1
f 35/1/1 34/1/1 33/1/1
f 36/1/1 34/1/1 35/1/1
f 37/1/2 38/1/2 39/1/2
f 39/1/2 38/1/2 40/1/2
f 41/2/2 42/2/2 45/2/2
f 45/2/2 42/2/2 46/2/2
f 43/2/2 44/2/2 47/2/2
f 47/2/2 44/2/2 48/2/2
f 45/1/2 46/1/2 49/1/2
f 49/1/2 46/1/2 50/1/2
f 49/2/2 50/2/2 51/2/2
f 51/2/2 50/2/2 52/2/2
f 51/1/2 52/1/2 53/1/2
f 53/1/2 52/1/2 54/1/2
f 53/2/2 54/2/2 55/2/2
f 55/2/2 54/2/2 56/2/2
f 55/1/2 56/1/2 57/1/2
f 57/1/2 56/1/2 58/1/2
f 47/1/2 48/1/2 59/1/2
f 59/1/2 48/1/2 60/1/2
f 61/2/2 62/2/2 63/2/2
f 63/2/2 62/2/2 64/2/2
f 63/1/2 64/1/2 66/1/2
f 66/1/2 64/1/2 67/1/2
f 66/2/2 67/2/2 69/2/2
f 67/2/2 68/2/2 69/2/2
f 65/2/2 66/2/2 69/2/2
f 69/2/2 68/2/2 70/2/2
f 69/1/2 70/1/2 71/1/2
f 71/1/2 70/1/2 72/1/2
f 82/2/3 74/2/3 73/2/3
f 83/1/3 78/1/3 77/1/3
f 83/2/3 79/2/3 78/2/3
f 84/1/3 80/1/3 79/1/3
f 84/2/3 79/2/3 83/2/3
f 85/2/3 81/2/3 80/2/3
f 85/1/3 80/1/3 84/1/3
f 86/1/3 82/1/3 81/1/3
f 86/2/3 81/2/3 85/2/3
f 87/1/3 84/1/3 83/1/3
f 87/1/3 85/1/3 84/1/3
f 87/1/3 86/1/3 85/1/3
f 88/1/3 86/1/3 87/1/3
f 89/3/3 88/3/3 87/3/3
f 90/3/3 88/3/3 89/3/3
f 91/3/3 89/3/3 87/3/3
f 91/4/3 90/4/3 89/4/3
f 92/3/3 88/3/3 90/3/3
f 92/4/3 90/4/3 91/4/3
f 93/3/3 91/3/3 87/3/3
f 93/3/3 92/3/3 91/3/3
f 94/3/3 88/3/3 92/3/3
f 94/3/3 92/3/3 93/3/3
f 95/3/3 93/3/3 87/3/3
f 95/4/3 94/4/3 93/4/3
f 96/3/3 88/3/3 94/3/3
f 96/4/3 94/4/3 95/4/3
f 97/1/3 87/1/3 83/1/3
f 97/3/3 95/3/3 87/3/3
f 97/3/3 96/3/3 95/3/3
f 98/3/3 88/3/3 96/3/3
f 98/3/3 96/3/3 97/3/3
f 98/1/3 86/1/3 88/1/3
f 99/1/3 83/1/3 77/1/3
f 99/1/3 97/1/3 83/1/3
f 99/1/3 98/1/3 97/1/3
f 100/1/3 98/1/3 99/1/3
f 101/1/3 86/1/3 98/1/3
f 101/1/3 98/1/3 100/1/3
f 102/1/3 82/1/3 86/1/3
f 102/1/3 86/1/3 101/1/3
f 103/2/3 77/2/3 76/2/3
f 104/1/3 99/1/3 77/1/3
f 104/2/3 77/2/3 103/2/3
f 105/2/3 100/2/3 99/2/3
f 105/1/3 99/1/3 104/1/3
f 106/1/3 101/1/3 100/1/3
f 106/2/3 100/2/3 105/2/3
f 107/2/3 102/2/3 101/2/3
f 107/1/3 101/1/3 106/1/3
f 108/1/3 82/1/3 102/1/3
f 108/2/3 102/2/3 107/2/3
f 109/2/3 74/2/3 82/2/3
f 109/1/3 82/1/3 108/1/3
f 110/2/3 74/2/3 109/2/3
f 111/1/3 75/1/3 74/1/3
f 111/2/3 74/2/3 110/2/3
f 112/1/3 75/1/3 111/1/3
f 116/2/3 114/2/3 113/2/3
f 117/1/3 115/1/3 114/1/3
f 117/2/3 114/2/3 116/2/3
f 118/1/3 115/1/3 117/1/3
f 119/1/3 115/1/3 118/1/3
f 120/1/3 115/1/3 119/1/3
f 121/1/3 115/1/3 120/1/3
f 122/1/3 115/1/3 121/1/3
f 130/2/3 124/2/3 123/2/3
f 131/1/3 129/1/3 128/1/3
f 131/2/3 124/2/3 130/2/3
f 131/1/3 125/1/3 124/1/3
f 131/1/3 128/1/3 127/1/3
f 131/1/3 127/1/3 126/1/3
f 131/1/3 126/1/3 125/1/3
f 132/1/3 129/1/3 131/1/3
f 135/1/3 134/1/3 133/1/3
f 136/1/3 134/1/3 135/1/3
f 137/1/4 138/1/4 139/1/4
f 139/1/4 138/1/4 140/1/4
f 141/2/4 142/2/4 144/2/4
f 142/1/4 143/1/4 145/1/4
f 144/2/4 142/2/4 145/2/4
f 145/1/4 143/1/4 146/1/4
f 147/2/4 148/2/4 150/2/4
f 148/1/4 149/1/4 151/1/4
f 150/2/4 148/2/4 151/2/4
f 151/1/4 149/1/4 152/1/4
f 153/2/4 154/2/4 158/2/4
f 156/2/4 157/2/4 159/2/4
f 157/1/4 158/1/4 160/1/4
f 159/2/4 157/2/4 160/2/4
f 158/2/4 154/2/4 161/2/4
f 160/1/4 158/1/4 161/1/4
f 161/2/4 154/2/4 162/2/4
f 154/1/4 155/1/4 163/1/4
f 162/2/4 154/2/4 163/2/4
f 163/1/4 155/1/4 164/1/4
f 168/2/5 166/2/5 165/2/5
f 169/2/5 166/2/5 168/2/5
f 171/2/5 168/2/5 167/2/5
f 171/2/5 170/2/5 169/2/5
f 171/2/5 169/2/5 168/2/5
f 172/2/5 170/2/5 171/2/5
f 173/2/5 170/2/5 172/2/5
f 174/2/5 170/2/5 173/2/5
f 175/2/5 173/2/5 172/2/5
f 176/2/5 173/2/5 175/2/5
f 181/2/5 178/2/5 177/2/5
f 182/2/5 178/2/5 181/2/5
f 183/2/5 180/2/5 179/2/5
f 184/2/5 180/2/5 183/2/5
f 189/2/5 186/2/5 185/2/5
f 190/2/5 186/2/5 189/2/5
f 191/2/5 188/2/5 187/2/5
f 192/2/5 188/2/5 191/2/5
f 193/2/6 194/2/6 195/2/6
f 195/2/6 194/2/6 196/2/6
f 197/1/6 198/1/6 199/1/6
f 199/1/6 198/1/6 200/1/6
f 197/1/6 199/1/6 201/1/6
f 200/1/6 198/1/6 202/1/6
f 197/1/6 201/1/6 203/1/6
f 201/1/6 202/1/6 203/1/6
f 202/1/6 198/1/6 204/1/6
f 203/1/6 202/1/6 204/1/6
