# MagicaVoxel @ Ephtracy

# group
g Lv3_wideTV

# material
mtllib Lv3_wideTV.mtl
usemtl palette

# normals
vn -1 0 0
vn 1 0 0
vn 0 0 1
vn 0 0 -1
vn 0 -1 0
vn 0 1 0

# texcoords
vt 0.259766 0.5
vt 0.263672 0.5
vt 0.267578 0.5
vt 0.564453 0.5
vt 0.568359 0.5
vt 0.572266 0.5

# verts
v -15 3 2
v -15 3 -0
v -15 3 -1
v -15 15 2
v -15 15 -0
v -15 15 -1
v -11 3 -1
v -11 3 -2
v -11 15 -1
v -11 15 -2
v -9 5 -2
v -9 5 -3
v -9 14 -2
v -9 14 -3
v -5 0 5
v -5 0 -5
v -5 1 5
v -5 1 -5
v -2 1 1
v -2 1 -1
v -2 3 1
v -2 3 -1
v 2 0 5
v 2 0 1
v 2 1 5
v 2 1 1
v 9 6 2
v 9 6 1
v 9 9 1
v 9 11 1
v 9 14 2
v 9 14 1
v -9 6 2
v -9 6 1
v -9 9 1
v -9 11 1
v -9 14 2
v -9 14 1
v -2 0 5
v -2 0 1
v -2 1 5
v -2 1 1
v 2 1 1
v 2 1 -1
v 2 3 1
v 2 3 -1
v 5 0 5
v 5 0 -5
v 5 1 5
v 5 1 -5
v 9 5 -2
v 9 5 -3
v 9 14 -2
v 9 14 -3
v 11 3 -1
v 11 3 -2
v 11 15 -1
v 11 15 -2
v 15 3 2
v 15 3 -0
v 15 3 -1
v 15 15 2
v 15 15 -0
v 15 15 -1
v -5 0 5
v -5 1 5
v -2 0 5
v -2 1 5
v 2 0 5
v 2 1 5
v 5 0 5
v 5 1 5
v -15 3 2
v -15 15 2
v -14 4 2
v -14 14 2
v -12 4 2
v -12 14 2
v -11 3 2
v -11 15 2
v -10 3 2
v -10 15 2
v -9 3 2
v -9 5 2
v -9 6 2
v -9 14 2
v 9 3 2
v 9 5 2
v 9 6 2
v 9 14 2
v 10 3 2
v 10 15 2
v 11 3 2
v 11 15 2
v 12 4 2
v 12 14 2
v 14 4 2
v 14 14 2
v 15 3 2
v 15 15 2
v -9 6 1
v -9 9 1
v -9 11 1
v -9 14 1
v -8 6 1
v -8 7 1
v -8 9 1
v -8 10 1
v -8 11 1
v -8 12 1
v -7 7 1
v -7 8 1
v -7 10 1
v -7 11 1
v -7 12 1
v -7 13 1
v -6 8 1
v -6 9 1
v -6 11 1
v -6 12 1
v -6 13 1
v -6 14 1
v -5 9 1
v -5 10 1
v -5 12 1
v -5 13 1
v -4 10 1
v -4 11 1
v -4 13 1
v -4 14 1
v -3 11 1
v -3 12 1
v -2 0 1
v -2 1 1
v -2 3 1
v -2 12 1
v -2 13 1
v -1 13 1
v -1 14 1
v 1 6 1
v 1 7 1
v 2 0 1
v 2 1 1
v 2 3 1
v 2 7 1
v 2 8 1
v 3 8 1
v 3 9 1
v 4 6 1
v 4 7 1
v 4 9 1
v 4 10 1
v 5 7 1
v 5 8 1
v 5 10 1
v 5 11 1
v 6 6 1
v 6 7 1
v 6 8 1
v 6 9 1
v 6 11 1
v 6 12 1
v 7 7 1
v 7 8 1
v 7 9 1
v 7 10 1
v 7 12 1
v 7 13 1
v 8 8 1
v 8 9 1
v 8 10 1
v 8 11 1
v 8 13 1
v 8 14 1
v 9 6 1
v 9 9 1
v 9 11 1
v 9 14 1
v -15 3 -1
v -15 15 -1
v -11 3 -1
v -11 15 -1
v -2 1 -1
v -2 3 -1
v 2 1 -1
v 2 3 -1
v 11 3 -1
v 11 15 -1
v 15 3 -1
v 15 15 -1
v -11 3 -2
v -11 15 -2
v -9 5 -2
v -9 14 -2
v 9 5 -2
v 9 14 -2
v 11 3 -2
v 11 15 -2
v -9 5 -3
v -9 14 -3
v 9 5 -3
v 9 14 -3
v -5 0 -5
v -5 1 -5
v 5 0 -5
v 5 1 -5
v -5 0 5
v -2 0 5
v 2 0 5
v 5 0 5
v -2 0 1
v 2 0 1
v -2 0 -0
v 2 0 -0
v -5 0 -5
v 5 0 -5
v -15 3 2
v -11 3 2
v -10 3 2
v -9 3 2
v 9 3 2
v 10 3 2
v 11 3 2
v 15 3 2
v -10 3 1
v -9 3 1
v -2 3 1
v 2 3 1
v 9 3 1
v 10 3 1
v -15 3 -0
v -11 3 -0
v 11 3 -0
v 15 3 -0
v -15 3 -1
v -11 3 -1
v -2 3 -1
v 2 3 -1
v 11 3 -1
v 15 3 -1
v -11 3 -2
v 11 3 -2
v -9 5 -2
v 9 5 -2
v -9 5 -3
v 9 5 -3
v -9 14 2
v 9 14 2
v -9 14 1
v -6 14 1
v -4 14 1
v -1 14 1
v 8 14 1
v 9 14 1
v -5 1 5
v -2 1 5
v 2 1 5
v 5 1 5
v -2 1 1
v 2 1 1
v -2 1 -1
v 2 1 -1
v -5 1 -5
v 5 1 -5
v -9 6 2
v 9 6 2
v -9 6 1
v -8 6 1
v 1 6 1
v 4 6 1
v 6 6 1
v 9 6 1
v -9 14 -2
v 9 14 -2
v -9 14 -3
v 9 14 -3
v -15 15 2
v -11 15 2
v -10 15 2
v 10 15 2
v 11 15 2
v 15 15 2
v -10 15 1
v 10 15 1
v -15 15 -0
v -11 15 -0
v 11 15 -0
v 15 15 -0
v -15 15 -1
v -11 15 -1
v 11 15 -1
v 15 15 -1
v -11 15 -2
v 11 15 -2

# faces
f 4/2/1 2/2/1 1/2/1
f 5/3/1 3/3/1 2/3/1
f 5/2/1 2/2/1 4/2/1
f 6/3/1 3/3/1 5/3/1
f 9/3/1 8/3/1 7/3/1
f 10/3/1 8/3/1 9/3/1
f 13/3/1 12/3/1 11/3/1
f 14/3/1 12/3/1 13/3/1
f 17/2/1 16/2/1 15/2/1
f 18/2/1 16/2/1 17/2/1
f 21/3/1 20/3/1 19/3/1
f 22/3/1 20/3/1 21/3/1
f 25/2/1 24/2/1 23/2/1
f 26/2/1 24/2/1 25/2/1
f 29/2/1 28/2/1 27/2/1
f 30/2/1 29/2/1 27/2/1
f 31/2/1 30/2/1 27/2/1
f 32/2/1 30/2/1 31/2/1
f 33/2/2 34/2/2 35/2/2
f 33/2/2 35/2/2 36/2/2
f 33/2/2 36/2/2 37/2/2
f 37/2/2 36/2/2 38/2/2
f 39/2/2 40/2/2 41/2/2
f 41/2/2 40/2/2 42/2/2
f 43/3/2 44/3/2 45/3/2
f 45/3/2 44/3/2 46/3/2
f 47/2/2 48/2/2 49/2/2
f 49/2/2 48/2/2 50/2/2
f 51/3/2 52/3/2 53/3/2
f 53/3/2 52/3/2 54/3/2
f 55/3/2 56/3/2 57/3/2
f 57/3/2 56/3/2 58/3/2
f 59/2/2 60/2/2 62/2/2
f 60/3/2 61/3/2 63/3/2
f 62/2/2 60/2/2 63/2/2
f 63/3/2 61/3/2 64/3/2
f 67/2/3 66/2/3 65/2/3
f 68/2/3 66/2/3 67/2/3
f 71/2/3 70/2/3 69/2/3
f 72/2/3 70/2/3 71/2/3
f 75/2/3 74/2/3 73/2/3
f 76/2/3 74/2/3 75/2/3
f 77/2/3 75/2/3 73/2/3
f 77/3/3 76/3/3 75/3/3
f 78/2/3 74/2/3 76/2/3
f 78/3/3 76/3/3 77/3/3
f 79/2/3 77/2/3 73/2/3
f 79/2/3 78/2/3 77/2/3
f 80/2/3 74/2/3 78/2/3
f 80/2/3 78/2/3 79/2/3
f 81/3/3 80/3/3 79/3/3
f 82/3/3 80/3/3 81/3/3
f 83/2/3 82/2/3 81/2/3
f 84/2/3 82/2/3 83/2/3
f 85/2/3 82/2/3 84/2/3
f 86/2/3 82/2/3 85/2/3
f 87/1/3 84/1/3 83/1/3
f 88/2/3 85/2/3 84/2/3
f 88/1/3 84/1/3 87/1/3
f 89/2/3 85/2/3 88/2/3
f 90/2/3 82/2/3 86/2/3
f 91/2/3 89/2/3 88/2/3
f 91/2/3 90/2/3 89/2/3
f 91/2/3 88/2/3 87/2/3
f 92/2/3 82/2/3 90/2/3
f 92/2/3 90/2/3 91/2/3
f 93/3/3 92/3/3 91/3/3
f 94/3/3 92/3/3 93/3/3
f 95/2/3 94/2/3 93/2/3
f 96/2/3 94/2/3 95/2/3
f 97/2/3 95/2/3 93/2/3
f 97/3/3 96/3/3 95/3/3
f 98/2/3 94/2/3 96/2/3
f 98/3/3 96/3/3 97/3/3
f 99/2/3 97/2/3 93/2/3
f 99/2/3 98/2/3 97/2/3
f 100/2/3 94/2/3 98/2/3
f 100/2/3 98/2/3 99/2/3
f 105/4/3 102/4/3 101/4/3
f 106/4/3 102/4/3 105/4/3
f 107/5/3 103/5/3 102/5/3
f 107/4/3 102/4/3 106/4/3
f 108/5/3 103/5/3 107/5/3
f 109/4/3 104/4/3 103/4/3
f 109/5/3 103/5/3 108/5/3
f 110/4/3 104/4/3 109/4/3
f 111/4/3 108/4/3 107/4/3
f 111/5/3 106/5/3 105/5/3
f 111/4/3 107/4/3 106/4/3
f 112/4/3 108/4/3 111/4/3
f 113/5/3 110/5/3 109/5/3
f 113/4/3 108/4/3 112/4/3
f 113/5/3 109/5/3 108/5/3
f 114/5/3 110/5/3 113/5/3
f 115/4/3 104/4/3 110/4/3
f 115/5/3 110/5/3 114/5/3
f 116/4/3 104/4/3 115/4/3
f 117/4/3 114/4/3 113/4/3
f 117/5/3 112/5/3 111/5/3
f 117/4/3 113/4/3 112/4/3
f 118/4/3 114/4/3 117/4/3
f 119/5/3 116/5/3 115/5/3
f 119/4/3 114/4/3 118/4/3
f 119/5/3 115/5/3 114/5/3
f 120/5/3 116/5/3 119/5/3
f 121/4/3 104/4/3 116/4/3
f 121/5/3 116/5/3 120/5/3
f 122/4/3 104/4/3 121/4/3
f 123/4/3 120/4/3 119/4/3
f 123/5/3 118/5/3 117/5/3
f 123/4/3 119/4/3 118/4/3
f 124/4/3 120/4/3 123/4/3
f 125/5/3 122/5/3 121/5/3
f 125/4/3 120/4/3 124/4/3
f 125/5/3 121/5/3 120/5/3
f 126/5/3 122/5/3 125/5/3
f 127/5/3 124/5/3 123/5/3
f 127/4/3 125/4/3 124/4/3
f 127/4/3 126/4/3 125/4/3
f 128/4/3 126/4/3 127/4/3
f 129/5/3 122/5/3 126/5/3
f 129/4/3 126/4/3 128/4/3
f 130/5/3 122/5/3 129/5/3
f 131/5/3 128/5/3 127/5/3
f 131/4/3 129/4/3 128/4/3
f 131/4/3 130/4/3 129/4/3
f 132/4/3 130/4/3 131/4/3
f 136/5/3 132/5/3 131/5/3
f 136/4/3 130/4/3 132/4/3
f 137/4/3 130/4/3 136/4/3
f 138/5/3 137/5/3 136/5/3
f 138/4/3 130/4/3 137/4/3
f 139/4/3 130/4/3 138/4/3
f 140/5/3 111/5/3 105/5/3
f 140/5/3 117/5/3 111/5/3
f 140/5/3 139/5/3 138/5/3
f 140/5/3 138/5/3 136/5/3
f 140/5/3 136/5/3 131/5/3
f 140/5/3 123/5/3 117/5/3
f 140/5/3 127/5/3 123/5/3
f 140/5/3 131/5/3 127/5/3
f 141/5/3 139/5/3 140/5/3
f 142/3/3 134/3/3 133/3/3
f 142/3/3 135/3/3 134/3/3
f 143/3/3 135/3/3 142/3/3
f 144/3/3 135/3/3 143/3/3
f 145/5/3 139/5/3 141/5/3
f 145/6/3 141/6/3 140/6/3
f 146/5/3 139/5/3 145/5/3
f 147/5/3 139/5/3 146/5/3
f 147/6/3 146/6/3 145/6/3
f 148/5/3 139/5/3 147/5/3
f 149/6/3 145/6/3 140/6/3
f 149/6/3 147/6/3 145/6/3
f 149/6/3 148/6/3 147/6/3
f 150/6/3 148/6/3 149/6/3
f 151/5/3 139/5/3 148/5/3
f 151/6/3 148/6/3 150/6/3
f 152/5/3 139/5/3 151/5/3
f 153/5/3 150/5/3 149/5/3
f 153/6/3 151/6/3 150/6/3
f 153/6/3 152/6/3 151/6/3
f 154/6/3 152/6/3 153/6/3
f 155/5/3 139/5/3 152/5/3
f 155/6/3 152/6/3 154/6/3
f 156/5/3 139/5/3 155/5/3
f 157/5/3 154/5/3 153/5/3
f 157/5/3 153/5/3 149/5/3
f 158/5/3 154/5/3 157/5/3
f 159/6/3 156/6/3 155/6/3
f 159/5/3 154/5/3 158/5/3
f 159/6/3 155/6/3 154/6/3
f 160/6/3 156/6/3 159/6/3
f 161/5/3 139/5/3 156/5/3
f 161/6/3 156/6/3 160/6/3
f 162/5/3 139/5/3 161/5/3
f 163/5/3 160/5/3 159/5/3
f 163/6/3 158/6/3 157/6/3
f 163/5/3 159/5/3 158/5/3
f 164/5/3 160/5/3 163/5/3
f 165/6/3 162/6/3 161/6/3
f 165/5/3 160/5/3 164/5/3
f 165/6/3 161/6/3 160/6/3
f 166/6/3 162/6/3 165/6/3
f 167/5/3 139/5/3 162/5/3
f 167/6/3 162/6/3 166/6/3
f 168/5/3 139/5/3 167/5/3
f 169/5/3 166/5/3 165/5/3
f 169/6/3 164/6/3 163/6/3
f 169/5/3 165/5/3 164/5/3
f 170/5/3 166/5/3 169/5/3
f 171/6/3 168/6/3 167/6/3
f 171/5/3 166/5/3 170/5/3
f 171/6/3 167/6/3 166/6/3
f 172/6/3 168/6/3 171/6/3
f 173/5/3 139/5/3 168/5/3
f 173/6/3 168/6/3 172/6/3
f 174/5/3 139/5/3 173/5/3
f 175/6/3 170/6/3 169/6/3
f 175/6/3 163/6/3 157/6/3
f 175/6/3 169/6/3 163/6/3
f 176/5/3 172/5/3 171/5/3
f 176/6/3 170/6/3 175/6/3
f 176/5/3 171/5/3 170/5/3
f 177/6/3 174/6/3 173/6/3
f 177/5/3 172/5/3 176/5/3
f 177/6/3 173/6/3 172/6/3
f 178/6/3 174/6/3 177/6/3
f 179/3/4 180/3/4 181/3/4
f 181/3/4 180/3/4 182/3/4
f 183/3/4 184/3/4 185/3/4
f 185/3/4 184/3/4 186/3/4
f 187/3/4 188/3/4 189/3/4
f 189/3/4 188/3/4 190/3/4
f 191/3/4 192/3/4 193/3/4
f 193/3/4 192/3/4 194/3/4
f 191/3/4 193/3/4 195/3/4
f 194/3/4 192/3/4 196/3/4
f 191/3/4 195/3/4 197/3/4
f 195/3/4 196/3/4 197/3/4
f 196/3/4 192/3/4 198/3/4
f 197/3/4 196/3/4 198/3/4
f 199/3/4 200/3/4 201/3/4
f 201/3/4 200/3/4 202/3/4
f 203/2/4 204/2/4 205/2/4
f 205/2/4 204/2/4 206/2/4
f 211/2/5 208/2/5 207/2/5
f 212/2/5 210/2/5 209/2/5
f 213/2/5 211/2/5 207/2/5
f 213/3/5 212/3/5 211/3/5
f 214/2/5 210/2/5 212/2/5
f 214/3/5 212/3/5 213/3/5
f 215/2/5 213/2/5 207/2/5
f 215/2/5 214/2/5 213/2/5
f 216/2/5 210/2/5 214/2/5
f 216/2/5 214/2/5 215/2/5
f 225/3/5 219/3/5 218/3/5
f 225/2/5 220/2/5 219/2/5
f 226/1/5 221/1/5 220/1/5
f 226/2/5 220/2/5 225/2/5
f 227/1/5 221/1/5 226/1/5
f 228/1/5 221/1/5 227/1/5
f 229/2/5 222/2/5 221/2/5
f 229/1/5 221/1/5 228/1/5
f 230/3/5 223/3/5 222/3/5
f 230/2/5 222/2/5 229/2/5
f 231/2/5 218/2/5 217/2/5
f 232/3/5 225/3/5 218/3/5
f 232/2/5 218/2/5 231/2/5
f 232/3/5 226/3/5 225/3/5
f 232/3/5 227/3/5 226/3/5
f 233/3/5 223/3/5 230/3/5
f 233/2/5 224/2/5 223/2/5
f 233/3/5 229/3/5 228/3/5
f 233/3/5 230/3/5 229/3/5
f 234/2/5 224/2/5 233/2/5
f 235/3/5 232/3/5 231/3/5
f 236/3/5 227/3/5 232/3/5
f 236/3/5 232/3/5 235/3/5
f 237/3/5 227/3/5 236/3/5
f 238/3/5 233/3/5 228/3/5
f 238/3/5 234/3/5 233/3/5
f 239/3/5 234/3/5 238/3/5
f 240/3/5 234/3/5 239/3/5
f 241/3/5 237/3/5 236/3/5
f 241/3/5 239/3/5 238/3/5
f 241/3/5 238/3/5 237/3/5
f 242/3/5 239/3/5 241/3/5
f 245/3/5 244/3/5 243/3/5
f 246/3/5 244/3/5 245/3/5
f 249/2/5 248/2/5 247/2/5
f 250/2/5 248/2/5 249/2/5
f 251/2/5 248/2/5 250/2/5
f 252/2/5 248/2/5 251/2/5
f 253/2/5 248/2/5 252/2/5
f 254/2/5 248/2/5 253/2/5
f 255/2/6 256/2/6 259/2/6
f 257/2/6 258/2/6 260/2/6
f 255/2/6 259/2/6 261/2/6
f 260/2/6 258/2/6 262/2/6
f 255/2/6 261/2/6 263/2/6
f 261/2/6 262/2/6 263/2/6
f 262/2/6 258/2/6 264/2/6
f 263/2/6 262/2/6 264/2/6
f 265/2/6 266/2/6 267/2/6
f 267/2/6 266/2/6 268/2/6
f 268/2/6 266/2/6 269/2/6
f 269/2/6 266/2/6 270/2/6
f 270/2/6 266/2/6 271/2/6
f 271/2/6 266/2/6 272/2/6
f 273/3/6 274/3/6 275/3/6
f 275/3/6 274/3/6 276/3/6
f 278/3/6 279/3/6 283/3/6
f 279/2/6 280/2/6 283/2/6
f 280/3/6 281/3/6 284/3/6
f 283/2/6 280/2/6 284/2/6
f 277/2/6 278/2/6 285/2/6
f 278/3/6 283/3/6 286/3/6
f 285/2/6 278/2/6 286/2/6
f 283/3/6 284/3/6 286/3/6
f 284/3/6 281/3/6 287/3/6
f 286/3/6 284/3/6 287/3/6
f 281/2/6 282/2/6 287/2/6
f 287/2/6 282/2/6 288/2/6
f 285/3/6 286/3/6 289/3/6
f 286/3/6 287/3/6 289/3/6
f 287/3/6 288/3/6 289/3/6
f 289/3/6 288/3/6 290/3/6
f 290/3/6 288/3/6 291/3/6
f 291/3/6 288/3/6 292/3/6
f 290/3/6 291/3/6 293/3/6
f 293/3/6 291/3/6 294/3/6
