# MagicaVoxel @ Ephtracy

# group
g Lv4_sofa

# material
mtllib Lv4_sofa.mtl
usemtl palette

# normals
vn -1 0 0
vn 1 0 0
vn 0 0 1
vn 0 0 -1
vn 0 -1 0
vn 0 1 0

# texcoords
vt 0.267578 0.5
vt 0.701172 0.5
vt 0.705078 0.5
vt 0.708984 0.5

# verts
v -15 2 9
v -15 2 -9
v -15 8 9
v -15 8 8
v -15 9 9
v -15 9 8
v -15 9 -9
v -14 0 8
v -14 0 6
v -14 0 -6
v -14 0 -8
v -14 2 8
v -14 2 6
v -14 2 -6
v -14 2 -8
v -12 9 -3
v -12 9 -8
v -12 14 -3
v -12 14 -4
v -12 15 -3
v -12 15 -4
v -12 15 -8
v -4 5 7
v -4 5 6
v -4 6 7
v -4 6 6
v -4 6 -4
v -4 7 7
v -4 7 6
v -4 7 -3
v -4 7 -4
v -4 8 -3
v -4 8 -4
v -4 14 -3
v -4 14 -4
v -4 14 -7
v -4 15 -3
v -4 15 -4
v -4 15 -7
v 5 5 7
v 5 5 6
v 5 6 7
v 5 6 6
v 5 6 -4
v 5 7 7
v 5 7 6
v 5 7 -3
v 5 7 -4
v 5 8 -3
v 5 8 -4
v 5 14 -3
v 5 14 -4
v 5 14 -7
v 5 15 -3
v 5 15 -4
v 5 15 -7
v 12 0 8
v 12 0 6
v 12 0 -6
v 12 0 -8
v 12 2 9
v 12 2 8
v 12 2 6
v 12 2 -6
v 12 2 -8
v 12 2 -9
v 12 5 7
v 12 5 6
v 12 6 7
v 12 7 7
v 12 7 6
v 12 7 -3
v 12 8 9
v 12 8 8
v 12 8 -3
v 12 9 9
v 12 9 8
v 12 9 -3
v 12 9 -8
v 12 9 -9
v -12 0 8
v -12 0 6
v -12 0 -6
v -12 0 -8
v -12 2 9
v -12 2 8
v -12 2 6
v -12 2 -6
v -12 2 -8
v -12 2 -9
v -12 5 7
v -12 5 6
v -12 6 7
v -12 7 7
v -12 7 6
v -12 7 -3
v -12 8 9
v -12 8 8
v -12 8 -3
v -12 9 9
v -12 9 8
v -12 9 -3
v -12 9 -8
v -12 9 -9
v -5 5 7
v -5 5 6
v -5 6 7
v -5 6 6
v -5 6 -4
v -5 7 7
v -5 7 6
v -5 7 -3
v -5 7 -4
v -5 8 -3
v -5 8 -4
v -5 14 -3
v -5 14 -4
v -5 14 -7
v -5 15 -3
v -5 15 -4
v -5 15 -7
v 4 5 7
v 4 5 6
v 4 6 7
v 4 6 6
v 4 6 -4
v 4 7 7
v 4 7 6
v 4 7 -3
v 4 7 -4
v 4 8 -3
v 4 8 -4
v 4 14 -3
v 4 14 -4
v 4 14 -7
v 4 15 -3
v 4 15 -4
v 4 15 -7
v 12 9 -3
v 12 9 -8
v 12 14 -3
v 12 14 -4
v 12 15 -3
v 12 15 -4
v 12 15 -8
v 14 0 8
v 14 0 6
v 14 0 -6
v 14 0 -8
v 14 2 8
v 14 2 6
v 14 2 -6
v 14 2 -8
v 15 2 9
v 15 2 -9
v 15 8 9
v 15 8 8
v 15 9 9
v 15 9 8
v 15 9 -9
v -15 2 9
v -15 8 9
v -15 9 9
v -12 2 9
v -12 8 9
v -12 9 9
v 12 2 9
v 12 8 9
v 12 9 9
v 15 2 9
v 15 8 9
v 15 9 9
v -14 0 8
v -14 2 8
v -12 0 8
v -12 2 8
v 12 0 8
v 12 2 8
v 14 0 8
v 14 2 8
v -12 5 7
v -12 6 7
v -12 7 7
v -5 5 7
v -5 6 7
v -5 7 7
v -4 5 7
v -4 6 7
v -4 7 7
v 4 5 7
v 4 6 7
v 4 7 7
v 5 5 7
v 5 6 7
v 5 7 7
v 12 5 7
v 12 6 7
v 12 7 7
v -12 2 6
v -12 5 6
v -11 2 6
v -11 4 6
v -5 5 6
v -5 6 6
v -4 5 6
v -4 6 6
v 4 5 6
v 4 6 6
v 5 5 6
v 5 6 6
v 11 2 6
v 11 4 6
v 12 2 6
v 12 5 6
v -12 7 -3
v -12 8 -3
v -12 9 -3
v -12 14 -3
v -12 15 -3
v -5 7 -3
v -5 8 -3
v -5 14 -3
v -5 15 -3
v -4 7 -3
v -4 8 -3
v -4 14 -3
v -4 15 -3
v 4 7 -3
v 4 8 -3
v 4 14 -3
v 4 15 -3
v 5 7 -3
v 5 8 -3
v 5 14 -3
v 5 15 -3
v 12 7 -3
v 12 8 -3
v 12 9 -3
v 12 14 -3
v 12 15 -3
v -5 6 -4
v -5 7 -4
v -5 8 -4
v -5 14 -4
v -4 6 -4
v -4 7 -4
v -4 8 -4
v -4 14 -4
v 4 6 -4
v 4 7 -4
v 4 8 -4
v 4 14 -4
v 5 6 -4
v 5 7 -4
v 5 8 -4
v 5 14 -4
v -14 0 -6
v -14 2 -6
v -12 0 -6
v -12 2 -6
v 12 0 -6
v 12 2 -6
v 14 0 -6
v 14 2 -6
v -5 14 -7
v -5 15 -7
v -4 14 -7
v -4 15 -7
v 4 14 -7
v 4 15 -7
v 5 14 -7
v 5 15 -7
v -14 0 6
v -14 2 6
v -12 0 6
v -12 2 6
v 12 0 6
v 12 2 6
v 14 0 6
v 14 2 6
v -14 0 -8
v -14 2 -8
v -12 0 -8
v -12 2 -8
v -12 9 -8
v -12 15 -8
v 12 0 -8
v 12 2 -8
v 12 9 -8
v 12 15 -8
v 14 0 -8
v 14 2 -8
v -15 2 -9
v -15 9 -9
v -12 2 -9
v -12 9 -9
v 12 2 -9
v 12 9 -9
v 15 2 -9
v 15 9 -9
v -14 0 8
v -12 0 8
v 12 0 8
v 14 0 8
v -14 0 6
v -12 0 6
v 12 0 6
v 14 0 6
v -14 0 -6
v -12 0 -6
v 12 0 -6
v 14 0 -6
v -14 0 -8
v -12 0 -8
v 12 0 -8
v 14 0 -8
v -15 2 9
v -12 2 9
v 12 2 9
v 15 2 9
v -14 2 8
v -12 2 8
v 12 2 8
v 14 2 8
v -14 2 6
v -12 2 6
v -11 2 6
v 11 2 6
v 12 2 6
v 14 2 6
v -12 2 5
v -11 2 5
v 11 2 5
v 12 2 5
v -14 2 -6
v -12 2 -6
v 12 2 -6
v 14 2 -6
v -14 2 -8
v -12 2 -8
v 12 2 -8
v 14 2 -8
v -15 2 -9
v -12 2 -9
v 12 2 -9
v 15 2 -9
v -12 5 7
v -5 5 7
v -4 5 7
v 4 5 7
v 5 5 7
v 12 5 7
v -12 5 6
v -5 5 6
v -4 5 6
v 4 5 6
v 5 5 6
v 12 5 6
v -5 6 6
v -4 6 6
v 4 6 6
v 5 6 6
v -5 6 -4
v -4 6 -4
v 4 6 -4
v 5 6 -4
v -12 7 7
v -5 7 7
v -4 7 7
v 4 7 7
v 5 7 7
v 12 7 7
v -12 7 6
v -5 7 6
v -4 7 6
v 4 7 6
v 5 7 6
v 12 7 6
v -12 7 -3
v -5 7 -3
v -4 7 -3
v 4 7 -3
v 5 7 -3
v 12 7 -3
v -15 9 9
v -12 9 9
v 12 9 9
v 15 9 9
v -15 9 8
v -12 9 8
v 12 9 8
v 15 9 8
v -12 9 -3
v 12 9 -3
v -12 9 -8
v 12 9 -8
v -15 9 -9
v -12 9 -9
v 12 9 -9
v 15 9 -9
v -5 14 -4
v -4 14 -4
v 4 14 -4
v 5 14 -4
v -5 14 -7
v -4 14 -7
v 4 14 -7
v 5 14 -7
v -12 15 -3
v -5 15 -3
v -4 15 -3
v 4 15 -3
v 5 15 -3
v 12 15 -3
v -12 15 -4
v -5 15 -4
v -4 15 -4
v 4 15 -4
v 5 15 -4
v 12 15 -4
v -5 15 -7
v -4 15 -7
v 4 15 -7
v 5 15 -7
v -12 15 -8
v 12 15 -8

# faces
f 3/3/1 2/3/1 1/3/1
f 4/3/1 2/3/1 3/3/1
f 5/2/1 4/2/1 3/2/1
f 6/3/1 2/3/1 4/3/1
f 6/2/1 4/2/1 5/2/1
f 7/3/1 2/3/1 6/3/1
f 12/1/1 9/1/1 8/1/1
f 13/1/1 9/1/1 12/1/1
f 14/1/1 11/1/1 10/1/1
f 15/1/1 11/1/1 14/1/1
f 18/3/1 17/3/1 16/3/1
f 19/3/1 17/3/1 18/3/1
f 20/2/1 19/2/1 18/2/1
f 21/3/1 17/3/1 19/3/1
f 21/2/1 19/2/1 20/2/1
f 22/3/1 17/3/1 21/3/1
f 25/3/1 24/3/1 23/3/1
f 26/3/1 24/3/1 25/3/1
f 28/2/1 26/2/1 25/2/1
f 29/3/1 27/3/1 26/3/1
f 29/2/1 26/2/1 28/2/1
f 30/3/1 27/3/1 29/3/1
f 31/3/1 27/3/1 30/3/1
f 32/4/1 31/4/1 30/4/1
f 33/4/1 31/4/1 32/4/1
f 34/3/1 33/3/1 32/3/1
f 35/3/1 33/3/1 34/3/1
f 37/2/1 35/2/1 34/2/1
f 38/3/1 36/3/1 35/3/1
f 38/2/1 35/2/1 37/2/1
f 39/3/1 36/3/1 38/3/1
f 42/3/1 41/3/1 40/3/1
f 43/3/1 41/3/1 42/3/1
f 45/2/1 43/2/1 42/2/1
f 46/3/1 44/3/1 43/3/1
f 46/2/1 43/2/1 45/2/1
f 47/3/1 44/3/1 46/3/1
f 48/3/1 44/3/1 47/3/1
f 49/4/1 48/4/1 47/4/1
f 50/4/1 48/4/1 49/4/1
f 51/3/1 50/3/1 49/3/1
f 52/3/1 50/3/1 51/3/1
f 54/2/1 52/2/1 51/2/1
f 55/3/1 53/3/1 52/3/1
f 55/2/1 52/2/1 54/2/1
f 56/3/1 53/3/1 55/3/1
f 62/1/1 58/1/1 57/1/1
f 63/1/1 58/1/1 62/1/1
f 64/1/1 60/1/1 59/1/1
f 65/1/1 60/1/1 64/1/1
f 67/3/1 63/3/1 62/3/1
f 67/3/1 62/3/1 61/3/1
f 68/3/1 63/3/1 67/3/1
f 69/3/1 67/3/1 61/3/1
f 70/3/1 69/3/1 61/3/1
f 73/3/1 71/3/1 70/3/1
f 73/3/1 72/3/1 71/3/1
f 73/3/1 70/3/1 61/3/1
f 74/3/1 72/3/1 73/3/1
f 75/3/1 72/3/1 74/3/1
f 76/2/1 74/2/1 73/2/1
f 77/3/1 75/3/1 74/3/1
f 77/2/1 74/2/1 76/2/1
f 78/3/1 75/3/1 77/3/1
f 79/3/1 66/3/1 65/3/1
f 80/3/1 66/3/1 79/3/1
f 81/1/2 82/1/2 86/1/2
f 86/1/2 82/1/2 87/1/2
f 83/1/2 84/1/2 88/1/2
f 88/1/2 84/1/2 89/1/2
f 86/3/2 87/3/2 91/3/2
f 85/3/2 86/3/2 91/3/2
f 91/3/2 87/3/2 92/3/2
f 85/3/2 91/3/2 93/3/2
f 85/3/2 93/3/2 94/3/2
f 94/3/2 95/3/2 97/3/2
f 95/3/2 96/3/2 97/3/2
f 85/3/2 94/3/2 97/3/2
f 97/3/2 96/3/2 98/3/2
f 98/3/2 96/3/2 99/3/2
f 97/2/2 98/2/2 100/2/2
f 98/3/2 99/3/2 101/3/2
f 100/2/2 98/2/2 101/2/2
f 101/3/2 99/3/2 102/3/2
f 89/3/2 90/3/2 103/3/2
f 103/3/2 90/3/2 104/3/2
f 105/3/2 106/3/2 107/3/2
f 107/3/2 106/3/2 108/3/2
f 107/2/2 108/2/2 110/2/2
f 108/3/2 109/3/2 111/3/2
f 110/2/2 108/2/2 111/2/2
f 111/3/2 109/3/2 112/3/2
f 112/3/2 109/3/2 113/3/2
f 112/4/2 113/4/2 114/4/2
f 114/4/2 113/4/2 115/4/2
f 114/3/2 115/3/2 116/3/2
f 116/3/2 115/3/2 117/3/2
f 116/2/2 117/2/2 119/2/2
f 117/3/2 118/3/2 120/3/2
f 119/2/2 117/2/2 120/2/2
f 120/3/2 118/3/2 121/3/2
f 122/3/2 123/3/2 124/3/2
f 124/3/2 123/3/2 125/3/2
f 124/2/2 125/2/2 127/2/2
f 125/3/2 126/3/2 128/3/2
f 127/2/2 125/2/2 128/2/2
f 128/3/2 126/3/2 129/3/2
f 129/3/2 126/3/2 130/3/2
f 129/4/2 130/4/2 131/4/2
f 131/4/2 130/4/2 132/4/2
f 131/3/2 132/3/2 133/3/2
f 133/3/2 132/3/2 134/3/2
f 133/2/2 134/2/2 136/2/2
f 134/3/2 135/3/2 137/3/2
f 136/2/2 134/2/2 137/2/2
f 137/3/2 135/3/2 138/3/2
f 139/3/2 140/3/2 141/3/2
f 141/3/2 140/3/2 142/3/2
f 141/2/2 142/2/2 143/2/2
f 142/3/2 140/3/2 144/3/2
f 143/2/2 142/2/2 144/2/2
f 144/3/2 140/3/2 145/3/2
f 146/1/2 147/1/2 150/1/2
f 150/1/2 147/1/2 151/1/2
f 148/1/2 149/1/2 152/1/2
f 152/1/2 149/1/2 153/1/2
f 154/3/2 155/3/2 156/3/2
f 156/3/2 155/3/2 157/3/2
f 156/2/2 157/2/2 158/2/2
f 157/3/2 155/3/2 159/3/2
f 158/2/2 157/2/2 159/2/2
f 159/3/2 155/3/2 160/3/2
f 164/3/3 162/3/3 161/3/3
f 165/2/3 163/2/3 162/2/3
f 165/3/3 162/3/3 164/3/3
f 166/2/3 163/2/3 165/2/3
f 170/3/3 168/3/3 167/3/3
f 171/2/3 169/2/3 168/2/3
f 171/3/3 168/3/3 170/3/3
f 172/2/3 169/2/3 171/2/3
f 175/1/3 174/1/3 173/1/3
f 176/1/3 174/1/3 175/1/3
f 179/1/3 178/1/3 177/1/3
f 180/1/3 178/1/3 179/1/3
f 184/3/3 182/3/3 181/3/3
f 185/2/3 183/2/3 182/2/3
f 185/3/3 182/3/3 184/3/3
f 186/2/3 183/2/3 185/2/3
f 190/3/3 188/3/3 187/3/3
f 191/2/3 189/2/3 188/2/3
f 191/3/3 188/3/3 190/3/3
f 192/2/3 189/2/3 191/2/3
f 196/3/3 194/3/3 193/3/3
f 197/2/3 195/2/3 194/2/3
f 197/3/3 194/3/3 196/3/3
f 198/2/3 195/2/3 197/2/3
f 201/4/3 200/4/3 199/4/3
f 202/4/3 200/4/3 201/4/3
f 203/4/3 200/4/3 202/4/3
f 205/4/3 203/4/3 202/4/3
f 205/4/3 204/4/3 203/4/3
f 206/4/3 204/4/3 205/4/3
f 207/4/3 205/4/3 202/4/3
f 209/4/3 207/4/3 202/4/3
f 209/4/3 208/4/3 207/4/3
f 210/4/3 208/4/3 209/4/3
f 211/3/3 202/3/3 201/3/3
f 212/4/3 209/4/3 202/4/3
f 212/3/3 202/3/3 211/3/3
f 213/4/3 212/4/3 211/4/3
f 214/4/3 209/4/3 212/4/3
f 214/4/3 212/4/3 213/4/3
f 220/4/3 216/4/3 215/4/3
f 221/3/3 217/3/3 216/3/3
f 221/4/3 216/4/3 220/4/3
f 221/3/3 218/3/3 217/3/3
f 222/2/3 219/2/3 218/2/3
f 222/3/3 218/3/3 221/3/3
f 223/2/3 219/2/3 222/2/3
f 228/4/3 225/4/3 224/4/3
f 229/3/3 226/3/3 225/3/3
f 229/4/3 225/4/3 228/4/3
f 230/2/3 227/2/3 226/2/3
f 230/3/3 226/3/3 229/3/3
f 231/2/3 227/2/3 230/2/3
f 236/4/3 233/4/3 232/4/3
f 237/3/3 234/3/3 233/3/3
f 237/4/3 233/4/3 236/4/3
f 238/3/3 234/3/3 237/3/3
f 239/2/3 235/2/3 234/2/3
f 239/3/3 234/3/3 238/3/3
f 240/2/3 235/2/3 239/2/3
f 245/4/3 242/4/3 241/4/3
f 245/4/3 244/4/3 243/4/3
f 245/4/3 243/4/3 242/4/3
f 246/4/3 244/4/3 245/4/3
f 247/4/3 244/4/3 246/4/3
f 248/4/3 244/4/3 247/4/3
f 253/4/3 250/4/3 249/4/3
f 253/4/3 252/4/3 251/4/3
f 253/4/3 251/4/3 250/4/3
f 254/4/3 252/4/3 253/4/3
f 255/4/3 252/4/3 254/4/3
f 256/4/3 252/4/3 255/4/3
f 259/1/3 258/1/3 257/1/3
f 260/1/3 258/1/3 259/1/3
f 263/1/3 262/1/3 261/1/3
f 264/1/3 262/1/3 263/1/3
f 267/3/3 266/3/3 265/3/3
f 268/3/3 266/3/3 267/3/3
f 271/3/3 270/3/3 269/3/3
f 272/3/3 270/3/3 271/3/3
f 273/1/4 274/1/4 275/1/4
f 275/1/4 274/1/4 276/1/4
f 277/1/4 278/1/4 279/1/4
f 279/1/4 278/1/4 280/1/4
f 281/1/4 282/1/4 283/1/4
f 283/1/4 282/1/4 284/1/4
f 285/3/4 286/3/4 288/3/4
f 284/3/4 285/3/4 288/3/4
f 288/3/4 286/3/4 289/3/4
f 289/3/4 286/3/4 290/3/4
f 287/1/4 288/1/4 291/1/4
f 291/1/4 288/1/4 292/1/4
f 293/3/4 294/3/4 295/3/4
f 295/3/4 294/3/4 296/3/4
f 297/3/4 298/3/4 299/3/4
f 299/3/4 298/3/4 300/3/4
f 305/1/5 302/1/5 301/1/5
f 306/1/5 302/1/5 305/1/5
f 307/1/5 304/1/5 303/1/5
f 308/1/5 304/1/5 307/1/5
f 313/1/5 310/1/5 309/1/5
f 314/1/5 310/1/5 313/1/5
f 315/1/5 312/1/5 311/1/5
f 316/1/5 312/1/5 315/1/5
f 321/3/5 318/3/5 317/3/5
f 322/3/5 318/3/5 321/3/5
f 323/3/5 320/3/5 319/3/5
f 324/3/5 320/3/5 323/3/5
f 325/3/5 321/3/5 317/3/5
f 330/3/5 320/3/5 324/3/5
f 331/3/5 326/3/5 325/3/5
f 331/4/5 327/4/5 326/4/5
f 332/3/5 328/3/5 327/3/5
f 332/4/5 327/4/5 331/4/5
f 333/4/5 329/4/5 328/4/5
f 333/3/5 328/3/5 332/3/5
f 334/3/5 330/3/5 329/3/5
f 334/4/5 329/4/5 333/4/5
f 335/3/5 332/3/5 331/3/5
f 335/3/5 325/3/5 317/3/5
f 335/3/5 334/3/5 333/3/5
f 335/3/5 333/3/5 332/3/5
f 335/3/5 331/3/5 325/3/5
f 336/3/5 334/3/5 335/3/5
f 337/3/5 330/3/5 334/3/5
f 337/3/5 334/3/5 336/3/5
f 338/3/5 320/3/5 330/3/5
f 338/3/5 330/3/5 337/3/5
f 339/3/5 335/3/5 317/3/5
f 340/3/5 337/3/5 336/3/5
f 341/3/5 337/3/5 340/3/5
f 342/3/5 320/3/5 338/3/5
f 343/3/5 339/3/5 317/3/5
f 343/3/5 340/3/5 339/3/5
f 344/3/5 340/3/5 343/3/5
f 345/3/5 342/3/5 341/3/5
f 346/3/5 320/3/5 342/3/5
f 346/3/5 342/3/5 345/3/5
f 353/3/5 348/3/5 347/3/5
f 354/3/5 348/3/5 353/3/5
f 355/3/5 350/3/5 349/3/5
f 356/3/5 350/3/5 355/3/5
f 357/3/5 352/3/5 351/3/5
f 358/3/5 352/3/5 357/3/5
f 359/4/6 360/4/6 363/4/6
f 363/4/6 360/4/6 364/4/6
f 361/4/6 362/4/6 365/4/6
f 365/4/6 362/4/6 366/4/6
f 367/2/6 368/2/6 373/2/6
f 373/2/6 368/2/6 374/2/6
f 369/2/6 370/2/6 375/2/6
f 375/2/6 370/2/6 376/2/6
f 371/2/6 372/2/6 377/2/6
f 377/2/6 372/2/6 378/2/6
f 373/3/6 374/3/6 379/3/6
f 379/3/6 374/3/6 380/3/6
f 375/3/6 376/3/6 381/3/6
f 381/3/6 376/3/6 382/3/6
f 377/3/6 378/3/6 383/3/6
f 383/3/6 378/3/6 384/3/6
f 385/2/6 386/2/6 389/2/6
f 389/2/6 386/2/6 390/2/6
f 387/2/6 388/2/6 391/2/6
f 391/2/6 388/2/6 392/2/6
f 389/3/6 390/3/6 393/3/6
f 391/3/6 392/3/6 394/3/6
f 389/3/6 393/3/6 395/3/6
f 394/3/6 392/3/6 396/3/6
f 389/3/6 395/3/6 397/3/6
f 397/3/6 395/3/6 398/3/6
f 396/3/6 392/3/6 399/3/6
f 399/3/6 392/3/6 400/3/6
f 401/4/6 402/4/6 405/4/6
f 405/4/6 402/4/6 406/4/6
f 403/4/6 404/4/6 407/4/6
f 407/4/6 404/4/6 408/4/6
f 409/2/6 410/2/6 415/2/6
f 415/2/6 410/2/6 416/2/6
f 411/2/6 412/2/6 417/2/6
f 417/2/6 412/2/6 418/2/6
f 413/2/6 414/2/6 419/2/6
f 419/2/6 414/2/6 420/2/6
f 415/3/6 416/3/6 421/3/6
f 417/3/6 418/3/6 422/3/6
f 422/3/6 418/3/6 423/3/6
f 419/3/6 420/3/6 424/3/6
f 415/3/6 421/3/6 425/3/6
f 423/3/6 424/3/6 425/3/6
f 422/3/6 423/3/6 425/3/6
f 421/3/6 422/3/6 425/3/6
f 424/3/6 420/3/6 426/3/6
f 425/3/6 424/3/6 426/3/6
