# MagicaVoxel @ Ephtracy

# group
g Lv4_door

# material
mtllib Lv4_door.mtl
usemtl palette

# normals
vn -1 0 0
vn 1 0 0
vn 0 0 1
vn 0 0 -1
vn 0 -1 0
vn 0 1 0

# texcoords
vt 0.419922 0.5
vt 0.423828 0.5
vt 0.701172 0.5
vt 0.708984 0.5

# verts
v -10 0 2
v -10 0 -2
v -10 30 2
v -10 30 -2
v 5 13 3
v 5 13 1
v 5 13 -1
v 5 13 -3
v 5 14 3
v 5 14 2
v 5 14 1
v 5 14 -1
v 5 14 -2
v 5 14 -3
v 5 16 3
v 5 16 2
v 5 16 1
v 5 16 -1
v 5 16 -2
v 5 16 -3
v 5 17 3
v 5 17 1
v 5 17 -1
v 5 17 -3
v 9 1 2
v 9 1 1
v 9 1 -1
v 9 1 -2
v 9 29 2
v 9 29 1
v 9 29 -1
v 9 29 -2
v -9 1 2
v -9 1 1
v -9 1 -1
v -9 1 -2
v -9 29 2
v -9 29 1
v -9 29 -1
v -9 29 -2
v 7 13 3
v 7 13 1
v 7 13 -1
v 7 13 -3
v 7 14 3
v 7 14 2
v 7 14 1
v 7 14 -1
v 7 14 -2
v 7 14 -3
v 7 16 3
v 7 16 2
v 7 16 1
v 7 16 -1
v 7 16 -2
v 7 16 -3
v 7 17 3
v 7 17 1
v 7 17 -1
v 7 17 -3
v 10 0 2
v 10 0 -2
v 10 30 2
v 10 30 -2
v 5 13 3
v 5 14 3
v 5 16 3
v 5 17 3
v 7 13 3
v 7 14 3
v 7 16 3
v 7 17 3
v -10 0 2
v -10 30 2
v -9 1 2
v -9 29 2
v 9 1 2
v 9 29 2
v 10 0 2
v 10 30 2
v -9 1 1
v -9 29 1
v -8 2 1
v -8 28 1
v 5 13 1
v 5 14 1
v 5 16 1
v 5 17 1
v 7 13 1
v 7 14 1
v 7 16 1
v 7 17 1
v 8 2 1
v 8 28 1
v 9 1 1
v 9 29 1
v 5 14 -2
v 5 16 -2
v 7 14 -2
v 7 16 -2
v 5 14 2
v 5 16 2
v 7 14 2
v 7 16 2
v -9 1 -1
v -9 29 -1
v -8 2 -1
v -8 28 -1
v 5 13 -1
v 5 14 -1
v 5 16 -1
v 5 17 -1
v 7 13 -1
v 7 14 -1
v 7 16 -1
v 7 17 -1
v 8 2 -1
v 8 28 -1
v 9 1 -1
v 9 29 -1
v -10 0 -2
v -10 30 -2
v -9 1 -2
v -9 29 -2
v 9 1 -2
v 9 29 -2
v 10 0 -2
v 10 30 -2
v 5 13 -3
v 5 14 -3
v 5 16 -3
v 5 17 -3
v 7 13 -3
v 7 14 -3
v 7 16 -3
v 7 17 -3
v -10 0 2
v 10 0 2
v -10 0 -2
v 10 0 -2
v 5 13 3
v 7 13 3
v 5 13 1
v 7 13 1
v 5 13 -1
v 7 13 -1
v 5 13 -3
v 7 13 -3
v 5 16 2
v 7 16 2
v 5 16 1
v 7 16 1
v 5 16 -1
v 7 16 -1
v 5 16 -2
v 7 16 -2
v -9 29 2
v 9 29 2
v -9 29 1
v 9 29 1
v -9 29 -1
v 9 29 -1
v -9 29 -2
v 9 29 -2
v -9 1 2
v 9 1 2
v -9 1 1
v 9 1 1
v -9 1 -1
v 9 1 -1
v -9 1 -2
v 9 1 -2
v 5 14 2
v 7 14 2
v 5 14 1
v 7 14 1
v 5 14 -1
v 7 14 -1
v 5 14 -2
v 7 14 -2
v 5 17 3
v 7 17 3
v 5 17 1
v 7 17 1
v 5 17 -1
v 7 17 -1
v 5 17 -3
v 7 17 -3
v -10 30 2
v 10 30 2
v -10 30 -2
v 10 30 -2

# faces
f 3/3/1 2/3/1 1/3/1
f 4/3/1 2/3/1 3/3/1
f 9/1/1 6/1/1 5/1/1
f 10/1/1 6/1/1 9/1/1
f 11/1/1 6/1/1 10/1/1
f 12/1/1 8/1/1 7/1/1
f 13/1/1 8/1/1 12/1/1
f 14/1/1 8/1/1 13/1/1
f 15/2/1 10/2/1 9/2/1
f 16/2/1 10/2/1 15/2/1
f 19/2/1 14/2/1 13/2/1
f 20/2/1 14/2/1 19/2/1
f 21/1/1 17/1/1 16/1/1
f 21/1/1 16/1/1 15/1/1
f 22/1/1 17/1/1 21/1/1
f 23/1/1 20/1/1 19/1/1
f 23/1/1 19/1/1 18/1/1
f 24/1/1 20/1/1 23/1/1
f 29/3/1 26/3/1 25/3/1
f 30/3/1 26/3/1 29/3/1
f 31/3/1 28/3/1 27/3/1
f 32/3/1 28/3/1 31/3/1
f 33/3/2 34/3/2 37/3/2
f 37/3/2 34/3/2 38/3/2
f 35/3/2 36/3/2 39/3/2
f 39/3/2 36/3/2 40/3/2
f 41/1/2 42/1/2 45/1/2
f 45/1/2 42/1/2 46/1/2
f 46/1/2 42/1/2 47/1/2
f 43/1/2 44/1/2 48/1/2
f 48/1/2 44/1/2 49/1/2
f 49/1/2 44/1/2 50/1/2
f 45/2/2 46/2/2 51/2/2
f 51/2/2 46/2/2 52/2/2
f 49/2/2 50/2/2 55/2/2
f 55/2/2 50/2/2 56/2/2
f 52/1/2 53/1/2 57/1/2
f 51/1/2 52/1/2 57/1/2
f 57/1/2 53/1/2 58/1/2
f 55/1/2 56/1/2 59/1/2
f 54/1/2 55/1/2 59/1/2
f 59/1/2 56/1/2 60/1/2
f 61/3/2 62/3/2 63/3/2
f 63/3/2 62/3/2 64/3/2
f 69/1/3 66/1/3 65/1/3
f 70/2/3 67/2/3 66/2/3
f 70/1/3 66/1/3 69/1/3
f 71/1/3 68/1/3 67/1/3
f 71/2/3 67/2/3 70/2/3
f 72/1/3 68/1/3 71/1/3
f 75/3/3 74/3/3 73/3/3
f 76/3/3 74/3/3 75/3/3
f 77/3/3 75/3/3 73/3/3
f 78/3/3 74/3/3 76/3/3
f 79/3/3 77/3/3 73/3/3
f 79/3/3 78/3/3 77/3/3
f 80/3/3 74/3/3 78/3/3
f 80/3/3 78/3/3 79/3/3
f 83/4/3 82/4/3 81/4/3
f 84/4/3 82/4/3 83/4/3
f 85/3/3 84/3/3 83/3/3
f 86/3/3 84/3/3 85/3/3
f 87/3/3 84/3/3 86/3/3
f 88/3/3 84/3/3 87/3/3
f 89/3/3 85/3/3 83/3/3
f 90/3/3 87/3/3 86/3/3
f 91/3/3 87/3/3 90/3/3
f 92/3/3 84/3/3 88/3/3
f 93/4/3 83/4/3 81/4/3
f 93/3/3 92/3/3 91/3/3
f 93/3/3 91/3/3 90/3/3
f 93/3/3 89/3/3 83/3/3
f 93/3/3 90/3/3 89/3/3
f 94/3/3 84/3/3 92/3/3
f 94/3/3 92/3/3 93/3/3
f 94/4/3 82/4/3 84/4/3
f 95/4/3 93/4/3 81/4/3
f 95/4/3 94/4/3 93/4/3
f 96/4/3 82/4/3 94/4/3
f 96/4/3 94/4/3 95/4/3
f 99/2/3 98/2/3 97/2/3
f 100/2/3 98/2/3 99/2/3
f 101/2/4 102/2/4 103/2/4
f 103/2/4 102/2/4 104/2/4
f 105/4/4 106/4/4 107/4/4
f 107/4/4 106/4/4 108/4/4
f 107/3/4 108/3/4 109/3/4
f 109/3/4 108/3/4 110/3/4
f 110/3/4 108/3/4 111/3/4
f 111/3/4 108/3/4 112/3/4
f 107/3/4 109/3/4 113/3/4
f 110/3/4 111/3/4 114/3/4
f 114/3/4 111/3/4 115/3/4
f 112/3/4 108/3/4 116/3/4
f 105/4/4 107/4/4 117/4/4
f 115/3/4 116/3/4 117/3/4
f 114/3/4 115/3/4 117/3/4
f 107/3/4 113/3/4 117/3/4
f 113/3/4 114/3/4 117/3/4
f 116/3/4 108/3/4 118/3/4
f 117/3/4 116/3/4 118/3/4
f 108/4/4 106/4/4 118/4/4
f 105/4/4 117/4/4 119/4/4
f 117/4/4 118/4/4 119/4/4
f 118/4/4 106/4/4 120/4/4
f 119/4/4 118/4/4 120/4/4
f 121/3/4 122/3/4 123/3/4
f 123/3/4 122/3/4 124/3/4
f 121/3/4 123/3/4 125/3/4
f 124/3/4 122/3/4 126/3/4
f 121/3/4 125/3/4 127/3/4
f 125/3/4 126/3/4 127/3/4
f 126/3/4 122/3/4 128/3/4
f 127/3/4 126/3/4 128/3/4
f 129/1/4 130/1/4 133/1/4
f 130/2/4 131/2/4 134/2/4
f 133/1/4 130/1/4 134/1/4
f 131/1/4 132/1/4 135/1/4
f 134/2/4 131/2/4 135/2/4
f 135/1/4 132/1/4 136/1/4
f 139/3/5 138/3/5 137/3/5
f 140/3/5 138/3/5 139/3/5
f 143/1/5 142/1/5 141/1/5
f 144/1/5 142/1/5 143/1/5
f 147/1/5 146/1/5 145/1/5
f 148/1/5 146/1/5 147/1/5
f 151/1/5 150/1/5 149/1/5
f 152/1/5 150/1/5 151/1/5
f 155/1/5 154/1/5 153/1/5
f 156/1/5 154/1/5 155/1/5
f 159/3/5 158/3/5 157/3/5
f 160/3/5 158/3/5 159/3/5
f 163/3/5 162/3/5 161/3/5
f 164/3/5 162/3/5 163/3/5
f 165/3/6 166/3/6 167/3/6
f 167/3/6 166/3/6 168/3/6
f 169/3/6 170/3/6 171/3/6
f 171/3/6 170/3/6 172/3/6
f 173/1/6 174/1/6 175/1/6
f 175/1/6 174/1/6 176/1/6
f 177/1/6 178/1/6 179/1/6
f 179/1/6 178/1/6 180/1/6
f 181/1/6 182/1/6 183/1/6
f 183/1/6 182/1/6 184/1/6
f 185/1/6 186/1/6 187/1/6
f 187/1/6 186/1/6 188/1/6
f 189/3/6 190/3/6 191/3/6
f 191/3/6 190/3/6 192/3/6
