# MagicaVoxel @ Ephtracy

# group
g Lv5_wall_D

# material
mtllib Lv5_wall_D.mtl
usemtl palette

# normals
vn -1 0 0
vn 1 0 0
vn 0 0 1
vn 0 0 -1
vn 0 -1 0
vn 0 1 0

# texcoords
vt 0.267578 0.5
vt 0.412109 0.5
vt 0.416016 0.5
vt 0.701172 0.5
vt 0.705078 0.5
vt 0.708984 0.5

# verts
v -20 0 5
v -20 0 3
v -20 0 -3
v -20 0 -5
v -20 1 5
v -20 1 3
v -20 1 -3
v -20 1 -5
v -20 4 5
v -20 4 3
v -20 4 -3
v -20 4 -5
v -20 5 5
v -20 5 3
v -20 5 -3
v -20 5 -5
v -20 6 5
v -20 6 3
v -20 6 -3
v -20 6 -5
v -20 34 5
v -20 34 3
v -20 34 -3
v -20 34 -5
v -20 35 5
v -20 35 3
v -20 35 -3
v -20 35 -5
v -20 36 5
v -20 36 3
v -20 36 -3
v -20 36 -5
v -20 39 5
v -20 39 3
v -20 39 -3
v -20 39 -5
v -20 40 5
v -20 40 3
v -20 40 -3
v -20 40 -5
v 10 0 5
v 10 0 -5
v 10 1 5
v 10 1 -5
v 10 4 5
v 10 4 -5
v 10 5 5
v 10 5 -5
v 10 6 5
v 10 6 -5
v 10 30 5
v 10 30 -5
v -10 0 5
v -10 0 -5
v -10 1 5
v -10 1 -5
v -10 4 5
v -10 4 -5
v -10 5 5
v -10 5 -5
v -10 6 5
v -10 6 -5
v -10 30 5
v -10 30 -5
v 20 0 5
v 20 0 3
v 20 0 -3
v 20 0 -5
v 20 1 5
v 20 1 3
v 20 1 -3
v 20 1 -5
v 20 4 5
v 20 4 3
v 20 4 -3
v 20 4 -5
v 20 5 5
v 20 5 3
v 20 5 -3
v 20 5 -5
v 20 6 5
v 20 6 3
v 20 6 -3
v 20 6 -5
v 20 34 5
v 20 34 3
v 20 34 -3
v 20 34 -5
v 20 35 5
v 20 35 3
v 20 35 -3
v 20 35 -5
v 20 36 5
v 20 36 3
v 20 36 -3
v 20 36 -5
v 20 39 5
v 20 39 3
v 20 39 -3
v 20 39 -5
v 20 40 5
v 20 40 3
v 20 40 -3
v 20 40 -5
v -20 0 5
v -20 1 5
v -20 4 5
v -20 5 5
v -20 6 5
v -20 34 5
v -20 35 5
v -20 36 5
v -20 39 5
v -20 40 5
v -10 0 5
v -10 1 5
v -10 4 5
v -10 5 5
v -10 6 5
v -10 30 5
v 10 0 5
v 10 1 5
v 10 4 5
v 10 5 5
v 10 6 5
v 10 30 5
v 20 0 5
v 20 1 5
v 20 4 5
v 20 5 5
v 20 6 5
v 20 34 5
v 20 35 5
v 20 36 5
v 20 39 5
v 20 40 5
v -20 0 -5
v -20 1 -5
v -20 4 -5
v -20 5 -5
v -20 6 -5
v -20 34 -5
v -20 35 -5
v -20 36 -5
v -20 39 -5
v -20 40 -5
v -10 0 -5
v -10 1 -5
v -10 4 -5
v -10 5 -5
v -10 6 -5
v -10 30 -5
v 10 0 -5
v 10 1 -5
v 10 4 -5
v 10 5 -5
v 10 6 -5
v 10 30 -5
v 20 0 -5
v 20 1 -5
v 20 4 -5
v 20 5 -5
v 20 6 -5
v 20 34 -5
v 20 35 -5
v 20 36 -5
v 20 39 -5
v 20 40 -5
v -20 0 5
v -10 0 5
v 10 0 5
v 20 0 5
v -20 0 3
v -12 0 3
v 12 0 3
v 20 0 3
v -20 0 -3
v -12 0 -3
v 12 0 -3
v 20 0 -3
v -20 0 -5
v -10 0 -5
v 10 0 -5
v 20 0 -5
v -10 30 5
v 10 30 5
v -10 30 -5
v 10 30 -5
v -20 40 5
v 20 40 5
v -20 40 3
v 20 40 3
v -20 40 -3
v 20 40 -3
v -20 40 -5
v 20 40 -5

# faces
f 5/6/1 2/6/1 1/6/1
f 6/1/1 3/1/1 2/1/1
f 6/6/1 2/6/1 5/6/1
f 7/6/1 4/6/1 3/6/1
f 7/1/1 3/1/1 6/1/1
f 8/6/1 4/6/1 7/6/1
f 9/5/1 6/5/1 5/5/1
f 10/1/1 7/1/1 6/1/1
f 10/5/1 6/5/1 9/5/1
f 11/5/1 8/5/1 7/5/1
f 11/1/1 7/1/1 10/1/1
f 12/5/1 8/5/1 11/5/1
f 13/4/1 10/4/1 9/4/1
f 14/1/1 11/1/1 10/1/1
f 14/4/1 10/4/1 13/4/1
f 15/4/1 12/4/1 11/4/1
f 15/1/1 11/1/1 14/1/1
f 16/4/1 12/4/1 15/4/1
f 17/3/1 14/3/1 13/3/1
f 18/1/1 15/1/1 14/1/1
f 18/3/1 14/3/1 17/3/1
f 19/3/1 16/3/1 15/3/1
f 19/1/1 15/1/1 18/1/1
f 20/3/1 16/3/1 19/3/1
f 21/2/1 18/2/1 17/2/1
f 22/1/1 19/1/1 18/1/1
f 22/2/1 18/2/1 21/2/1
f 23/2/1 20/2/1 19/2/1
f 23/1/1 19/1/1 22/1/1
f 24/2/1 20/2/1 23/2/1
f 25/3/1 22/3/1 21/3/1
f 26/1/1 23/1/1 22/1/1
f 26/3/1 22/3/1 25/3/1
f 27/3/1 24/3/1 23/3/1
f 27/1/1 23/1/1 26/1/1
f 28/3/1 24/3/1 27/3/1
f 29/6/1 26/6/1 25/6/1
f 30/1/1 27/1/1 26/1/1
f 30/6/1 26/6/1 29/6/1
f 31/6/1 28/6/1 27/6/1
f 31/1/1 27/1/1 30/1/1
f 32/6/1 28/6/1 31/6/1
f 33/5/1 30/5/1 29/5/1
f 34/1/1 31/1/1 30/1/1
f 34/5/1 30/5/1 33/5/1
f 35/5/1 32/5/1 31/5/1
f 35/1/1 31/1/1 34/1/1
f 36/5/1 32/5/1 35/5/1
f 37/4/1 34/4/1 33/4/1
f 38/1/1 35/1/1 34/1/1
f 38/4/1 34/4/1 37/4/1
f 39/4/1 36/4/1 35/4/1
f 39/1/1 35/1/1 38/1/1
f 40/4/1 36/4/1 39/4/1
f 43/6/1 42/6/1 41/6/1
f 44/6/1 42/6/1 43/6/1
f 45/5/1 44/5/1 43/5/1
f 46/5/1 44/5/1 45/5/1
f 47/4/1 46/4/1 45/4/1
f 48/4/1 46/4/1 47/4/1
f 49/3/1 48/3/1 47/3/1
f 50/3/1 48/3/1 49/3/1
f 51/2/1 50/2/1 49/2/1
f 52/2/1 50/2/1 51/2/1
f 53/6/2 54/6/2 55/6/2
f 55/6/2 54/6/2 56/6/2
f 55/5/2 56/5/2 57/5/2
f 57/5/2 56/5/2 58/5/2
f 57/4/2 58/4/2 59/4/2
f 59/4/2 58/4/2 60/4/2
f 59/3/2 60/3/2 61/3/2
f 61/3/2 60/3/2 62/3/2
f 61/2/2 62/2/2 63/2/2
f 63/2/2 62/2/2 64/2/2
f 65/6/2 66/6/2 69/6/2
f 66/1/2 67/1/2 70/1/2
f 69/6/2 66/6/2 70/6/2
f 67/6/2 68/6/2 71/6/2
f 70/1/2 67/1/2 71/1/2
f 71/6/2 68/6/2 72/6/2
f 69/5/2 70/5/2 73/5/2
f 70/1/2 71/1/2 74/1/2
f 73/5/2 70/5/2 74/5/2
f 71/5/2 72/5/2 75/5/2
f 74/1/2 71/1/2 75/1/2
f 75/5/2 72/5/2 76/5/2
f 73/4/2 74/4/2 77/4/2
f 74/1/2 75/1/2 78/1/2
f 77/4/2 74/4/2 78/4/2
f 75/4/2 76/4/2 79/4/2
f 78/1/2 75/1/2 79/1/2
f 79/4/2 76/4/2 80/4/2
f 77/3/2 78/3/2 81/3/2
f 78/1/2 79/1/2 82/1/2
f 81/3/2 78/3/2 82/3/2
f 79/3/2 80/3/2 83/3/2
f 82/1/2 79/1/2 83/1/2
f 83/3/2 80/3/2 84/3/2
f 81/2/2 82/2/2 85/2/2
f 82/1/2 83/1/2 86/1/2
f 85/2/2 82/2/2 86/2/2
f 83/2/2 84/2/2 87/2/2
f 86/1/2 83/1/2 87/1/2
f 87/2/2 84/2/2 88/2/2
f 85/3/2 86/3/2 89/3/2
f 86/1/2 87/1/2 90/1/2
f 89/3/2 86/3/2 90/3/2
f 87/3/2 88/3/2 91/3/2
f 90/1/2 87/1/2 91/1/2
f 91/3/2 88/3/2 92/3/2
f 89/6/2 90/6/2 93/6/2
f 90/1/2 91/1/2 94/1/2
f 93/6/2 90/6/2 94/6/2
f 91/6/2 92/6/2 95/6/2
f 94/1/2 91/1/2 95/1/2
f 95/6/2 92/6/2 96/6/2
f 93/5/2 94/5/2 97/5/2
f 94/1/2 95/1/2 98/1/2
f 97/5/2 94/5/2 98/5/2
f 95/5/2 96/5/2 99/5/2
f 98/1/2 95/1/2 99/1/2
f 99/5/2 96/5/2 100/5/2
f 97/4/2 98/4/2 101/4/2
f 98/1/2 99/1/2 102/1/2
f 101/4/2 98/4/2 102/4/2
f 99/4/2 100/4/2 103/4/2
f 102/1/2 99/1/2 103/1/2
f 103/4/2 100/4/2 104/4/2
f 115/6/3 106/6/3 105/6/3
f 116/5/3 107/5/3 106/5/3
f 116/6/3 106/6/3 115/6/3
f 117/4/3 108/4/3 107/4/3
f 117/5/3 107/5/3 116/5/3
f 118/3/3 109/3/3 108/3/3
f 118/4/3 108/4/3 117/4/3
f 119/2/3 110/2/3 109/2/3
f 119/3/3 109/3/3 118/3/3
f 120/2/3 110/2/3 119/2/3
f 126/2/3 110/2/3 120/2/3
f 127/6/3 122/6/3 121/6/3
f 128/5/3 123/5/3 122/5/3
f 128/6/3 122/6/3 127/6/3
f 129/4/3 124/4/3 123/4/3
f 129/5/3 123/5/3 128/5/3
f 130/3/3 125/3/3 124/3/3
f 130/4/3 124/4/3 129/4/3
f 131/2/3 126/2/3 125/2/3
f 131/3/3 125/3/3 130/3/3
f 132/3/3 111/3/3 110/3/3
f 132/2/3 126/2/3 131/2/3
f 132/2/3 110/2/3 126/2/3
f 133/6/3 112/6/3 111/6/3
f 133/3/3 111/3/3 132/3/3
f 134/5/3 113/5/3 112/5/3
f 134/6/3 112/6/3 133/6/3
f 135/4/3 114/4/3 113/4/3
f 135/5/3 113/5/3 134/5/3
f 136/4/3 114/4/3 135/4/3
f 137/6/4 138/6/4 147/6/4
f 138/5/4 139/5/4 148/5/4
f 147/6/4 138/6/4 148/6/4
f 139/4/4 140/4/4 149/4/4
f 148/5/4 139/5/4 149/5/4
f 140/3/4 141/3/4 150/3/4
f 149/4/4 140/4/4 150/4/4
f 141/2/4 142/2/4 151/2/4
f 150/3/4 141/3/4 151/3/4
f 151/2/4 142/2/4 152/2/4
f 152/2/4 142/2/4 158/2/4
f 153/6/4 154/6/4 159/6/4
f 154/5/4 155/5/4 160/5/4
f 159/6/4 154/6/4 160/6/4
f 155/4/4 156/4/4 161/4/4
f 160/5/4 155/5/4 161/5/4
f 156/3/4 157/3/4 162/3/4
f 161/4/4 156/4/4 162/4/4
f 157/2/4 158/2/4 163/2/4
f 162/3/4 157/3/4 163/3/4
f 142/3/4 143/3/4 164/3/4
f 163/2/4 158/2/4 164/2/4
f 158/2/4 142/2/4 164/2/4
f 143/6/4 144/6/4 165/6/4
f 164/3/4 143/3/4 165/3/4
f 144/5/4 145/5/4 166/5/4
f 165/6/4 144/6/4 166/6/4
f 145/4/4 146/4/4 167/4/4
f 166/5/4 145/5/4 167/5/4
f 167/4/4 146/4/4 168/4/4
f 173/6/5 170/6/5 169/6/5
f 174/6/5 170/6/5 173/6/5
f 175/6/5 172/6/5 171/6/5
f 176/6/5 172/6/5 175/6/5
f 177/1/5 174/1/5 173/1/5
f 178/6/5 170/6/5 174/6/5
f 178/1/5 174/1/5 177/1/5
f 179/6/5 175/6/5 171/6/5
f 179/1/5 176/1/5 175/1/5
f 180/1/5 176/1/5 179/1/5
f 181/6/5 178/6/5 177/6/5
f 182/6/5 170/6/5 178/6/5
f 182/6/5 178/6/5 181/6/5
f 183/6/5 179/6/5 171/6/5
f 183/6/5 180/6/5 179/6/5
f 184/6/5 180/6/5 183/6/5
f 187/2/5 186/2/5 185/2/5
f 188/2/5 186/2/5 187/2/5
f 189/4/6 190/4/6 191/4/6
f 191/4/6 190/4/6 192/4/6
f 191/1/6 192/1/6 193/1/6
f 193/1/6 192/1/6 194/1/6
f 193/4/6 194/4/6 195/4/6
f 195/4/6 194/4/6 196/4/6
